Monoid.sfdir
StartChar: exclam
Encoding: 33 33 56
Width: 1024
VWidth: 0
Flags: W
HStem: -16 288<474.603 677.397> 1388 20G<502 650>
VStem: 432 288<26.5482 229.452> 512 128<512 1408>
LayerCount: 5
Back
Fore
SplineSet
576 272 m 4xe0
 660.825 272 720 212.965625 720 128 c 4
 720 43.034375 660.825 -16 576 -16 c 4
 491.175 -16 432 43.034375 432 128 c 4
 432 212.965625 491.175 272 576 272 c 4xe0
640 512 m 1xd0
 512 512 l 1
 502 1408 l 1
 650 1408 l 1
 640 512 l 1xd0
EndSplineSet
Layer: 2
Layer: 3
Layer: 4
EndChar
StartChar: quotedbl
Encoding: 34 34 57
Width: 1024
VWidth: 0
Flags: W
HStem: 896 640<384 512 768 896>
VStem: 384 128<896 1536> 768 128<896 1536>
LayerCount: 5
Back
Fore
SplineSet
768 1536 m 1
 896 1536 l 1
 896 896 l 1
 768 896 l 1
 768 1536 l 1
384 1536 m 1
 512 1536 l 1
 512 896 l 1
 384 896 l 1
 384 1536 l 1
EndSplineSet
Layer: 2
Layer: 3
Layer: 4
EndChar
StartChar: dollar
Encoding: 36 36 59
Width: 1024
VWidth: 0
Flags: W
HStem: 653 120<640 756.392> 675 123<418.919 512>
VStem: 182 128<904.925 1189.89> 512 128<-128 -14 109 653 798 1298 1421 1536> 882 128<239.512 527.992>
LayerCount: 5
Back
SplineSet
576 -16 m 4
 455 -16 329 -1.92 216 16 c 5
 216 139 l 5
 327 120.509433962 461 104 576 104 c 4
 755 104 882 209 882 385 c 4
 882 508 813 597 724 632 c 4
 610 678 500 650 367 721 c 4
 260 778 182 895 182 1045 c 4
 182 1266 341 1424 576 1424 c 4
 692 1424 812 1407 916 1389 c 5
 916 1265 l 5
 813 1285 682 1304 576 1304 c 4
 411 1304 310 1198 310 1045 c 4
 310 942 361 863 433 825 c 4
 531 773 656 788 772 742 c 4
 901 691 1010 566 1010 385 c 4
 1010 143 825 -16 576 -16 c 4
EndSplineSet
Fore
SplineSet
640 -128 m 1xb8
 512 -128 l 1
 512 -14 l 1
 410.874233129 -11.5 308.837423313 1.625 215 16 c 1
 215 139 l 1
 306.104294479 124.28 412.696319018 110.2 512 107 c 1
 512 675 l 1x78
 322 696.769430052 182 843.974237191 182 1042 c 0
 182 1244.25454545 313 1393.49090909 512 1420 c 1
 512 1536 l 1
 640 1536 l 1
 640 1421 l 1
 735.607843137 1417.92307692 831.215686275 1403.15384615 916 1389 c 1
 916 1265 l 1
 833.019607843 1280.27272727 732 1296.18181818 640 1300 c 1
 640 773 l 1
 849 753.502617801 1010 608.863874346 1010 381 c 0
 1010 169.775193798 859 13.3720930233 640 -12 c 1
 640 -128 l 1xb8
640 109 m 5
 786 129.473684211 882 235.796992481 882 381 c 0
 882 541.992366412 776 639.503816794 640 653 c 1xb8
 640 109 l 5
512 1298 m 1
 385 1273.66539924 310 1175.35361217 310 1042 c 0
 310 915.915130513 391 818.19391635 512 798 c 1x78
 512 1298 l 1
EndSplineSet
Validated: 1
Layer: 2
Layer: 3
Layer: 4
Substitution2: "'ss14' Style Set 14 lookup 6-1" dollar.alt
EndChar
StartChar: quotesingle
Encoding: 39 39 62
Width: 1024
VWidth: 0
Flags: W
HStem: 896 640<512 640>
VStem: 512 128<896 1536>
LayerCount: 5
Back
Fore
SplineSet
512 1536 m 1
 640 1536 l 1
 640 896 l 1
 512 896 l 1
 512 1536 l 1
EndSplineSet
Layer: 2
Layer: 3
Layer: 4
EndChar
StartChar: parenleft
Encoding: 40 40 63
GlifName: parenleft
Width: 1024
VWidth: 0
Flags: W
VStem: 360 128<409.54 996.28>
LayerCount: 5
Back
SplineSet
488 703 m 4
 488 556 513 409 575 281 c 4
 641 145 753 32 886 -30 c 5
 835 -140 l 5
 670 -64 537 71 459 231 c 4
 387 379 360 543 360 703 c 4
 360 863 387 1027 459 1175 c 4
 537 1335 670 1470 835 1546 c 5
 886 1436 l 5
 753 1374 641 1261 575 1125 c 4
 513 997 488 850 488 703 c 4
EndSplineSet
Fore
SplineSet
488 703 m 0
 488 331.756124421 641.236136513 88.5748416421 890 -35 c 1
 835 -140 l 1
 544.074347537 1.00211871016 360 281.003232297 360 703 c 0
 360 1124.66857761 544.171941358 1404.0428336 835 1546 c 1
 890 1441 l 1
 641.214174409 1316.40813183 488 1074.47248207 488 703 c 0
EndSplineSet
Layer: 2
SplineSet
860 1491 m 4
 710.626953125 1422.12890625 588.694335938 1298.03808594 517 1150 c 4
 450.10546875 1011.87304688 424 856.473632812 424 703 c 4
 424 549.526367188 450.10546875 394.126953125 517 256 c 4
 588.694335938 107.961914062 710.626953125 -16.12890625 860 -85 c 1028
  Spiro
    860 1491 {
    517 1150 o
    424 703 o
    517 256 o
    860 -85 o
    0 0 z
  EndSpiro
EndSplineSet
Layer: 3
Layer: 4
EndChar
StartChar: parenright
Encoding: 41 41 64
GlifName: parenright
Width: 1024
VWidth: 0
Flags: W
VStem: 664 128<408.278 997.722>
LayerCount: 5
Back
Fore
SplineSet
664 703 m 4
 664 850 639 997 577 1125 c 4
 511 1261 399 1374 266 1436 c 5
 317 1546 l 5
 482 1470 615 1335 693 1175 c 4
 765 1027 792 863 792 703 c 4
 792 543 765 379 693 231 c 4
 615 71 482 -64 317 -140 c 5
 266 -30 l 5
 399 32 511 145 577 281 c 4
 639 409 664 556 664 703 c 4
EndSplineSet
Validated: 1
Layer: 2
Layer: 3
Layer: 4
EndChar
StartChar: asterisk
Encoding: 42 42 65
GlifName: asterisk
Width: 1024
VWidth: 0
Flags: W
HStem: 1004 20G<318.358 364.534 788.402 834.642>
VStem: 512 128<128 522>
LayerCount: 5
Back
Fore
SplineSet
512 522 m 1
 144 402 l 1
 102 515 l 1
 476 637 l 1
 244 957 l 1
 350 1024 l 1
 576 713 l 1
 803 1024 l 1
 909 957 l 1
 676 637 l 1
 1050 515 l 1
 1008 402 l 1
 640 522 l 1
 640 128 l 1
 512 128 l 1
 512 522 l 1
EndSplineSet
Layer: 2
Layer: 3
SplineSet
169 553 m 29
 983 1367 l 1053
169 1367 m 29
 983 553 l 1053
EndSplineSet
Layer: 4
SplineSet
512 601 m 5
 427 640 l 5
 158 906 l 1
 240 1000 l 1
 571 664 l 1
 581 664 l 1
 912 1000 l 1
 994 906 l 1
 664 581 l 1
 664 571 l 1
 994 246 l 1
 912 152 l 1
 581 488 l 1
 571 488 l 1
 240 152 l 1
 158 246 l 1
 427 512 l 5
 512 551 l 5
 512 601 l 5
601 640 m 1
 640 725 l 1
 906 994 l 1
 1000 912 l 1
 664 581 l 1
 664 571 l 1
 1000 240 l 1
 906 158 l 1
 581 488 l 1
 571 488 l 1
 246 158 l 1
 152 240 l 1
 488 571 l 1
 488 581 l 1
 152 912 l 1
 246 994 l 1
 512 725 l 1
 551 640 l 1
 601 640 l 1
640 551 m 1
 725 512 l 1
 994 246 l 1
 912 152 l 1
 581 488 l 1
 571 488 l 1
 240 152 l 1
 158 246 l 1
 488 571 l 1
 488 581 l 1
 158 906 l 1
 240 1000 l 1
 571 664 l 1
 581 664 l 1
 912 1000 l 1
 994 906 l 1
 725 640 l 1
 640 601 l 1
 640 551 l 1
EndSplineSet
Substitution2: "'ss02' Style Set 2 lookup 53 subtable" asterisk.multi
EndChar
StartChar: plus
Encoding: 43 43 66
Width: 1024
VWidth: 0
Flags: W
HStem: 644 120<128 512 640 1024>
VStem: 512 128<256 644 764 1152>
LayerCount: 5
Back
Fore
SplineSet
640 764 m 1
 1024 764 l 1
 1024 644 l 1
 640 644 l 1
 640 256 l 1
 512 256 l 1
 512 644 l 1
 128 644 l 1
 128 764 l 1
 512 764 l 1
 512 1152 l 5
 640 1152 l 5
 640 764 l 1
EndSplineSet
Layer: 2
Layer: 3
Layer: 4
EndChar
StartChar: comma
Encoding: 44 44 67
Width: 1024
VWidth: 0
Flags: W
HStem: -256 656<412.366 490>
VStem: 384 256<90.6406 371.839> 384 106<-256 -208.756>
LayerCount: 5
Back
SplineSet
512 400 m 0
 587.4 400 640 347.525 640 272 c 4
 640 196.475 587.4 144 512 144 c 4
 436.6 144 384 196.475 384 272 c 4
 384 347.525 436.6 400 512 400 c 0
EndSplineSet
Fore
SplineSet
384 -256 m 5xa0
 384 254 l 6
 384 272 384 295 391 317 c 4
 407 366 451 400 512 400 c 4
 589 400 640 346 640 272 c 4xc0
 640 240 631 209 622 179 c 6
 490 -256 l 5
 384 -256 l 5xa0
EndSplineSet
Layer: 2
SplineSet
384 -256 m 1
 384 244 l 2
 384 267.168354375 384.381213682 290.646351533 390.682897067 312.941226078 c 0
 396.984580451 335.236100622 409.369319826 355.968973387 427 371 c 0
 450.017385417 390.623459183 480.74272609 400.003413166 511.0003042 400.003413166 c 0
 511.333596531 400.003413166 511.666832107 400.002275059 512 400 c 0
 530.55129052 399.873321259 549.129771335 396.372125982 566.247624664 389.220516032 c 0
 583.365477993 382.068906083 598.951081661 371.106381334 611 357 c 0
 630.926165862 333.67125909 639.976812741 302.498738515 640.000196305 271.741795789 c 0
 640.000196305 240.131012886 631.180108833 209.252631383 622 179 c 2
 490 -256 l 1
 384 -256 l 1
  Spiro
    384 -256 v
    384 244 ]
    427 371 o
    512 400 o
    611 357 o
    640 272 o
    622 179 [
    490 -256 v
    0 0 z
  EndSpiro
EndSplineSet
Layer: 3
Layer: 4
EndChar
StartChar: hyphen
Encoding: 45 45 55
GlifName: hyphen
Width: 1024
VWidth: 0
Flags: W
HStem: 644 120<256 896>
LayerCount: 5
Back
Fore
SplineSet
256 764 m 5
 896 764 l 5
 896 644 l 5
 256 644 l 5
 256 764 l 5
EndSplineSet
Validated: 1
Layer: 2
Layer: 3
Layer: 4
Substitution2: "Single Substitution lookup 21 subtable" ligaarrowleft
Substitution2: "Single Substitution lookup 18 subtable" larsenwork
Substitution2: "Single Substitution lookup 17 subtable" ligaarrowlefttwoheads
Substitution2: "Single Substitution lookup 12 subtable" larsenwork1
Substitution2: "Single Substitution lookup 11 subtable" ligaarrowleftlong
Substitution2: "Single Substitution lookup 10 subtable" larsenwork
Substitution2: "Single Substitution lookup 7 subtable" larsenwork
Substitution2: "Single Substitution lookup 6 subtable" larsenwork
Substitution2: "Single Substitution lookup 5 subtable" commentstart
Substitution2: "Single Substitution lookup 4 subtable" larsenwork5
EndChar
StartChar: period
Encoding: 46 46 68
GlifName: period
Width: 1024
VWidth: 0
Flags: W
HStem: -16 288<410.535 613.465>
VStem: 368 288<26.5349 229.465>
LayerCount: 5
Back
Fore
SplineSet
512 272 m 4
 597 272 656 213 656 128 c 4
 656 43 597 -16 512 -16 c 4
 427 -16 368 43 368 128 c 4
 368 213 427 272 512 272 c 4
EndSplineSet
Validated: 1
Layer: 2
Layer: 3
Layer: 4
Substitution2: "Single Substitution lookup 43 subtable" period2r
Substitution2: "Single Substitution lookup 42 subtable" period2l
Substitution2: "Single Substitution lookup 41 subtable" dotdotdot
Substitution2: "Single Substitution lookup 40 subtable" larsenwork
Substitution2: "Single Substitution lookup 39 subtable" larsenwork
EndChar
StartChar: one
Encoding: 49 49 71
Width: 1024
VWidth: 0
Flags: W
HStem: 0 21G<640 768> 1388 20G<632.517 768>
VStem: 640 128<0 1246>
LayerCount: 5
Back
Fore
SplineSet
660 1408 m 1
 768 1408 l 1
 768 0 l 1
 640 0 l 1
 640 1246 l 1
 630 1246 l 1
 256 976 l 1
 256 1114 l 1
 660 1408 l 1
EndSplineSet
Layer: 2
Layer: 3
Layer: 4
Substitution2: "'ss11' Style Set 11 lookup 3-1" one.alt
EndChar
StartChar: two
Encoding: 50 50 72
GlifName: two
Width: 1024
VWidth: 0
Flags: W
HStem: 0 120<418 896> 1304 120<260.096 702.458>
VStem: 780 128<961.583 1227.75>
LayerCount: 5
Back
SplineSet
256 1383 m 5
 349 1404.94366197 463 1424 564 1424 c 4
 806 1424 908 1259 908 1093 c 4
 908 1006 880 949 852 899 c 6
 418 120 l 5
 896 120 l 5
 896 0 l 5
 256 0 l 5
 256 89 l 5
 738 955 l 6
 762 998 780 1033 780 1093 c 4
 780 1188 735 1304 564 1304 c 4
 459 1304 343 1282.94594595 256 1263 c 5
 256 1383 l 5
EndSplineSet
Fore
SplineSet
256 1393 m 1
 346 1410 456 1424 554 1424 c 4
 813 1424 908 1259 908 1093 c 0
 908 1006 880 949 852 899 c 2
 418 120 l 1
 896 120 l 1
 896 0 l 1
 256 0 l 1
 256 89 l 1
 738 955 l 2
 762 998 780 1033 780 1093 c 0
 780 1188 742 1304 554 1304 c 4
 452 1304 340 1288 256 1273 c 1
 256 1393 l 1
EndSplineSet
Validated: 1
Layer: 2
SplineSet
576 1364 m 4
 733.868164062 1364 844 1254.12988281 844 1096 c 4
 844 937.870076497 733.868164062 828 576 828 c 4
 418.131795247 828 308 937.870076497 308 1096 c 4
 308 1254.12988281 418.131795247 1364 576 1364 c 4
EndSplineSet
Layer: 3
SplineSet
192 1293 m 4
 248.355904097 1308.52974632 304.967301076 1323.17688803 362 1336 c 4
 428.18775421 1350.88151533 495.3409582 1364.00064682 563.175452299 1364.00064682 c 4
 564 1364 l 4
 603.210791242 1363.93844802 642.706382424 1359.01018897 679.650250993 1345.87091526 c 4
 716.594119563 1332.73164155 750.646621617 1311.0342795 777 1282 c 4
 800.08411194 1256.56756593 817.130103031 1225.90940022 828.042690246 1193.34254027 c 4
 838.854362991 1161.07684332 844.001344804 1126.98301712 844.001344804 1092.95287789 c 4
 844.001344804 1063.36742011 839.951057919 1034.17348812 831.244726667 1006.08964992 c 4
 822.640059437 978.333747312 809.142161828 952.385619678 795 927 c 6
 312 60 l 5
 896 60 l 1029
  Spiro
    192 1293 {
    362 1336 o
    564 1364 o
    777 1282 o
    844 1092 o
    795 927 [
    312 60 v
    896 60 v
    0 0 z
  EndSpiro
EndSplineSet
Layer: 4
EndChar
StartChar: four
Encoding: 52 52 74
GlifName: four
Width: 1024
VWidth: 0
Flags: W
HStem: 0 21G<768 896> 384 120<346 768 896 1024>
VStem: 768 128<0 384 504 768>
LayerCount: 5
Back
SplineSet
1024 510 m 1
 1024 386 l 1
 244 386 l 1
 188.847475849 476.323119174 l 1
 681.847475849 1436.32311917 l 1
 792.152524151 1379.67688083 l 1
 345.53720931 510 l 1
 1024 510 l 1
894 0 m 1
 770 0 l 1
 770 768 l 1
 894 768 l 1
 894 0 l 1
EndSplineSet
Fore
SplineSet
896 0 m 5
 768 0 l 5
 768 384 l 5
 192 384 l 5
 192 484 l 5
 681 1436 l 5
 790 1380 l 5
 346 514 l 5
 346 504 l 5
 768 504 l 5
 768 768 l 5
 896 768 l 5
 896 504 l 5
 1024 504 l 5
 1024 384 l 5
 896 384 l 5
 896 0 l 5
EndSplineSet
Validated: 1
Layer: 2
SplineSet
1024 448 m 29
 174 448 l 29
 384 1408 l 1053
832 0 m 29
 832 1408 l 1053
EndSplineSet
Layer: 3
SplineSet
1024 448 m 5
 244 448 l 5
 737 1408 l 1029
832 0 m 5
 832 768 l 1029
EndSplineSet
Layer: 4
SplineSet
896 0 m 5
 768 0 l 5
 768 388 l 5
 256 388 l 5
 256 460 l 5
 392 1408 l 5
 518 1408 l 5
 387 508 l 5
 768 508 l 5
 768 1408 l 5
 896 1408 l 5
 896 508 l 5
 1024 508 l 5
 1024 388 l 5
 896 388 l 5
 896 0 l 5
EndSplineSet
Substitution2: "'ss12' Style Set 12 lookup 113 subtable" four.triangle
EndChar
StartChar: five
Encoding: 53 53 75
Width: 1024
VWidth: 0
Flags: W
HStem: -16 120<350.566 718.335> 792 120<479.541 717.576> 1288 120<384 896>
VStem: 256 128<796 1288> 800 128<195.411 700.957>
LayerCount: 5
Back
Fore
SplineSet
256 170 m 1
 354 141 487 104 590 104 c 0
 781 104 800 260 800 449 c 0
 800 526 800 608 780 663 c 0
 742 766 665 792 592 792 c 0
 494 792 418 744 373 683 c 1
 256 717 l 1
 256 1408 l 1
 896 1408 l 1
 896 1288 l 1
 384 1288 l 1
 384 1124 384 960 384 796 c 1
 394 796 l 1
 453 864 514 912 612 912 c 0
 733 912 811 859 865 781 c 0
 927 691 928 579 928 447 c 0
 928 318 918 200 866 122 c 0
 810 38 727 -16 590 -16 c 0
 477 -16 357 17 256 45 c 1
 256 170 l 1
EndSplineSet
Layer: 2
SplineSet
592 852 m 4
 569.874950019 852 547.708987409 850.270562295 526 846 c 4
 485.669098677 838.066160283 447.076701406 820.262547848 416.241313788 793.083396194 c 4
 385.40592617 765.904244539 362.748306891 730.14912327 348.306511624 691.665854651 c 4
 319.422921089 614.699317412 319.999999999 530.20772261 320 448 c 4
 320 365.79227739 319.422921091 281.300682587 348.306511626 204.334145348 c 4
 362.748306893 165.850876729 385.405926172 130.09575546 416.241313789 102.916603806 c 4
 447.076701407 75.7374521517 485.669098677 57.9338397167 526 50 c 4
 547.708987409 45.7294377049 569.874950019 44 592 44 c 4
 614.125049981 44 636.291012591 45.7294377049 658 50 c 4
 698.330901323 57.9338397167 736.923298594 75.7374521519 767.758686212 102.916603806 c 4
 798.59407383 130.095755461 821.251693109 165.85087673 835.693488376 204.334145349 c 4
 864.577078911 281.300682588 864.000000001 365.79227739 864 448 c 4
 864 530.20772261 864.577078909 614.699317413 835.693488374 691.665854652 c 4
 821.251693107 730.149123271 798.594073828 765.90424454 767.758686211 793.083396194 c 4
 736.923298593 820.262547848 698.330901323 838.066160283 658 846 c 4
 636.291012591 850.270562295 614.125049981 852 592 852 c 4
  Spiro
    592 852 o
    526 846 o
    320 448 o
    526 50 o
    592 44 o
    658 50 o
    864 448 o
    658 846 o
    0 0 z
  EndSpiro
EndSplineSet
Layer: 3
SplineSet
592 852 m 0
 541.044412231 852.064572582 490.06628348 840.780119853 444 819 c 0
 395.114545029 795.886977027 352.009337263 760.582127836 320 717 c 1
 320 1344 l 1
 896 1344 l 1
 1254 867 l 1
 188 128 l 1
 256.9832888 106.595441015 326.580513009 87.0606703136 397 71 c 0
 460.460079435 56.5265714443 524.91036818 44.0405660285 590 44 c 0
 635.733671888 43.971497251 682.219553902 51.2991600935 723 72 c 0
 752.406637576 86.9273035217 778.299863741 108.637763448 798.336743045 134.831239576 c 0
 818.37362235 161.024715705 832.567915771 191.399200784 842 223 c 0
 863.621048561 295.438116312 862.991426408 372.410759925 864 448 c 0
 864.758837055 504.87231624 865.753677476 562.087025231 857.05428616 618.295181035 c 0
 848.354894845 674.50333684 827.479228702 730.114618938 789 772 c 0
 764.31687897 798.868052323 733.135295531 819.565543469 699.124306827 832.771653678 c 0
 665.113318124 845.977763887 628.484881276 851.953765169 592 852 c 0
  Spiro
    592 852 o
    444 819 o
    320 717 v
    320 1344 v
    896 1344 v
    1254 867 v
    188 128 v
    397 71 o
    590 44 o
    723 72 o
    842 223 o
    864 448 o
    789 772 o
    0 0 z
  EndSpiro
EndSplineSet
Layer: 4
EndChar
StartChar: eight
Encoding: 56 56 78
GlifName: eight
Width: 1024
VWidth: 0
Flags: W
HStem: -16 120<441.047 710.953> 654 120<459.807 692.193> 1304 120<453.733 698.267>
VStem: 224 128<202.42 550.304> 244 128<870.109 1218.07> 780 128<870.109 1218.07> 800 128<202.42 550.304>
LayerCount: 5
Back
Fore
SplineSet
576 1304 m 4xec
 431 1304 372 1187 372 1045 c 4
 372 902 433 774 576 774 c 4
 719 774 780 902 780 1045 c 4
 780 1187 721 1304 576 1304 c 4xec
576 1424 m 4
 795 1424 908 1254 908 1045 c 4xec
 908 900 861 789 751 723 c 5
 751 713 l 5
 871 648 928 529 928 374 c 4
 928 156 805 -16 576 -16 c 4
 347 -16 224 156 224 374 c 4xf2
 224 529 281 648 401 713 c 5
 401 723 l 5
 291 789 244 900 244 1045 c 4
 244 1254 357 1424 576 1424 c 4
576 654 m 4
 420 654 352 526 352 374 c 4
 352 222 420 104 576 104 c 4
 732 104 800 222 800 374 c 4xf2
 800 526 732 654 576 654 c 4
EndSplineSet
Layer: 2
Layer: 3
SplineSet
576 1364 m 0
 553.831980394 1364 531.629809589 1361.85514473 510 1357 c 0
 477.069590083 1349.60826104 445.57885689 1335.51327068 418.637732111 1315.185322 c 0
 391.696607333 1294.85737331 369.454068743 1268.55319949 352.792747504 1239.2027297 c 0
 319.66185444 1180.83957459 307.998829883 1112.29326759 307.998829883 1045.16538956 c 0
 307.998829883 975.35264245 320.110950671 904.751877536 353.804356808 843.946862417 c 0
 370.555524591 813.716763208 392.87342733 786.427817661 420.096392698 765.135314828 c 0
 447.319358065 743.842811996 479.332960956 728.809673636 513 721 c 0
 533.62708403 716.215177844 554.825224472 714 576 714 c 0
 597.174775528 714 618.37291597 716.215177844 639 721 c 0
 672.667039044 728.809673636 704.680641935 743.842811996 731.903607302 765.135314828 c 0
 759.12657267 786.427817661 781.444475409 813.716763208 798.195643192 843.946862417 c 0
 831.88834147 904.750600093 844.001170117 975.353935253 844.001170117 1045.16538956 c 0
 844.001170117 1112.29326759 832.33814556 1180.83957459 799.207252496 1239.2027297 c 0
 782.545931257 1268.55319949 760.303392667 1294.85737331 733.362267889 1315.185322 c 0
 706.42114311 1335.51327068 674.930409917 1349.60826104 642 1357 c 0
 620.370190411 1361.85514473 598.168019606 1364 576 1364 c 0
  Spiro
    576 1364 o
    510 1357 o
    308 1044 o
    513 721 o
    576 714 o
    639 721 o
    844 1044 o
    642 1357 o
    0 0 z
  EndSpiro
576 714 m 0
 554.871031116 714 533.719640472 712.138819254 513 708 c 0
 477.153333023 700.839505315 442.688045549 686.399236543 412.991923695 665.082656977 c 0
 383.295801841 643.766077412 358.53516438 615.848778121 339.781139349 584.471353711 c 0
 302.207883329 521.607408578 288.022311966 446.983815652 287.999896518 373.661502398 c 0
 287.999896518 302.303375764 301.800341123 229.360177451 339.040021037 168.495819137 c 0
 357.689304002 138.015518467 382.324125705 111.089124467 411.679906667 90.7155482431 c 0
 441.035687629 70.3419720196 474.917456367 56.7867235333 510 50 c 0
 531.721321388 45.7980069922 553.875973511 44 576 44 c 0
 598.124026489 44 620.278678612 45.7980069922 642 50 c 0
 677.082543633 56.7867235333 710.964312371 70.3419720196 740.320093333 90.7155482432 c 0
 769.675874295 111.089124467 794.310695998 138.015518467 812.959978963 168.495819138 c 0
 850.199658877 229.360177451 864.000103482 302.303375764 864.000103482 373.661502398 c 0
 863.977687918 446.984194668 849.792405231 521.606925788 812.218860651 584.471353711 c 0
 793.46483562 615.848778121 768.704198159 643.766077412 739.008076305 665.082656978 c 0
 709.311954451 686.399236543 674.846666977 700.839505315 639 708 c 0
 618.280359528 712.138819254 597.128968884 714 576 714 c 0
  Spiro
    576 714 o
    513 708 o
    288 374 o
    510 50 o
    576 44 o
    642 50 o
    864 374 o
    639 708 o
    0 0 z
  EndSpiro
EndSplineSet
Layer: 4
SplineSet
576 1364 m 0
 553.832008443 1364 531.630137888 1361.85355381 510 1357 c 0
 477.065159513 1349.60980113 445.566770995 1335.5252712 418.612377569 1315.20829721 c 0
 391.657984142 1294.89132321 369.397759543 1268.59506537 352.732272736 1239.24237714 c 0
 319.5093182 1180.72725315 307.999635337 1111.95486384 307.999635337 1044.65638332 c 0
 307.999635337 973.531497883 320.180779014 901.401062334 353.830734042 838.927413864 c 0
 370.603143185 807.788186725 392.993107067 779.513402915 420.510960359 757.293301083 c 0
 448.028813651 735.073199251 480.588740351 719.174985296 515 711 c 0
 534.957599367 706.258729758 555.48694523 704 576 704 c 0
 596.51305477 704 617.042400633 706.258729758 637 711 c 0
 671.411259649 719.174985296 703.971186349 735.073199251 731.489039641 757.293301083 c 0
 759.006892933 779.513402915 781.396856815 807.788186725 798.169265958 838.927413864 c 0
 831.830701045 901.42237592 843.960841415 973.515610205 844.000364663 1044.65638332 c 0
 844.000364663 1111.95486384 832.4906818 1180.72725315 799.267727264 1239.24237714 c 0
 782.602240457 1268.59506537 760.342015858 1294.89132321 733.387622431 1315.20829721 c 0
 706.433229005 1335.5252712 674.934840487 1349.60980113 642 1357 c 0
 620.369862112 1361.85355381 598.167991557 1364 576 1364 c 0
  Spiro
    576 1364 o
    510 1357 o
    308 1044 o
    515 711 o
    576 704 o
    637 711 o
    844 1044 o
    642 1357 o
    0 0 z
  EndSpiro
576 704 m 0
 555.534169163 704 535.052248558 702.093599833 515 698 c 0
 479.141589027 690.679624694 444.750468341 675.982001164 415.037174246 654.615352242 c 0
 385.323880151 633.24870332 360.415616898 605.452645496 341.348523659 574.21389572 c 0
 303.506765848 512.215499398 287.997224603 438.338110538 287.997224603 365.684113414 c 0
 287.997224603 294.745178295 302.950856635 223.255712697 341.030358272 163.961470961 c 0
 359.918336491 134.550677798 384.527584615 108.729621818 413.511689349 89.1931905073 c 0
 442.495794084 69.6567591965 475.680327372 56.6265033278 510 50 c 0
 531.722699274 45.8057426541 553.876088537 44 576 44 c 0
 598.123911463 44 620.277300726 45.8057426541 642 50 c 0
 676.319672628 56.6265033278 709.504205916 69.6567591965 738.488310651 89.1931905074 c 0
 767.472415385 108.729621818 792.081663509 134.550677798 810.969641728 163.961470961 c 0
 849.047930441 223.253824032 864.002775397 294.747345649 864.002775397 365.684113414 c 0
 864.002775397 438.338110538 848.493234152 512.215499398 810.651476341 574.21389572 c 0
 791.584383103 605.452645496 766.676119849 633.24870332 736.962825754 654.615352242 c 0
 707.249531659 675.982001165 672.858410973 690.679624694 637 698 c 0
 616.947751442 702.093599833 596.465830837 704 576 704 c 0
  Spiro
    576 704 o
    515 698 o
    288 364 o
    510 50 o
    576 44 o
    642 50 o
    864 364 o
    637 698 o
    0 0 z
  EndSpiro
EndSplineSet
EndChar
StartChar: nine
Encoding: 57 57 79
Width: 1024
VWidth: 0
Flags: W
HStem: -16 120<292.598 665.475> 496 120<433.201 677.37> 1304 120<433.752 686.183>
VStem: 224 128<709.477 1209.82> 768 128<219.763 621 712.073 1207.93>
LayerCount: 5
Back
SplineSet
560 1304 m 4
 373 1304 352 1147 352 960 c 4
 352 773 373 616 560 616 c 4
 747 616 768 773 768 960 c 4
 768 1147 747 1304 560 1304 c 4
288 123.587890625 m 5
 387.545858777 109.902598453 471.060461125 104 534 104 c 4
 635 104 699.677988422 152.140411087 736 235 c 4
 768 308 768 410 768 512 c 6
 768 621 l 5
 758 621 l 5
 703 536 638 496 540 496 c 4
 392 496 294.598790292 578.853326698 252 696 c 4
 224 773 224 858 224 960 c 4
 224 1042 224.022588702 1136.99169484 256 1224 c 4
 299 1341 402 1424 560 1424 c 4
 718 1424 820.301185034 1341.11282411 864 1224 c 4
 889 1157 896 1087 896 993 c 6
 896 512 l 6
 896 391 894.007451204 285.996955074 856 193 c 4
 809 78 703 -16 534 -16 c 4
 465.466798266 -16 385.343293791 -11.2779041835 288 1.001953125 c 5
 288 123.587890625 l 5
EndSplineSet
Fore
SplineSet
560 1304 m 0
 373 1304 352 1147 352 960 c 0
 352 773 373 616 560 616 c 0
 747 616 768 773 768 960 c 0
 768 1147 747 1304 560 1304 c 0
288 123.587890625 m 1
 383.499279152 109.902598453 466.618978965 104 524 104 c 0
 640 104 699.382191398 151.465624126 736 235 c 0
 768 308 768 410 768 512 c 2
 768 621 l 1
 758 621 l 1
 703 536 638 496 540 496 c 0
 392 496 294.598790292 578.853326698 252 696 c 0
 224 773 224 858 224 960 c 0
 224 1042 224.022588702 1136.99169484 256 1224 c 0
 299 1341 402 1424 560 1424 c 0
 718 1424 820.301185034 1341.11282411 864 1224 c 0
 889 1157 896 1087 896 993 c 2
 896 512 l 2
 896 391 894.007451204 285.996955074 856 193 c 0
 809.206118009 78.5043312992 701.751552795 -16 544 -16 c 0
 462.680895756 -16 389.300338254 -11.2779041835 288 1.001953125 c 1
 288 123.587890625 l 1
EndSplineSet
Validated: 1
Layer: 2
Layer: 3
Layer: 4
EndChar
StartChar: colon
Encoding: 58 58 80
Width: 1024
VWidth: 0
Flags: W
HStem: -16 288<410.535 613.465> 752 288<410.535 613.465>
VStem: 368 288<26.5349 229.465 794.535 997.465>
LayerCount: 5
Back
Fore
SplineSet
512 1040 m 4
 597 1040 656 981 656 896 c 4
 656 811 597 752 512 752 c 4
 427 752 368 811 368 896 c 4
 368 981 427 1040 512 1040 c 4
512 272 m 0
 597 272 656 213 656 128 c 0
 656 43 597 -16 512 -16 c 0
 427 -16 368 43 368 128 c 0
 368 213 427 272 512 272 c 0
EndSplineSet
Layer: 2
Layer: 3
Layer: 4
EndChar
StartChar: colon
Encoding: 58 58 80
GlifName: colon
Width: 1024
VWidth: 0
Flags: W
HStem: 0 240<384 640> 784 240<384 640>
VStem: 384 256<0 240 784 1024>
LayerCount: 5
Back
Fore
SplineSet
384 240 m 1
 640 240 l 1
 640 0 l 1
 384 0 l 1
 384 240 l 1
384 1024 m 1
 640 1024 l 1
 640 784 l 1
 384 784 l 1
 384 1024 l 1
EndSplineSet
Layer: 2
Layer: 3
Layer: 4
EndChar
StartChar: semicolon
Encoding: 59 59 81
Width: 1024
VWidth: 0
Flags: W
HStem: 752 288<410.603 613.397>
VStem: 368 288<794.548 997.452> 384 256<111.031 365.856> 384 106<-256 -214.662>
LayerCount: 5
Back
Fore
SplineSet
512 1040 m 4xc0
 596.825 1040 656 980.965625 656 896 c 4
 656 811.034375 596.825 752 512 752 c 4
 427.175 752 368 811.034375 368 896 c 4
 368 980.965625 427.175 1040 512 1040 c 4xc0
384 -256 m 1x90
 384 254 l 2
 384 272 384 295 391 317 c 0
 407 366 451 400 512 400 c 0
 589 400 640 346 640 272 c 0xa0
 640 240 631 209 622 179 c 2
 490 -256 l 1
 384 -256 l 1x90
EndSplineSet
Layer: 2
Layer: 3
Layer: 4
EndChar
StartChar: less
Encoding: 60 60 82
GlifName: less
Width: 1024
VWidth: 0
Flags: W
LayerCount: 5
Back
SplineSet
931.853419358 200.5819367 m 1
 860.146580642 99.4180632999 l 1
 259.146580642 525.4180633 l 1
 259.146580642 626.5819367 l 1
 860.146580642 1052.5819367 l 1
 931.853419358 951.4180633 l 1
 402.214320665 576 l 1
 931.853419358 200.5819367 l 1
EndSplineSet
Fore
SplineSet
932 200 m 5
 861 99 l 5
 256 528 l 5
 256 624 l 5
 861 1053 l 5
 932 952 l 5
 401 581 l 5
 401 571 l 5
 932 200 l 5
EndSplineSet
Layer: 2
SplineSet
896 150 m 5
 295 576 l 5
 896 1002 l 1029
EndSplineSet
Layer: 3
Layer: 4
Substitution2: "Single Substitution lookup 47 subtable" less2
Substitution2: "Single Substitution lookup 46 subtable" less1
Substitution2: "Single Substitution lookup 27 subtable" larsenwork3
Substitution2: "Single Substitution lookup 20 subtable" larsenwork
Substitution2: "Single Substitution lookup 16 subtable" larsenwork1
Substitution2: "Single Substitution lookup 15 subtable" larsenwork1
Substitution2: "Single Substitution lookup 9 subtable" larsenwork
Substitution2: "Single Substitution lookup 2 subtable" larsenwork5
EndChar
StartChar: equal
Encoding: 61 61 83
Width: 1024
VWidth: 0
Flags: W
HStem: 388 120<128 1024> 900 120<128 1024>
LayerCount: 5
Back
Fore
SplineSet
128 508 m 1
 1024 508 l 1
 1024 388 l 1
 128 388 l 1
 128 508 l 1
128 1020 m 1
 1024 1020 l 1
 1024 900 l 1
 128 900 l 1
 128 1020 l 1
EndSplineSet
Layer: 2
Layer: 3
Layer: 4
EndChar
StartChar: equal
Encoding: 61 61 83
GlifName: equal
Width: 1024
VWidth: 0
Flags: W
HStem: 260 120<256 896> 772 120<256 896>
LayerCount: 5
Back
Fore
SplineSet
256 380 m 1
 896 380 l 5
 896 260 l 5
 256 260 l 1
 256 380 l 1
256 892 m 1
 896 892 l 5
 896 772 l 5
 256 772 l 1
 256 892 l 1
EndSplineSet
Validated: 1
Layer: 2
Layer: 3
Layer: 4
Substitution2: "Single Substitution lookup 64 subtable" larsenwork2
Substitution2: "Single Substitution lookup 63 subtable" greaterequalliga
Substitution2: "Single Substitution lookup 59 subtable" larsenwork8
Substitution2: "Single Substitution lookup 58 subtable" greatergreaterequal
Substitution2: "Single Substitution lookup 55 subtable" lessequalliga
Substitution2: "Single Substitution lookup 53 subtable" equal.after
Substitution2: "Single Substitution lookup 52 subtable" equalcolonequal
Substitution2: "Single Substitution lookup 50 subtable" larsenwork7
Substitution2: "Single Substitution lookup 49 subtable" leftarrowequallong
Substitution2: "Single Substitution lookup 48 subtable" larsenwork6
Substitution2: "Single Substitution lookup 45 subtable" larsenwork5
Substitution2: "Single Substitution lookup 44 subtable" larsenwork5
Substitution2: "Single Substitution lookup 42 subtable" equal.wide
Substitution2: "Single Substitution lookup 40 subtable" notequalliga
Substitution2: "Single Substitution lookup 38 subtable" notequaltypeliga
Substitution2: "Single Substitution lookup 37 subtable" larsenwork1
EndChar
StartChar: greater
Encoding: 62 62 84
GlifName: greater
Width: 1024
VWidth: 0
Flags: W
LayerCount: 5
Back
Fore
SplineSet
763 571 m 1
 763 581 l 1
 252 1057 l 1
 338 1147 l 1
 896 621 l 1
 896 531 l 1
 338 5 l 1
 252 95 l 1
 763 571 l 1
EndSplineSet
Validated: 1
Layer: 2
Layer: 3
Layer: 4
Substitution2: "Single Substitution lookup 94 subtable" greater2
Substitution2: "Single Substitution lookup 93 subtable" greater1
Substitution2: "Single Substitution lookup 68 subtable" ligaequalarrow
Substitution2: "Single Substitution lookup 65 subtable" larsenwork4
Substitution2: "Single Substitution lookup 60 subtable" larsenwork8
Substitution2: "Single Substitution lookup 59 subtable" larsenwork8
Substitution2: "Single Substitution lookup 49 subtable" rightarrowequallong
Substitution2: "Single Substitution lookup 46 subtable" greater2
Substitution2: "Single Substitution lookup 38 subtable" arrowright.liga
Substitution2: "Single Substitution lookup 34 subtable" ligaarrowrighttwoheads
Substitution2: "Single Substitution lookup 33 subtable" larsenwork1
Substitution2: "Single Substitution lookup 28 subtable" ligaarrowrightlong
EndChar
StartChar: question
Encoding: 63 63 85
GlifName: question
Width: 1024
VWidth: 0
Flags: W
HStem: -16 288<474.535 677.465> 1304 120<259.744 698.353>
VStem: 432 288<26.5349 229.465> 512 128<512 639.883> 780 128<948.246 1225.02>
LayerCount: 5
Back
SplineSet
576 272 m 4xe8
 661 272 720 213 720 128 c 4
 720 43 661 -16 576 -16 c 4
 491 -16 432 43 432 128 c 4
 432 213 491 272 576 272 c 4xe8
512 512 m 5xd8
 512 796 780 846 780 1092 c 4
 780 1228 702 1304 544 1304 c 4
 455 1304 340 1286.59649123 256 1273 c 5
 256 1393 l 5
 343 1408.20754717 451 1424 544 1424 c 4
 771 1424 908 1298 908 1092 c 4
 908 806 641 727 640 512 c 5
 512 512 l 5xd8
EndSplineSet
Fore
SplineSet
576 272 m 4xe8
 661 272 720 213 720 128 c 4
 720 43 661 -16 576 -16 c 4
 491 -16 432 43 432 128 c 4
 432 213 491 272 576 272 c 4xe8
512 512 m 5xd8
 512 796 780 846 780 1092 c 4
 780 1228 705 1304 524 1304 c 4
 441 1304 334 1287 256 1273 c 5
 256 1393 l 5
 337 1408 437 1424 524 1424 c 4
 773 1424 908 1298 908 1092 c 4
 908 806 641 727 640 512 c 5
 512 512 l 5xd8
EndSplineSet
Validated: 1
Layer: 2
SplineSet
576 1364 m 4
 733.868164062 1364 844 1254.12988281 844 1096 c 4
 844 937.870076497 733.868164062 828 576 828 c 4
 418.131795247 828 308 937.870076497 308 1096 c 4
 308 1254.12988281 418.131795247 1364 576 1364 c 4
EndSplineSet
Layer: 3
SplineSet
192 1293 m 0
 249.948771171 1307.21259288 307.841791278 1321.67031002 366 1335 c 0
 431.153976786 1349.93309939 497.156738465 1363.87140822 564 1364 c 0
 603.196972429 1364.07540638 642.674329877 1358.99210132 679.568553612 1345.75485884 c 0
 716.462777347 1332.51761635 750.480298203 1310.86370992 777 1282 c 0
 800.264966674 1256.67870286 817.613182337 1226.12393598 828.551543928 1193.52364443 c 0
 839.48990552 1160.92335288 844.231017101 1126.38565681 844 1092 c 0
 843.499994448 1017.57685452 819.015914233 944.10273238 778 882 c 0
 738.497505842 822.188756756 684.984688893 772.805502629 644 714 c 0
 602.72826845 654.782643867 576.387874652 584.179641491 576 512 c 1024
  Spiro
    192 1293 {
    366 1335 o
    564 1364 o
    777 1282 o
    844 1092 o
    778 882 o
    644 714 o
    576 512 v
    0 0 z
  EndSpiro
EndSplineSet
Layer: 4
EndChar
StartChar: at
Encoding: 64 64 86
GlifName: at
Width: 1024
VWidth: 0
Flags: WO
HStem: 0 120<394.447 941.779> 21 120<362.826 624.183 631.997 947> 368 120<573.969 792.16> 896 110<582.571 896> 1288 120<394.538 814.846>
VStem: 128 128<261.191 1146.77> 384 128<550.164 823.971> 896 128<384 507 595.283 896 1006 1206.5>
LayerCount: 5
Back
Fore
SplineSet
896 896 m 5x3f
 732 896 l 6
 677 896 619.083272506 895.92123209 568 842 c 4
 532 804 512 746 512 687 c 4
 512 578 572.666666667 488 680 488 c 4
 890.508474576 488 896 725 896 855 c 6
 896 896 l 5x3f
1024 1016 m 6
 1024 384 l 5
 896 384 l 5
 896 507 l 5
 886 507 l 5
 827.12 419 756.28 368 656 368 c 4
 504.676056338 368 384 500 384 685 c 4
 384 767 408.649033277 854.352932907 472 917 c 4
 562 1006 672 1006 734 1006 c 6
 896 1006 l 5
 896 1054 895.76488306 1099.94046776 886 1139 c 4
 868 1211 820.920594459 1258.6974897 748 1278 c 4
 714 1287 673 1288 627 1288 c 4
 568 1288 512.951268933 1287.18927174 466 1275 c 4
 362 1248 295.779120591 1180.05655001 269 1075 c 4
 256 1024 256 972 256 913 c 6
 256 495 l 6
 256 436 256.349673261 384.087857984 269 333 c 4
 295 228 361.892057635 159.580751242 466 133 c 4
 513 121 568 120 627 120 c 4xbf
 726.2 120 835 128 947 141 c 5
 947 21 l 5x7f
 836.066666667 8 733.666666667 0 627 0 c 4xbf
 567 0 501.056010408 0.225631237525 433 17 c 4
 291 52 181.01412028 152.003371327 144 307 c 4
 128 374 128 436 128 495 c 6
 128 913 l 6
 128 972 128.006103738 1033.99854268 144 1101 c 4
 181 1256 291.116866649 1355.52921666 433 1391 c 4
 501 1408 567 1408 627 1408 c 4
 674 1408 725.995950206 1407.98408046 781 1394 c 4
 899 1364 981.529176941 1281.88329224 1011 1164 c 4
 1024 1112 1024 1061 1024 1016 c 6
EndSplineSet
Layer: 2
SplineSet
896 402 m 6
 896 507 l 5
 886 507 l 5
 830 419 763 368 668 368 c 4
 615 368 507 394 443 490 c 4
 409 541 384 608 384 685 c 4
 384 767 409 854 472 917 c 4
 562 1007 672 1006 734 1006 c 6
 896 1006 l 5
 896 1054 896 1100 886 1139 c 4
 867.566599529 1210.89026184 821 1259 748 1278 c 4
 713.962976325 1286.85895137 673 1288 627 1288 c 4
 568 1288 513 1287 466 1275 c 4
 361.892057635 1248.41924876 296 1180 269 1075 c 4
 255.892773465 1024.02745236 256 972 256 913 c 6
 256 495 l 6
 256 436 256 384 269 333 c 4
 295.779120591 227.943449988 362 160 466 133 c 4
 512.951268933 120.810728258 568 120 627 120 c 4
 673 120 714 121 748 130 c 4
 820.920594459 149.302510298 868 197 886 269 c 4
 895.76488306 308.05953224 896 354 896 402 c 6
1024 391 m 6
 1024 346.304054054 1023.79231324 295.699782259 1011 244 c 4
 982 126 898.99131199 44.0341521428 781 14 c 4
 726 -3.5527136788e-15 674 0 627 0 c 4
 567 0 501.056010408 0.225631237525 433 17 c 4
 291 52 181.01412028 152.003371327 144 307 c 4
 128 374 128 436 128 495 c 6
 128 913 l 6
 128 972 128.006103738 1033.99854268 144 1101 c 4
 181 1256 291.116866649 1355.52921666 433 1391 c 4
 501 1408 567 1408 627 1408 c 4
 674 1408 725.995950206 1407.98408046 781 1394 c 4
 899 1364 981.529176941 1281.88329224 1011 1164 c 4
 1024 1112 1024 1061 1024 1016 c 6
 1024 391 l 6
896 805 m 6
 896 896 l 5
 732 896 l 6
 677 896 619.083272506 895.92123209 568 842 c 4
 532 804 512 746 512 687 c 4
 512 578 585 488 692 488 c 4
 782 488 843.967374495 548.013794261 874 619 c 4
 896 671 896 733 896 805 c 6
EndSplineSet
Layer: 3
Layer: 4
EndChar
StartChar: A
Encoding: 65 65 29
Width: 1024
VWidth: 0
Flags: W
HStem: 0 21G<103 243.5 908.5 1049> 388 120<314 838> 1279 129<554.967 597.033>
VStem: 103 135<0 276.673> 914 135<0 276.673>
LayerCount: 5
Back
Fore
SplineSet
103 0 m 5
 156 496 267 971 511 1408 c 5
 641 1408 l 5
 885 971 996 496 1049 0 c 5
 914 0 l 5
 903 136 883 265 859 388 c 5
 293 388 l 5
 274 265 249 136 238 0 c 5
 103 0 l 5
838 508 m 5
 770 796 697 1054 581 1279 c 5
 571 1279 l 5
 455 1054 382 796 314 508 c 5
 838 508 l 5
EndSplineSet
Layer: 2
Layer: 3
Layer: 4
EndChar
StartChar: B
Encoding: 66 66 30
GlifName: B_
Width: 1024
VWidth: 0
Flags: W
HStem: 0 120<256 764.014> 648 120<256 675.156> 1288 120<256 675.156>
VStem: 128 128<120 648 768 1288> 784 128<879.383 1176.8> 872 128<228.115 539.391>
LayerCount: 5
Back
SplineSet
449 768 m 6xf8
 525 768 565 769 601 778 c 4
 709 804 784 896 784 1028 c 4
 784 1160 709 1254 601 1278 c 4
 565 1286 525 1288 449 1288 c 6
 256 1288 l 5
 256 768 l 5
 449 768 l 6xf8
912 1028 m 4
 912 896 849 798 763 748 c 5
 925 704 1040 566 1040 384 c 4xf4
 1040 193 928 54 776 16 c 4
 712 0 648 0 563 0 c 6
 128 0 l 5
 128 1408 l 5
 449 1408 l 6
 526 1408 578 1408 633 1395 c 4
 792 1357 912 1222 912 1028 c 4
256 648 m 5
 256 120 l 5
 563 120 l 6
 644 120 699 120 744 132 c 4
 843 158 912 254 912 384 c 4
 912 514 844 612 744 636 c 4
 699 647 644 648 563 648 c 6
 256 648 l 5
EndSplineSet
Fore
SplineSet
449 768 m 2xf8
 525 768 565 769 601 778 c 0
 709 804 784 896 784 1028 c 0
 784 1160 709 1254 601 1278 c 0
 565 1286 525 1288 449 1288 c 2
 256 1288 l 1
 256 768 l 1
 449 768 l 2xf8
746 726 m 1
 895 685 1000 555 1000 384 c 0xf4
 1000 193 888 54 736 16 c 0
 672 0 608 0 523 0 c 2
 128 0 l 1
 128 1408 l 1
 449 1408 l 2
 526 1408 578 1408 633 1395 c 0
 792 1357 912 1222 912 1028 c 0
 912 890 845 789 746 736 c 1
 746 726 l 1
256 648 m 1
 256 120 l 1
 523 120 l 2
 604 120 659 120 704 132 c 0
 803 158 872 254 872 384 c 0
 872 514 804 612 704 636 c 0
 659 647 604 648 523 648 c 2
 256 648 l 1
EndSplineSet
Validated: 1
Layer: 2
SplineSet
636 640 m 0
 789.15625 640 896 535.05 896 384 c 0
 896 232.95 789.15625 128 636 128 c 0
 482.84375 128 376 232.95 376 384 c 4
 376 535.05 482.84375 640 636 640 c 0
636 1476 m 0
 826.85625 1476 960 1344.8125 960 1156 c 0
 960 967.1875 826.85625 836 636 836 c 0
 445.14375 836 312 967.1875 312 1156 c 0
 312 1344.8125 445.14375 1476 636 1476 c 0
EndSplineSet
Layer: 3
SplineSet
601 640 m 2
 638.062501111 640 675.469476633 639.327092325 711.51549472 630.706560515 c 0
 747.561512807 622.086028706 781.87092644 605.604172083 810.129770314 581.623623059 c 0
 838.388614186 557.643074034 860.400761005 526.574299373 874.738600141 492.397474514 c 0
 889.076439276 458.220649654 896.000000001 421.062501111 896 384 c 0
 896 346.937498889 889.076439274 309.779350346 874.738600137 275.602525486 c 0
 860.400761 241.425700626 838.38861418 210.356925966 810.129770306 186.376376942 c 0
 781.870926433 162.395827918 747.561512802 145.913971295 711.515494716 137.293439486 c 0
 675.46947663 128.672907676 638.06250111 128 601 128 c 2
 202 128 l 1
 202 640 l 1
 601 640 l 2
  Spiro
    601 640 ]
    896 384 o
    601 128 [
    202 128 v
    202 640 v
    0 0 z
  EndSpiro
591 1476 m 2
 637.344591086 1476 684.119104348 1475.16033304 729.195309328 1464.39200598 c 0
 774.271514308 1453.62367893 817.181439155 1433.03380997 852.533391598 1403.06615104 c 0
 887.88534404 1373.09849212 915.433566213 1334.26472568 933.381291036 1291.53651138 c 0
 951.329015858 1248.80829709 960.000000001 1202.34459109 960 1156 c 0
 960 1109.65540891 951.329015855 1063.19170291 933.381291031 1020.46348862 c 0
 915.433566207 977.735274323 887.885344032 938.901507883 852.533391589 908.933848959 c 0
 817.181439148 878.966190035 774.271514302 858.376321073 729.195309324 847.607994019 c 0
 684.119104346 836.839666965 637.344591085 836 591 836 c 2
 192 836 l 1
 192 1476 l 1
 591 1476 l 2
  Spiro
    591 1476 ]
    960 1156 o
    591 836 [
    192 836 v
    192 1476 v
    0 0 z
  EndSpiro
EndSplineSet
Layer: 4
Position2: "Single Positioning lookup 23 subtable" dx=128 dy=0 dh=0 dv=0
Position2: "Single Positioning lookup 21 subtable" dx=-128 dy=0 dh=0 dv=0
Position2: "Single Positioning lookup 20 subtable" dx=0 dy=0 dh=0 dv=0
Position2: "Single Positioning lookup 15 subtable" dx=0 dy=0 dh=0 dv=0
EndChar
StartChar: D
Encoding: 68 68 32
GlifName: D_
Width: 1024
VWidth: 0
Flags: W
HStem: 0 120<256 687.274> 1288 120<256 682.068>
VStem: 128 128<120 1288> 912 128<370.045 1023.89>
LayerCount: 5
Back
Fore
SplineSet
504 120 m 2
 665 120 764 189 829 278 c 1
 900 384 912 525 912 704 c 0
 912 800 908 893 886 982 c 0
 844 1155 725 1288 504 1288 c 0
 395 1288 353 1288 256 1288 c 1
 256 120 l 1
 504 120 l 2
504 1408 m 2
 608 1408 716 1378 807 1317 c 0
 910 1247 977 1137 1011 1008 c 0
 1038 905 1040 803 1040 704 c 0
 1040 605 1037 503 1011 400 c 0
 978 271 908 163 807 91 c 0
 718 27 609 0 504 0 c 0
 384 0 275 0 128 0 c 1
 128 1408 l 1
 504 1408 l 2
EndSplineSet
Validated: 1
Layer: 2
Layer: 3
Layer: 4
EndChar
StartChar: E
Encoding: 69 69 33
GlifName: E_
Width: 1024
VWidth: 0
Flags: W
HStem: 0 120<384 1024> 648 120<384 896> 1288 120<384 1024>
VStem: 256 128<120 648 768 1288>
AnchorPoint: "top" 576 1408 basechar 0
LayerCount: 5
Back
Fore
SplineSet
256 1408 m 1
 1024 1408 l 1
 1024 1288 l 1
 384 1288 l 1
 384 768 l 1
 896 768 l 1
 896 648 l 1
 384 648 l 1
 384 120 l 1
 1024 120 l 1
 1024 0 l 1
 256 0 l 1
 256 1408 l 1
EndSplineSet
Validated: 1
Layer: 2
Layer: 3
Layer: 4
Position2: "Single Positioning lookup 23 subtable" dx=128 dy=0 dh=0 dv=0
Position2: "Single Positioning lookup 21 subtable" dx=-128 dy=0 dh=0 dv=0
Position2: "Single Positioning lookup 20 subtable" dx=0 dy=0 dh=0 dv=0
Position2: "Single Positioning lookup 15 subtable" dx=0 dy=0 dh=0 dv=0
EndChar
StartChar: G
Encoding: 71 71 35
Width: 1024
VWidth: 0
Flags: W
HStem: -16 120<456.029 892.627> 648 120<640 896> 1304 120<456.17 914.27>
VStem: 112 128<357.031 1050.97> 896 128<129.664 648>
LayerCount: 5
Back
Fore
SplineSet
643 1424 m 0
 766 1424 885 1401 994 1367 c 1
 994 1243 l 1
 881 1278 755 1304 643 1304 c 0
 430 1304 312 1188 268 1016 c 0
 243 919 240 813 240 704 c 0
 240 595 243 489 268 392 c 0
 312 220 430 104 643 104 c 0
 724 104 811 117.111111111 896 138 c 5
 896 648 l 1
 640 648 l 1
 640 768 l 1
 1024 768 l 1
 1024 49 l 1
 907 13 777 -16 643 -16 c 0
 366 -16 199 142 143 364 c 0
 114 478 112 594 112 704 c 0
 112 814 114 930 143 1044 c 0
 201 1266 366 1424 643 1424 c 0
EndSplineSet
Layer: 2
Layer: 3
Layer: 4
EndChar
StartChar: H
Encoding: 72 72 36
GlifName: H_
Width: 1024
VWidth: 0
Flags: W
HStem: 0 21G<128 256 896 1024> 640 120<256 896> 1388 20G<128 256 896 1024>
VStem: 128 128<0 640 760 1408> 896 128<0 640 760 1408>
AnchorPoint: "top" 576 1408 basechar 0
LayerCount: 5
Back
Fore
SplineSet
128 1408 m 1
 256 1408 l 1
 256 760 l 1
 896 760 l 1
 896 1408 l 1
 1024 1408 l 1
 1024 0 l 1
 896 0 l 1
 896 640 l 1
 256 640 l 1
 256 0 l 1
 128 0 l 1
 128 1408 l 1
EndSplineSet
Layer: 2
Layer: 3
Layer: 4
EndChar
StartChar: I
Encoding: 73 73 37
GlifName: I_
Width: 1024
VWidth: 0
Flags: W
HStem: 0 120<256 512 640 896> 1288 120<256 512 640 896>
VStem: 512 128<120 1288>
AnchorPoint: "bottom" 576 0 basechar 0
AnchorPoint: "top" 576 1408 basechar 0
LayerCount: 5
Back
Fore
SplineSet
896 1408 m 5
 896 1288 l 5
 640 1288 l 5
 640 120 l 5
 896 120 l 5
 896 0 l 5
 256 0 l 5
 256 120 l 5
 512 120 l 5
 512 1288 l 5
 256 1288 l 5
 256 1408 l 5
 896 1408 l 5
EndSplineSet
Layer: 2
Layer: 3
Layer: 4
EndChar
StartChar: J
Encoding: 74 74 38
Width: 1024
VWidth: 0
Flags: W
HStem: -16 120<259.67 666.39> 1288 120<256 768>
VStem: 768 128<220.016 1288>
LayerCount: 5
Back
SplineSet
896 512 m 6
 896 391 894 286 856 193 c 4
 809 78 703 -16 534 -16 c 4
 441 -16 341 -5 224 15 c 5
 224 136 l 5
 342 116 444 104 534 104 c 4
 635 104 700 152 736 235 c 4
 768 308 768 410 768 512 c 6
 768 1288 l 5
 256 1288 l 5
 256 1408 l 5
 469 1408 683 1408 896 1408 c 5
 896 512 l 6
EndSplineSet
Fore
SplineSet
896 512 m 6
 896 395 895 286 856 193 c 4
 808 79 706 -16 544 -16 c 4
 428 -16 335 -2 256 8 c 5
 256 129 l 5
 333 118 433 104 537 104 c 4
 636 104 700 153 736 235 c 4
 768 308 768 410 768 512 c 6
 768 1288 l 5
 256 1288 l 5
 256 1408 l 5
 896 1408 l 5
 896 512 l 6
EndSplineSet
Validated: 1
Layer: 2
Layer: 3
Layer: 4
EndChar
StartChar: L
Encoding: 76 76 40
GlifName: L_
Width: 1024
VWidth: 0
Flags: W
HStem: 0 120<384 1024> 1388 20G<256 384>
VStem: 256 128<120 1408>
LayerCount: 5
Back
Fore
SplineSet
256 0 m 5
 256 1408 l 5
 384 1408 l 5
 384 120 l 5
 1024 120 l 5
 1024 0 l 5
 256 0 l 5
EndSplineSet
Validated: 1
Layer: 2
Layer: 3
Layer: 4
EndChar
StartChar: N
Encoding: 78 78 41
GlifName: N_
Width: 1024
VWidth: 0
Flags: W
HStem: 0 21G<128 256 885.119 1024> 1388 20G<128 265.898 896 1024>
VStem: 128 128<0 1158> 896 128<250 1408>
AnchorPoint: "bottom" 576 0 basechar 0
AnchorPoint: "top" 576 1408 basechar 0
LayerCount: 5
Back
Fore
SplineSet
256 0 m 1
 128 0 l 1
 128 1408 l 1
 255 1408 l 1
 886 250 l 1
 896 250 l 1
 896 1408 l 1
 1024 1408 l 1
 1024 0 l 1
 896 0 l 1
 266 1158 l 1
 256 1158 l 1
 256 0 l 1
EndSplineSet
Layer: 2
SplineSet
192 0 m 5
 192 1521 l 5
 960 15 l 5
 960 1536 l 1029
EndSplineSet
Layer: 3
Layer: 4
EndChar
StartChar: O
Encoding: 79 79 42
GlifName: O_
Width: 1024
VWidth: 0
Flags: W
HStem: -16 120<420.015 731.985> 1304 120<420.015 731.985>
VStem: 112 128<327.465 1080.53> 912 128<327.465 1080.53>
AnchorPoint: "top" 576 1408 basechar 0
LayerCount: 5
Back
Fore
SplineSet
240 704 m 0
 240 588 243 478 265 382 c 0
 301 235 396 104 576 104 c 0
 756 104 851 235 887 382 c 0
 909 478 912 588 912 704 c 0
 912 820 909 930 887 1026 c 0
 851 1173 756 1304 576 1304 c 0
 396 1304 301 1173 265 1026 c 0
 243 930 240 820 240 704 c 0
112 704 m 0
 112 831 114 950 140 1053 c 0
 189 1253 331 1424 576 1424 c 0
 821 1424 963 1253 1012 1053 c 0
 1038 950 1040 831 1040 704 c 0
 1040 577 1038 458 1012 355 c 0
 963 155 821 -16 576 -16 c 0
 331 -16 189 155 140 355 c 0
 114 458 112 577 112 704 c 0
EndSplineSet
Validated: 1
Layer: 2
SplineSet
576 1492 m 0
 811.625 1492 976 1328.015625 976 1092 c 0
 976 865.425 811.625 708 576 708 c 0
 340.375 708 176 865.425 176 1092 c 0
 176 1328.015625 340.375 1492 576 1492 c 0
  Spiro
    576 1492 o
    784.248 1440.84 o
    924.757 1300.42 o
    976 1092 o
    924.757 891.915 o
    784.248 757.11 o
    576 708 o
    367.752 757.11 o
    227.243 891.915 o
    176 1092 o
    227.243 1300.42 o
    367.752 1440.84 o
    0 0 z
  EndSpiro
576 828 m 4
 811.625 828 976 670.575 976 444 c 4
 976 207.984375 811.625 44 576 44 c 4
 340.375 44 176 207.984375 176 444 c 4
 176 670.575 340.375 828 576 828 c 4
  Spiro
    576 828 o
    784.248 778.89 o
    924.757 644.085 o
    976 444 o
    924.757 235.578 o
    784.248 95.1567 o
    576 44 o
    367.752 95.1567 o
    227.243 235.578 o
    176 444 o
    227.243 644.085 o
    367.752 778.89 o
    0 0 z
  EndSpiro
EndSplineSet
Layer: 3
SplineSet
576 1364 m 0
 643.232974455 1364 710.624752961 1346.04787984 768 1311 c 0
 815.850534785 1281.77032553 856.230827797 1240.84198324 886.44733169 1193.60840999 c 0
 916.663835583 1146.37483675 936.888479806 1093.21313869 949.871199277 1038.6650265 c 0
 975.836638219 929.568802112 976 816.143614152 976 704 c 0
 976 591.856385848 975.836638219 478.431197888 949.871199277 369.3349735 c 0
 936.888479806 314.786861307 916.663835583 261.625163249 886.44733169 214.391590007 c 0
 856.230827797 167.158016764 815.850534786 126.229674468 768 97 c 0
 710.624752961 61.9521201594 643.232974455 44 576 44 c 0
 508.767025545 44 441.375247039 61.9521201594 384 97 c 0
 336.149465215 126.229674468 295.769172203 167.158016764 265.55266831 214.391590006 c 0
 235.336164417 261.625163249 215.111520194 314.786861307 202.128800723 369.3349735 c 0
 176.163361781 478.431197888 176 591.856385848 176 704 c 0
 176 816.143614152 176.163361781 929.568802112 202.128800723 1038.6650265 c 0
 215.111520194 1093.21313869 235.336164417 1146.37483675 265.55266831 1193.60840999 c 0
 295.769172203 1240.84198324 336.149465214 1281.77032553 384 1311 c 0
 441.375247039 1346.04787984 508.767025545 1364 576 1364 c 0
  Spiro
    576 1364 o
    768 1311 o
    976 704 o
    768 97 o
    576 44 o
    384 97 o
    176 704 o
    384 1311 o
    0 0 z
  EndSpiro
EndSplineSet
Layer: 4
Position2: "Single Positioning lookup 23 subtable" dx=128 dy=0 dh=0 dv=0
Position2: "Single Positioning lookup 21 subtable" dx=-128 dy=0 dh=0 dv=0
Position2: "Single Positioning lookup 20 subtable" dx=0 dy=0 dh=0 dv=0
Position2: "Single Positioning lookup 15 subtable" dx=0 dy=0 dh=0 dv=0
EndChar
StartChar: P
Encoding: 80 80 43
Width: 1024
VWidth: 0
Flags: W
HStem: 0 21G<256 384> 640 120<384 797.513> 1288 120<384 797.513>
VStem: 256 128<0 640 760 1288> 912 128<875.382 1172.62>
LayerCount: 5
Back
Fore
SplineSet
577 760 m 2
 653 760 693 762 729 770 c 0
 837 794 912 890 912 1024 c 0
 912 1158 837 1254 729 1278 c 0
 693 1286 653 1288 577 1288 c 2
 384 1288 l 1
 384 760 l 1
 577 760 l 2
384 0 m 1
 256 0 l 1
 256 1408 l 1
 577 1408 l 2
 654 1408 706 1408 761 1395 c 0
 920 1357 1040 1220 1040 1024 c 0
 1040 828 920 691 761 653 c 0
 706 640 654 640 577 640 c 2
 384 640 l 1
 384 0 l 1
EndSplineSet
Validated: 1
Layer: 2
SplineSet
572 1476 m 4
 800.55625 1476 960 1316.93515625 960 1088 c 4
 960 859.06484375 800.55625 700 572 700 c 4
 343.44375 700 184 859.06484375 184 1088 c 4
 184 1316.93515625 343.44375 1476 572 1476 c 4
  Spiro
    572 1476 o
    774.001 1426.38 o
    910.294 1290.17 o
    960 1088 o
    910.294 885.831 o
    774.001 749.622 o
    572 700 o
    369.999 749.622 o
    233.706 885.831 o
    184 1088 o
    233.706 1290.17 o
    369.999 1426.38 o
    0 0 z
  EndSpiro
EndSplineSet
Layer: 3
SplineSet
517 1476 m 6
 572.903034518 1476 629.339292821 1474.95593565 683.66489599 1461.76965078 c 4
 737.990499158 1448.58336591 789.609774882 1423.39822133 831.972144218 1386.92111985 c 4
 874.334513552 1350.44401836 907.152850694 1303.32006314 928.465475546 1251.63910639 c 4
 949.778100397 1199.95814965 960.000000002 1143.90303452 960 1088 c 4
 960 1032.09696548 949.778100393 976.041850352 928.46547554 924.360893606 c 4
 907.152850686 872.67993686 874.334513542 825.555981637 831.972144206 789.078880155 c 4
 789.609774872 752.601778673 737.99049915 727.416634092 683.664895984 714.230349222 c 4
 629.339292817 701.044064351 572.903034516 700.000000001 517 700 c 6
 128 700 l 5
 128 1476 l 5
 517 1476 l 6
  Spiro
    517 1476 ]
    960 1088 o
    517 700 [
    128 700 v
    128 1476 v
    0 0 z
  EndSpiro
EndSplineSet
Layer: 4
EndChar
StartChar: Q
Encoding: 81 81 44
GlifName: Q_
Width: 1024
VWidth: 0
Flags: W
HStem: -272 120<740.113 1024> 1304 120<419.76 731.897>
VStem: 112 128<328.528 1080.61> 512 128<110.754 384> 912 128<329.969 1080.51>
CounterMasks: 1 38
LayerCount: 5
Back
Fore
SplineSet
112 704 m 4
 112 831 114.721062735 949.820664226 140 1053 c 4
 189 1253 331 1424 576 1424 c 4
 821 1424 961.602311732 1252.65238044 1012 1053 c 4
 1038 950 1040 831 1040 704 c 4
 1040 577 1037.27893726 458.179335774 1012 355 c 4
 969.387754957 181.072469211 856.442432542 29.0767582479 666.587227121 -7.59649288095 c 5
 668.281255977 -12.1640947146 670.083221191 -16.6340038249 672 -21 c 4
 708 -103 772 -152 871 -152 c 4
 927.62633452 -152 982.074733096 -146.96 1024 -143 c 5
 1024 -263 l 5
 980.111111111 -266.75 928.444444444 -272 864 -272 c 4
 702 -272 599.835448033 -177.069145309 552 -63 c 4
 545.389321877 -47.236075244 539.870452089 -31.0124417149 535.26319431 -14.3680607809 c 5
 315.319900258 3.55474651333 187.535341578 166.686916058 140 355 c 4
 114 458 112 577 112 704 c 4
240 704 m 4
 240 588 241.572647088 477.661691055 265 382 c 4
 296.692286044 252.589831986 375.659618908 135.579676252 515.547301928 109.430026994 c 5
 512.186788259 156.361829093 512 205.433761511 512 256 c 6
 512 384 l 5
 640 384 l 5
 640 256 l 6
 640 206.480612259 639.990359422 156.95699529 643.646756095 110.753667098 c 5
 780.176455488 139.342898512 855.199172365 254.79668946 887 382 c 4
 911 478 912 588 912 704 c 4
 912 820 910.427352912 930.338308945 887 1026 c 4
 851 1173 756 1304 576 1304 c 4
 396 1304 298.806636328 1173.51986761 265 1026 c 4
 243 930 240 820 240 704 c 4
EndSplineSet
Layer: 2
SplineSet
576 1424 m 0
 814 1424 964 1256 1012 1053 c 0
 1040 935 1040 816 1040 704 c 0
 1040 592 1040 473 1012 355 c 0
 969 171 842 16 641 -12 c 1
 643 -62 651 -129 684 -182 c 0
 721 -241 776 -280 872 -280 c 0
 920 -280 972 -272 1024 -263 c 1
 1024 -385 l 1
 973 -394 922 -400 872 -400 c 0
 724 -400 628 -333 573 -241 c 0
 525 -160 515 -74 513 -12 c 1
 312 15 184 171 140 355 c 0
 112 473 112 592 112 704 c 0
 112 816 112 935 140 1053 c 0
 188 1256 338 1424 576 1424 c 0
576 1304 m 0
 404 1304 301 1178 265 1026 c 0
 241 923 240 816 240 704 c 0
 240 592 241 485 265 382 c 0
 301 230 404 104 576 104 c 0
 748 104 851 230 887 382 c 0
 911 485 912 592 912 704 c 0
 912 816 911 923 887 1026 c 0
 851 1178 748 1304 576 1304 c 0
EndSplineSet
Layer: 3
Layer: 4
EndChar
StartChar: R
Encoding: 82 82 45
GlifName: R_
Width: 1024
VWidth: 0
Flags: W
HStem: 0 21G<256 384 920.076 1065> 520 120<384 689.165> 1288 120<384 755.459>
VStem: 256 128<0 520 640 1288> 912 128<795.115 1132.78>
LayerCount: 5
Back
Fore
SplineSet
912 964 m 4
 912 1072 867.63012131 1160.5714422 805 1215 c 4
 721 1288 615 1288 533 1288 c 6
 384 1288 l 5
 384 640 l 5
 533 640 l 6
 615 640 720.503915858 640.574785021 805 713 c 4
 868 767 912 856 912 964 c 4
533 1408 m 6
 624 1408 772 1408 891 1303 c 4
 977.13022897 1227.00273914 1040 1111 1040 964 c 4
 1040 817 977.058391181 700.933874571 891 625 c 4
 865.987679157 602.930305138 839.694172689 585.499385813 812.91806264 571.732229065 c 5
 1065 0 l 5
 929 0 l 5
 691.960254401 531.238011414 l 5
 632.26064707 520 576.205740106 520 533 520 c 6
 384 520 l 5
 384 0 l 5
 256 0 l 5
 256 1408 l 5
 533 1408 l 6
EndSplineSet
Validated: 1
Layer: 2
SplineSet
439 760 m 6
 524 760 575 761 620 772 c 4
 755 805 848 925 848 1088 c 4
 848 1251 755 1371 620 1404 c 4
 575 1415 524 1416 439 1416 c 6
 256 1416 l 5
 256 760 l 5
 439 760 l 6
534.4140625 641.071289062 m 5
 505.526367188 640 474.323242188 640 439 640 c 6
 256 640 l 5
 256 0 l 5
 128 0 l 5
 128 1536 l 5
 439 1536 l 6
 526 1536 588 1536 652 1520 c 4
 838 1475 976 1312 976 1088 c 4
 976 868.202148438 843.12890625 707.13671875 662.416992188 658.657226562 c 5
 912.923828125 0 l 5
 769.30078125 0 l 5
 534.4140625 641.071289062 l 5
EndSplineSet
Layer: 3
Layer: 4
EndChar
StartChar: S
Encoding: 83 83 46
GlifName: S_
Width: 1024
VWidth: 0
Flags: W
HStem: -16 120<255.397 786.165> 1304 120<468.491 984.716>
VStem: 226 128<903.41 1188.89> 926 128<237.391 530.163>
LayerCount: 5
Back
Fore
SplineSet
620 -16 m 4
 486 -16 366 -2 250 16 c 5
 250 139 l 5
 364 121 492 104 620 104 c 4
 799 104 926 209 926 385 c 4
 926 508 857 597 768 632 c 4
 654 678 544 650 411 721 c 4
 304 778 226 895 226 1045 c 4
 226 1266 385 1424 620 1424 c 4
 756 1424 877 1410.85714286 990 1399 c 5
 990 1278 l 5
 878 1290.37037037 745 1304 620 1304 c 4
 455 1304 354 1198 354 1045 c 4
 354 942 405 863 477 825 c 4
 575 773 700 788 816 742 c 4
 945 691 1054 566 1054 385 c 4
 1054 143 869 -16 620 -16 c 4
EndSplineSet
Validated: 1
Layer: 2
SplineSet
576 1364 m 0
 770.390625 1364 906 1234.61328125 906 1034 c 4
 906 842.827148438 770.390625 704 576 704 c 0
 381.609375 704 246 842.827148438 246 1034 c 0
 246 1234.61328125 381.609375 1364 576 1364 c 0
576 704 m 0
 793.953125 704 946 562.8125 946 374 c 4
 946 175.747070312 793.953125 44 576 44 c 0
 358.046875 44 206 175.747070312 206 374 c 0
 206 562.8125 358.046875 704 576 704 c 0
EndSplineSet
Layer: 3
SplineSet
79 128 m 0
 144.895802363 111.145932658 211.265958895 96.1485403341 278 83 c 0
 327.470650044 73.2528480713 377.1161781 64.3455087742 427 57 c 0
 476.399336817 49.7258327809 526.145566171 44.0036079007 576.088827189 43.9999935717 c 0
 628.916347772 43.9999935717 682.12296447 50.8217134281 731.819837438 68.7360311327 c 0
 781.544564899 86.6603895943 827.38304997 115.945371365 863 155 c 0
 916.981438942 214.191622228 945.923474147 294.327595071 946.000620475 374.645987513 c 0
 946.000620475 437.272059165 928.506788416 500.199137273 893.793708429 552.321739809 c 0
 858.961271322 604.623560198 806.609122646 644.33394976 748 667 c 0
 691.999116076 688.65735966 631.574525984 695.355942227 572.109498153 703.665616877 c 0
 512.644470323 711.975291526 452.489230196 723.84488139 400 753 c 0
 351.117073668 780.151998799 310.53612781 821.863842988 284.516286475 871.358684966 c 0
 258.167683285 921.478896479 245.994564945 977.894264804 245.994564945 1035.07667597 c 0
 245.994564945 1079.45596113 253.44417771 1123.93416622 269.070400818 1165.46796467 c 0
 284.940370609 1207.64963084 309.596097971 1246.67690891 342 1278 c 0
 372.649790114 1307.62748643 410.03534109 1330.08392421 450.277715428 1344.14624599 c 0
 490.608689915 1358.23952827 533.478229732 1363.98936767 576.249008234 1364.00006226 c 0
 619.106941655 1364.00006226 661.797237959 1358.46895892 704 1351 c 0
 744.949710418 1343.75280361 785.564591784 1334.71485467 826 1325 c 0
 907.309501601 1305.46489386 987.915585554 1283.069524 1068 1259 c 1024
  Spiro
    79 128 {
    278 83 o
    427 57 o
    576 44 o
    863 155 o
    946 374 o
    748 667 o
    400 753 o
    246 1033 o
    342 1278 o
    576 1364 o
    704 1351 o
    826 1325 o
    1068 1259 o
    0 0 z
  EndSpiro
EndSplineSet
Layer: 4
EndChar
StartChar: U
Encoding: 85 85 48
GlifName: U_
Width: 1024
VWidth: 0
Flags: W
HStem: -16 120<409.11 742.813> 1388 20G<128 256 896 1024>
VStem: 128 128<260.614 1408> 896 128<260.614 1408>
AnchorPoint: "top" 576 1408 basechar 0
LayerCount: 5
Back
Fore
SplineSet
128 1408 m 1
 256 1408 l 1
 256 512 l 2
 256 437 256 378 268 330 c 0
 301 196 416 104 576 104 c 0
 736 104 851 196 884 330 c 0
 896 378 896 437 896 512 c 2
 896 1408 l 1
 1024 1408 l 1
 1024 512 l 2
 1024 426 1024 371 1008 303 c 0
 964 118 797 -16 576 -16 c 0
 355 -16 187 118 144 303 c 0
 128 371 128 426 128 512 c 2
 128 1408 l 1
EndSplineSet
Layer: 2
SplineSet
576 812 m 4
 802.2 812 960 654.575 960 428 c 4
 960 201.425 802.2 44 576 44 c 4
 349.8 44 192 201.425 192 428 c 4
 192 654.575 349.8 812 576 812 c 4
EndSplineSet
Layer: 3
SplineSet
192 1536 m 1
 192 482 l 2
 192 426.701625656 193.035856564 370.874340729 206.098947229 317.14105619 c 0
 219.162037895 263.40777165 244.109140936 212.36082041 280.224013825 170.484500593 c 0
 316.338886714 128.608180778 362.980658982 96.1855593791 414.116334248 75.1367370804 c 0
 465.252009514 54.0879147817 520.701625656 43.9999999981 576 44 c 0
 631.298374344 44 686.747990487 54.0879147857 737.883665753 75.1367370865 c 0
 789.019341019 96.1855593872 835.661113286 128.608180789 871.775986175 170.484500605 c 0
 907.890859062 212.36082042 932.837962104 263.407771658 945.901052769 317.141056196 c 0
 958.964143435 370.874340733 959.999999999 426.701625658 960 482 c 2
 960 1535 l 1025
  Spiro
    192 1536 {
    192 482 ]
    576 44 o
    960 482 [
    960 1535 v
    0 0 z
  EndSpiro
EndSplineSet
Layer: 4
EndChar
StartChar: W
Encoding: 87 87 50
Width: 1024
VWidth: 0
Flags: W
HStem: 0 21G<212 387.136 764.864 940> 1388 20G<119 247 905 1033>
VStem: 119 128<1000.47 1408> 905 128<1000.47 1408>
LayerCount: 5
Back
Fore
SplineSet
514 896 m 5
 638 896 l 5
 812 210 l 5
 822 210 l 5
 887 579 905 991 905 1408 c 5
 1033 1408 l 5
 1033 935 986 466 894 0 c 5
 770 0 l 5
 581 736 l 5
 571 736 l 5
 382 0 l 5
 258 0 l 5
 166 466 119 935 119 1408 c 5
 247 1408 l 5
 247 991 266 579 330 210 c 5
 340 210 l 5
 514 896 l 5
EndSplineSet
Layer: 2
Layer: 3
Layer: 4
Substitution2: "'ss06' Style Set 6 lookup 7-1" W.alt
EndChar
StartChar: Y
Encoding: 89 89 52
GlifName: Y_
Width: 1024
VWidth: 0
Flags: W
HStem: 0 21G<512 640> 1388 20G<100 280.5 871.5 1052>
VStem: 512 128<0 673.091>
AnchorPoint: "top" 576 1408 basechar 0
LayerCount: 5
Back
SplineSet
43 1738 m 1
 153 1448 l 2
 261.793904146 1161.17970725 388.971561724 878.150893867 576 635 c 1
 763.028438276 878.150893867 890.206095854 1161.17970725 999 1448 c 2
 1109 1738 l 1025
  Spiro
    43 1738 {
    153 1448 ]
    576 635 v
    999 1448 [
    1109 1738 o
    0 0 z
  EndSpiro
EndSplineSet
Fore
SplineSet
586 741 m 5
 724 944 827 1172 916 1408 c 5
 1052 1408 l 5
 946 1132 822 857 640 616 c 5
 640 0 l 5
 512 0 l 5
 512 616 l 5
 330 857 206 1132 100 1408 c 5
 236 1408 l 5
 325 1172 429 943 566 741 c 5
 586 741 l 5
EndSplineSet
Layer: 2
SplineSet
586 740.814453125 m 5
 723.934062382 943.665060809 826.369234535 1172.35210314 915.587507293 1408 c 5
 1051.72206893 1408 l 5
 946.085942341 1131.85425394 821.733743227 856.868692547 640 615.782305821 c 5
 640 0 l 5
 512 0 l 5
 512 615.782305821 l 5
 330.266256773 856.868692547 205.914057659 1131.85425394 100.277931071 1408 c 5
 236.420326361 1408 l 5
 325.721329961 1172.2814883 428.958917754 942.350941362 566 740.814453125 c 5
 586 740.814453125 l 5
EndSplineSet
Layer: 3
Layer: 4
EndChar
StartChar: Z
Encoding: 90 90 53
GlifName: Z_
Width: 1024
VWidth: 0
Flags: W
HStem: 0 120<293 1024> 1288 120<148 839>
LayerCount: 5
Back
Fore
SplineSet
148 1288 m 1
 148 1408 l 1
 1004 1408 l 1
 1004 1318 l 1
 293 130 l 1
 293 120 l 1
 1024 120 l 1
 1024 0 l 1
 128 0 l 1
 128 92 l 1
 839 1278 l 1
 839 1288 l 1
 148 1288 l 1
EndSplineSet
Validated: 1
Layer: 2
Layer: 3
Layer: 4
Position2: "Single Positioning lookup 23 subtable" dx=128 dy=0 dh=0 dv=0
Position2: "Single Positioning lookup 21 subtable" dx=-128 dy=0 dh=0 dv=0
Position2: "Single Positioning lookup 20 subtable" dx=0 dy=0 dh=0 dv=0
Position2: "Single Positioning lookup 15 subtable" dx=0 dy=0 dh=0 dv=0
EndChar
StartChar: bracketleft
Encoding: 91 91 87
GlifName: bracketleft
Width: 1024
VWidth: 0
Flags: W
HStem: -128 120<512 896> 1416 120<512 896>
VStem: 384 128<-8 1416>
LayerCount: 5
Back
Fore
SplineSet
384 1536 m 1
 896 1536 l 1
 896 1416 l 1
 512 1416 l 1
 512 -8 l 1
 896 -8 l 1
 896 -128 l 1
 725 -128 555 -128 384 -128 c 1
 384 426 384 982 384 1536 c 1
EndSplineSet
Validated: 1
Layer: 2
Layer: 3
Layer: 4
EndChar
StartChar: backslash
Encoding: 92 92 26
GlifName: backslash
Width: 1024
VWidth: 0
Flags: W
LayerCount: 5
Back
Fore
SplineSet
1041 -128 m 1
 901 -128 l 1
 112 1537 l 1
 252 1537 l 1
 1041 -128 l 1
EndSplineSet
Validated: 1
Layer: 2
Layer: 3
Layer: 4
EndChar
StartChar: bracketright
Encoding: 93 93 88
GlifName: bracketright
Width: 1024
VWidth: 0
Flags: W
HStem: -128 120<256 640> 1416 120<256 640>
VStem: 640 128<-8 1416>
LayerCount: 5
Back
Fore
SplineSet
768 1536 m 1
 768 982 768 426 768 -128 c 1
 597 -128 427 -128 256 -128 c 1
 256 -8 l 1
 640 -8 l 1
 640 1416 l 1
 256 1416 l 1
 256 1536 l 1
 768 1536 l 1
EndSplineSet
Validated: 1
Layer: 2
Layer: 3
Layer: 4
EndChar
StartChar: asciicircum
Encoding: 94 94 89
GlifName: asciicircum
Width: 1024
VWidth: 0
Flags: W
HStem: 1299 109<515.553 636.447>
VStem: 201 135<896 1010.72> 816 135<896 1010.72>
LayerCount: 5
Back
Fore
SplineSet
201 896 m 1
 250 1076 332 1249 496 1408 c 1
 656 1408 l 1
 820 1249 902 1076 951 896 c 1
 816 896 l 1
 769 1055 699 1190 601 1299 c 1
 551 1299 l 1
 453 1190 383 1055 336 896 c 1
 201 896 l 1
EndSplineSet
Validated: 1
Layer: 2
Layer: 3
Layer: 4
EndChar
StartChar: underscore
Encoding: 95 95 90
Width: 1024
VWidth: 0
Flags: W
HStem: -120 120<128 1024>
LayerCount: 5
Back
Fore
SplineSet
128 0 m 5
 1024 0 l 5
 1024 -120 l 5
 128 -120 l 5
 128 0 l 5
EndSplineSet
Validated: 1
Layer: 2
Layer: 3
Layer: 4
EndChar
StartChar: grave
Encoding: 96 96 27
GlifName: grave
Width: 1024
VWidth: 0
Flags: W
HStem: 1024 384
VStem: 359 304
LayerCount: 5
Back
Fore
SplineSet
663 1024 m 1
 525 1024 l 1
 359 1408 l 1
 497 1408 l 1
 663 1024 l 1
EndSplineSet
Validated: 1
Layer: 2
SplineSet
216 1603 m 5
 576 768 l 1029
EndSplineSet
Layer: 3
Layer: 4
EndChar
StartChar: b
Encoding: 98 98 0
GlifName: b
Width: 1024
VWidth: 0
InSpiro: 1
Flags: W
HStem: -16 120<486.825 701.792> 0 21G<256 384> 920 120<486.825 701.792> 1388 20G<256 384>
VStem: 256 128<0 125 219.664 804.336 899 1408> 800 128<220.345 803.655>
LayerCount: 5
Back
Fore
SplineSet
612 1040 m 0x7c
 743 1040 853 953 900 803 c 0
 928 713 928 624 928 512 c 0
 928 400 928 311 900 221 c 0
 853 71 743 -16 612 -16 c 0xbc
 529 -16 453 33 394 125 c 1
 384 125 l 1
 384 0 l 1
 256 0 l 1
 256 1408 l 1
 384 1408 l 1
 384 899 l 1
 394 899 l 1
 453 991 529 1040 612 1040 c 0x7c
592 920 m 0
 496 920 436 847 410 768 c 0
 385 692 384 604 384 512 c 0
 384 420 385 332 410 256 c 0
 436 177 496 104 592 104 c 0
 688 104 748 177 774 256 c 0
 799 332 800 420 800 512 c 0
 800 604 799 692 774 768 c 0
 748 847 688 920 592 920 c 0
EndSplineSet
Validated: 1
Layer: 2
SplineSet
592 980 m 4
 752.224698154 980 864 868.490323154 864 708 c 4
 864 547.509676846 752.224698154 436 592 436 c 4
 431.775301846 436 320 547.509676846 320 708 c 4
 320 868.490323154 431.775301846 980 592 980 c 4
EndSplineSet
Layer: 3
SplineSet
592 980 m 0
 572.478833777 980 552.952344892 977.678092966 534 973 c 0
 489.369481781 961.983647431 448.395288022 937.335718108 416.847957469 903.899074804 c 0
 385.300626916 870.4624315 363.153388665 828.887148763 348.912402211 785.178597136 c 0
 320.430429304 697.761493884 320 603.940049607 320 512 c 0
 320 420.059950393 320.430429303 326.238506116 348.91240221 238.821402863 c 0
 363.153388664 195.112851237 385.300626915 153.537568499 416.847957468 120.100925196 c 0
 448.395288021 86.6642818917 489.369481781 62.0163525689 534 51 c 0
 552.952344892 46.3219070343 572.478833777 44 592 44 c 0
 611.521166223 44 631.047655108 46.3219070343 650 51 c 0
 694.630518219 62.0163525691 735.604711978 86.664281892 767.152042531 120.100925196 c 0
 798.699373084 153.5375685 820.846611335 195.112851237 835.087597789 238.821402864 c 0
 863.569570696 326.238506116 864 420.059950393 864 512 c 0
 864 603.940049607 863.569570697 697.761493884 835.08759779 785.178597137 c 0
 820.846611336 828.887148763 798.699373085 870.462431501 767.152042532 903.899074804 c 0
 735.604711979 937.335718108 694.630518219 961.983647431 650 973 c 0
 631.047655108 977.678092966 611.521166223 980 592 980 c 0
  Spiro
    592 980 o
    534 973 o
    320 512 o
    534 51 o
    592 44 o
    650 51 o
    864 512 o
    650 973 o
    0 0 z
  EndSpiro
320 1536 m 1
 320 4 l 1025
  Spiro
    320 1536 {
    320 4 v
    0 0 z
  EndSpiro
EndSplineSet
Layer: 4
Position2: "Single Positioning lookup 19 subtable" dx=-128 dy=0 dh=0 dv=0
Position2: "Single Positioning lookup 18 subtable" dx=-128 dy=0 dh=0 dv=0
Position2: "Single Positioning lookup 17 subtable" dx=0 dy=0 dh=0 dv=0
Position2: "Single Positioning lookup 14 subtable" dx=-128 dy=0 dh=0 dv=0
Position2: "Single Positioning lookup 9 subtable" dx=128 dy=0 dh=0 dv=0
Position2: "Single Positioning lookup 8 subtable" dx=128 dy=0 dh=0 dv=0
Position2: "Single Positioning lookup 7 subtable" dx=0 dy=0 dh=0 dv=0
Position2: "Single Positioning lookup 3 subtable" dx=128 dy=0 dh=0 dv=0
EndChar
StartChar: c
Encoding: 99 99 3
Width: 1024
VWidth: 0
Flags: W
HStem: -16 120<460.362 877.373> 920 120<460.362 871.758>
VStem: 224 128<227.883 796.117>
LayerCount: 5
Back
Fore
SplineSet
224 512 m 0
 224 633 226 738 267 831 c 0
 317 946 418 1040 606 1040 c 0
 699 1040 786 1026 876 1003 c 1
 876 880 l 1
 785 905 692 920 606 920 c 0
 486 920 427 872 387 789 c 0
 352 716 352 614 352 512 c 0
 352 410 352 308 387 235 c 0
 427 152 486 104 606 104 c 0
 696 104 796 121 896 148 c 1
 896 25 l 1
 797 -1 703 -16 606 -16 c 0
 418 -16 317 78 267 193 c 0
 226 286 224 391 224 512 c 0
EndSplineSet
Layer: 2
Layer: 3
Layer: 4
EndChar
StartChar: c
Encoding: 99 99 3
Width: 1024
VWidth: 0
Flags: W
HStem: -16 120<460.43 877.307> 920 120<460.43 871.738>
VStem: 224 128<227.897 796.103>
LayerCount: 5
Back
Fore
SplineSet
224 512 m 0
 224 633 226.15 738 267 831 c 0
 317.347953906 945.623248794 418.077639752 1040 606 1040 c 0
 698.931034483 1040 785.517241379 1026 876 1003 c 1
 876 880 l 1
 784.586206897 905 692.413793103 920 606 920 c 0
 486.5 920 426.652690399 871.704182833 387 789 c 0
 352 716 352 614 352 512 c 0
 352 410 352 308 387 235 c 0
 426.652690399 152.295817167 486.5 104 606 104 c 0
 696.451612903 104 795.612903226 121 896 148 c 1
 896 25 l 1
 796.548387097 -1 703 -16 606 -16 c 0
 418.077639752 -16 317.347953906 78.3767512055 267 193 c 0
 226.15 286 224 391 224 512 c 0
EndSplineSet
Layer: 2
Layer: 3
Layer: 4
EndChar
StartChar: d
Encoding: 100 100 4
GlifName: d
Width: 1024
VWidth: 0
Flags: W
HStem: -16 120<451.69 668.668> 0 21G<768 896> 920 120<451.69 668.668> 1388 20G<768 896>
VStem: 224 128<224.216 799.784> 768 128<0 125 223.214 800.786 899 1408>
LayerCount: 5
Back
Fore
SplineSet
540 1040 m 0xbc
 623 1040 709 1001 758 899 c 1
 768 899 l 1
 768 1408 l 1
 896 1408 l 1
 896 0 l 1
 768 0 l 1x7c
 768 125 l 1
 758 125 l 1
 709 23 623 -16 540 -16 c 0
 409 -16 299 71 252 221 c 0
 224 311 224 400 224 512 c 0
 224 624 224 713 252 803 c 0
 299 953 409 1040 540 1040 c 0xbc
560 920 m 0
 464 920 404 847 378 768 c 0
 353 692 352 604 352 512 c 0
 352 420 353 332 378 256 c 0
 404 177 464 104 560 104 c 0xbc
 656 104 716 177 742 256 c 0
 767 332 768 420 768 512 c 0
 768 604 767 692 742 768 c 0
 716 847 656 920 560 920 c 0
EndSplineSet
Validated: 1
Layer: 2
Layer: 3
Layer: 4
Substitution2: "Single Substitution lookup 48 subtable" larsenwork
EndChar
StartChar: f
Encoding: 102 102 6
GlifName: f
Width: 1024
VWidth: 0
Flags: W
HStem: 0 21G<384 512> 776 120<128 384 512 896> 1304 120<543.975 893.069>
VStem: 384 128<0 776 896 1257.26>
LayerCount: 5
Back
Fore
SplineSet
512 0 m 1
 384 0 l 1
 384 776 l 1
 128 776 l 1
 128 896 l 1
 384 896 l 1
 384 1129 l 2
 384 1181 384 1259 436 1329 c 0
 480 1388 561 1424 660 1424 c 0
 740 1424 834 1415 896 1408 c 1
 896 1288 l 1
 834 1295 737 1304 660 1304 c 0
 604 1304 563 1289 540 1259 c 0
 512 1222 512 1173 512 1129 c 2
 512 896 l 1
 896 896 l 1
 896 776 l 1
 512 776 l 1
 512 0 l 1
EndSplineSet
Validated: 1
Layer: 2
SplineSet
448 1024 m 1
 448 1257 l 2
 448 1286.38886035 448.299759739 1315.9955079 454.22466316 1344.78093185 c 0
 460.14956658 1373.5663558 471.816654617 1401.38993622 489.964610879 1424.50609499 c 0
 508.112567141 1447.62225375 532.522641224 1465.6670254 559.734380011 1476.76776343 c 0
 586.755060357 1487.79056121 616.194753898 1492.00063055 645.380928178 1492.00063055 c 0
 646 1492 l 0
 665.389547959 1491.96052839 684.737173065 1490.21351001 704 1488 c 0
 745.075464346 1483.2799788 785.991669577 1477.27154695 827 1472 c 0
 882.689656985 1464.84119499 938.380696207 1457.68631445 994 1450 c 1024
  Spiro
    448 1024 {
    448 1257 ]
    646 1492 o
    704 1488 o
    827 1472 o
    994 1450 o
    0 0 z
  EndSpiro
EndSplineSet
Layer: 3
Layer: 4
Position2: "Single Positioning lookup 19 subtable" dx=-128 dy=0 dh=0 dv=0
Position2: "Single Positioning lookup 18 subtable" dx=-128 dy=0 dh=0 dv=0
Position2: "Single Positioning lookup 17 subtable" dx=0 dy=0 dh=0 dv=0
Position2: "Single Positioning lookup 14 subtable" dx=-128 dy=0 dh=0 dv=0
Position2: "Single Positioning lookup 9 subtable" dx=128 dy=0 dh=0 dv=0
Position2: "Single Positioning lookup 8 subtable" dx=128 dy=0 dh=0 dv=0
Position2: "Single Positioning lookup 7 subtable" dx=0 dy=0 dh=0 dv=0
Position2: "Single Positioning lookup 3 subtable" dx=128 dy=0 dh=0 dv=0
EndChar
StartChar: g
Encoding: 103 103 7
GlifName: g
Width: 1024
VWidth: 0
Flags: W
HStem: -272 120<302.991 672.172> 112 120<443.776 665.073> 920 120<443.776 665.073> 1004 20G<768 896>
VStem: 224 128<337.46 814.54> 768 128<-50.2289 253 335.969 816.031 899 1024>
LayerCount: 5
Back
SplineSet
560 920 m 4xec
 464 920 404 847 378 768 c 4
 353 692 352 604 352 512 c 4
 352 420 353 332 378 256 c 4
 404 177 464 104 560 104 c 4
 656 104 716 177 742 256 c 4
 767 332 768 420 768 512 c 4
 768 604 767 692 742 768 c 4
 716 847 656 920 560 920 c 4xec
540 1040 m 4
 623 1040 699 991 758 899 c 5
 768 899 l 5
 768 1024 l 5
 896 1024 l 5xdc
 896 32 l 6
 896 -28 896 -139 835 -241 c 4
 780 -333 684 -400 536 -400 c 4
 443 -400 345 -378 256 -361 c 5
 256 -238 l 5
 344 -255 448 -280 536 -280 c 4
 632 -280 687 -241 724 -182 c 4
 768 -111 768 -15 768 32 c 6
 768 125 l 5
 758 125 l 5
 699 33 623 -16 540 -16 c 4
 409 -16 299 71 252 221 c 4
 224 311 224 400 224 512 c 4
 224 624 224 713 252 803 c 4
 299 953 409 1040 540 1040 c 4
EndSplineSet
Fore
SplineSet
352 576 m 4xec
 352 442.977539062 370.987304688 339.76171875 437.3125 278.497070312 c 4
 468.659239064 249.542056469 510.115234375 232 560 232 c 4
 609.884765625 232 651.33984375 249.54296875 682.6875 278.497070312 c 4
 749.014631288 339.759784193 768 442.977539062 768 576 c 4
 768 709.022460938 749.014648438 812.240234375 682.6875 873.502929688 c 4
 651.339875866 902.456985324 609.884765625 920 560 920 c 4
 510.115186908 920 468.659257859 902.458040853 437.3125 873.502929688 c 4
 370.98752797 812.23831831 352 709.022464868 352 576 c 4xec
768 253 m 5
 758 252.923828125 l 5
 702.865234375 167.530273438 627.350585938 112 540 112 c 4
 459.083007812 112 389.451097999 144.095627658 339.4765625 193.016601562 c 4
 255.03125 275.681640625 224 403.4140625 224 576 c 4
 224 748.586003068 255.031076692 876.318525195 339.4765625 958.983398438 c 4
 389.451441889 1007.90451045 459.083291858 1040 540 1040 c 4xec
 627.350913646 1040 702.864794755 984.469627397 758 899.076171875 c 5
 768 899 l 5
 768 1024 l 5
 896 1024 l 5xdc
 896 160 l 6
 896 100 895.983985433 -10.9904243673 835 -113 c 4
 780 -205 684 -272 536 -272 c 4
 446 -272 364 -265 300 -257 c 5
 300 -137 l 5
 363 -144 447 -152 536 -152 c 4
 632 -152 687.314944175 -113.196340082 724 -54 c 4
 768 17 768 113 768 160 c 6
 768 253 l 5
EndSplineSet
Validated: 1
Layer: 2
Layer: 3
SplineSet
560 256 m 0
 540.531058528 255.947221234 521.068001614 253.93112987 502 250 c 0
 429.609085841 235.075620889 363.438945309 190.787450634 323.3553728 128.686816502 c 0
 295.049798907 84.8335874058 280.159157176 32.615220877 280.159157176 -19.5380184051 c 0
 280.159157176 -41.2390721402 282.737332713 -62.9288497008 288 -84 c 1
 209 -374 l 1
 242.96542309 -380.84150246 276.961124633 -387.533850806 311 -394 c 0
 348.904671387 -401.200509937 386.85129422 -408.230450311 425 -414 c 0
 461.90225773 -419.581038865 499.006770216 -423.98450874 536.377578814 -424.000158115 c 0
 559.041833588 -424.000158115 581.745827027 -422.289510396 604 -418 c 0
 640.10095022 -411.041511745 674.92790157 -396.960217035 705.038701814 -375.864272538 c 0
 735.149502059 -354.768328042 760.351981447 -326.936162582 779.427369943 -295.506419991 c 0
 817.886880116 -232.13824769 832.002686517 -156.82331051 832.002686517 -82.2233925653 c 0
 832.002686517 -11.0094668425 819.032413309 61.5201974215 784.179541127 123.59687694 c 0
 766.608167036 154.893366725 743.26464813 183.100056667 714.856993763 205.036980648 c 0
 686.449339397 226.973904628 653.075441808 242.38837453 618 250 c 0
 598.968519222 254.12996947 579.474370882 256.052793484 560 256 c 0
  Spiro
    560 256 o
    502 250 o
    288 -84 v
    209 -374 v
    311 -394 o
    425 -414 o
    536 -424 o
    604 -418 o
    832 -84 o
    618 250 o
    0 0 z
  EndSpiro
EndSplineSet
Layer: 4
Substitution2: "'ss13' Style Set 13 lookup 13-1" g.long
EndChar
StartChar: h
Encoding: 104 104 8
GlifName: h
Width: 1024
VWidth: 0
Flags: W
HStem: 0 21G<256 384 768 896> 920 120<474.999 700.525> 1388 20G<256 384>
VStem: 256 128<0 853.095 912 1408> 768 128<0 853.095>
LayerCount: 5
Back
Fore
SplineSet
596 1040 m 0
 696 1040 777 995 827 933 c 0
 896 847 896 751 896 657 c 2
 896 0 l 1
 768 0 l 1
 768 657 l 2
 768 744 768 806 723 858 c 0
 691 895 640 920 576 920 c 0
 512 920 461 895 429 858 c 0
 384 806 384 744 384 657 c 2
 384 0 l 1
 256 0 l 1
 256 1408 l 1
 384 1408 l 1
 384 912 l 1
 394 912 l 1
 443 989 520 1040 596 1040 c 0
EndSplineSet
Layer: 2
Layer: 3
Layer: 4
EndChar
StartChar: i
Encoding: 105 105 9
GlifName: i
Width: 1024
VWidth: 0
Flags: W
HStem: 0 21G<512 640> 904 120<256 512> 1200 224<454.609 633.391>
VStem: 432 224<1222.61 1401.39> 512 128<0 904>
AnchorPoint: "bottom" 576 0 basechar 0
LayerCount: 5
Back
Fore
SplineSet
544 1424 m 0xf0
 610 1424 656 1378 656 1312 c 0
 656 1246 610 1200 544 1200 c 0
 478 1200 432 1246 432 1312 c 0
 432 1378 478 1424 544 1424 c 0xf0
512 0 m 1xe8
 512 904 l 1
 256 904 l 1
 256 1024 l 1
 640 1024 l 1
 640 0 l 1
 512 0 l 1xe8
EndSplineSet
Layer: 2
Layer: 3
Layer: 4
Substitution2: "'ss07' Style Set 7 lookup 58 subtable" i.flyingdot
EndChar
StartChar: j
Encoding: 106 106 10
Width: 1024
VWidth: 0
Flags: W
HStem: -400 120<266.903 572.489> 904 120<384 640> 1200 224<584.237 759.763>
VStem: 560 224<1224.24 1399.76> 640 128<-211.835 904>
LayerCount: 5
Back
Fore
SplineSet
256 -237 m 1xe8
 311 -259 380 -280 448 -280 c 0
 515 -280 565 -256 597 -218 c 0
 640 -166 640 -102 640 -14 c 2
 640 904 l 1
 384 904 l 1
 384 1024 l 1
 768 1024 l 1
 768 -24 l 2
 768 -115 768 -210 700 -292 c 0
 648 -355 564 -400 458 -400 c 0
 383 -400 316 -385 256 -365 c 1
 256 -237 l 1xe8
672 1424 m 0
 738 1424 784 1378 784 1312 c 0
 784 1246 738 1200 672 1200 c 0
 606 1200 560 1246 560 1312 c 0xf0
 560 1378 606 1424 672 1424 c 0
EndSplineSet
Layer: 2
SplineSet
448 44 m 4
 598.8 44 704 -60.95 704 -212 c 4
 704 -363.05 598.8 -468 448 -468 c 4
 297.2 -468 192 -363.05 192 -212 c 4
 192 -60.95 297.2 44 448 44 c 4
EndSplineSet
Layer: 3
SplineSet
704 45 m 1
 704 -172 l 2
 704 -209.30175595 703.454831685 -246.92394934 695.223254122 -283.306117057 c 0
 686.99167656 -319.688284774 671.043396481 -354.533371494 647.203993415 -383.22315815 c 0
 623.364590348 -411.912944806 592.00622287 -434.113648541 557.420372628 -448.086477886 c 0
 522.739235077 -462.097803707 485.192168037 -467.986486026 447.729768683 -468.00009819 c 0
 405.278768715 -468.00009819 363.072771044 -460.733301726 322 -450 c 0
 286.585548448 -440.745353082 251.873601214 -428.871229546 218 -415 c 0
 185.834505443 -401.828239618 154.435909116 -386.785998568 124 -370 c 1
 704 45 l 1
  Spiro
    704 45 v
    704 -172 ]
    448 -468 o
    322 -450 o
    218 -415 o
    124 -370 v
    0 0 z
  EndSpiro
EndSplineSet
Layer: 4
Substitution2: "'ss07' Style Set 7 lookup 8-1" j.alt
EndChar
StartChar: k
Encoding: 107 107 11
GlifName: k
Width: 1024
VWidth: 0
Flags: W
HStem: 0 21G<256 384 833.964 1002> 1004 20G<774.569 955> 1388 20G<256 384>
VStem: 256 128<0 435 602 1408>
AnchorPoint: "bottom" 576 0 basechar 0
LayerCount: 5
Back
Fore
SplineSet
384 0 m 1
 256 0 l 1
 256 1408 l 1
 384 1408 l 1
 384 602 l 1
 794 1024 l 1
 955 1024 l 1
 592 645 l 1
 1002 0 l 1
 846 0 l 1
 509 560 l 1
 384 435 l 1
 384 0 l 1
EndSplineSet
Layer: 2
SplineSet
515 527 m 29
 1460 -418 l 1053
330 354 m 29
 1107 1131 l 1053
EndSplineSet
Layer: 3
Layer: 4
EndChar
StartChar: m
Encoding: 109 109 13
GlifName: m
Width: 1024
VWidth: 0
Flags: W
HStem: 0 21G<128 256 512 640 896 1024> 920 120<308.068 480.961 669.549 865.287> 1004 20G<128 256>
VStem: 128 128<0 890.704 949 1024> 512 128<0 890.704> 896 128<0 887.948>
CounterMasks: 1 1c
LayerCount: 5
Back
Fore
SplineSet
414 1040 m 0xdc
 498 1040 562 992 597 929 c 1
 652 1001 716 1040 798 1040 c 0
 874 1040 935 1004 972 954 c 0
 1024 884 1024 814 1024 730 c 2
 1024 0 l 1
 896 0 l 1
 896 730 l 2
 896 797 896 845 866 879 c 0
 845 903 811 920 768 920 c 0
 725 920 691 903 670 879 c 0
 640 845 640 797 640 730 c 2
 640 0 l 1
 512 0 l 1
 512 730 l 2
 512 797 512 845 482 879 c 0
 461 903 427 920 384 920 c 0xdc
 341 920 307 903 286 879 c 0
 256 845 256 797 256 730 c 2
 256 0 l 1
 128 0 l 1
 128 1024 l 1
 256 1024 l 1xbc
 256 949 l 1
 266 949 l 1
 306 1008 354 1040 414 1040 c 0xdc
EndSplineSet
Validated: 1
Layer: 2
SplineSet
384 980 m 4
 497.099786932 980 576 901.287286932 576 788 c 4
 576 674.712713068 497.099786932 596 384 596 c 4
 270.900213068 596 192 674.712713068 192 788 c 4
 192 901.287286932 270.900213068 980 384 980 c 4
EndSplineSet
Layer: 3
SplineSet
192 1024 m 5
 192 0 l 1029
  Spiro
    192 1024 {
    192 0 v
    0 0 z
  EndSpiro
192 0 m 5
 192 760 l 6
 192 787.714711887 192.512031429 815.691153786 199.014153359 842.632342798 c 4
 205.51627529 869.57353181 217.939956758 895.189749935 235.965433786 916.241767246 c 4
 253.990910815 937.293784557 277.303335918 953.63755532 302.899995799 964.263761507 c 4
 328.49665568 974.889967693 356.285288113 980.000000001 384 980 c 4
 411.714711887 980 439.503344321 974.889967691 465.100004202 964.263761504 c 4
 490.696664082 953.637555316 514.009089185 937.293784552 532.034566213 916.24176724 c 4
 550.060043242 895.18974993 562.483724709 869.573531806 568.98584664 842.632342795 c 4
 575.487968571 815.691153784 576 787.714711886 576 760 c 6
 576 0 l 1029
  Spiro
    192 0 {
    192 760 ]
    384 980 o
    576 760 [
    576 0 v
    0 0 z
  EndSpiro
EndSplineSet
Layer: 4
Substitution2: "Single Substitution lookup 82 subtable" mm
Substitution2: "Single Substitution lookup 81 subtable" larsenwork
Position2: "Single Positioning lookup 23 subtable" dx=128 dy=0 dh=0 dv=0
Position2: "Single Positioning lookup 21 subtable" dx=-128 dy=0 dh=0 dv=0
Position2: "Single Positioning lookup 20 subtable" dx=0 dy=0 dh=0 dv=0
Position2: "Single Positioning lookup 15 subtable" dx=0 dy=0 dh=0 dv=0
EndChar
StartChar: n
Encoding: 110 110 14
GlifName: n
Width: 1024
VWidth: 0
Flags: W
HStem: 0 21G<256 384 768 896> 920 120<474.999 700.525> 1004 20G<256 384>
VStem: 256 128<0 853.095 912 1024> 768 128<0 853.095>
AnchorPoint: "bottom" 576 0 basechar 0
AnchorPoint: "top" 576 1024 basechar 0
LayerCount: 5
Back
Fore
SplineSet
596 1040 m 0xd8
 696 1040 777 995 827 933 c 0
 896 847 896 751 896 657 c 2
 896 0 l 1
 768 0 l 1
 768 657 l 2
 768 744 768 806 723 858 c 0
 691 895 640 920 576 920 c 0xd8
 512 920 461 895 429 858 c 0
 384 806 384 744 384 657 c 2
 384 0 l 1
 256 0 l 1
 256 1024 l 1
 384 1024 l 1xb8
 384 912 l 1
 394 912 l 1
 443 989 520 1040 596 1040 c 0xd8
EndSplineSet
Layer: 2
SplineSet
576 980 m 0
 726.799715909 980 832 875.049715909 832 724 c 0
 832 572.950284091 726.799715909 468 576 468 c 0
 425.200284091 468 320 572.950284091 320 724 c 0
 320 875.049715909 425.200284091 980 576 980 c 0
EndSplineSet
Layer: 3
SplineSet
832 0 m 1
 832 687 l 2
 832 723.931084581 831.315327639 761.212048046 822.636028962 797.108771891 c 0
 813.956730285 833.005495737 797.375202654 867.129546756 773.330569776 895.160969091 c 0
 749.285936896 923.192391424 718.199859157 944.939953425 684.080580569 959.074302967 c 0
 649.961301981 973.208652508 612.931084581 980.000000001 576 980 c 0
 539.068915419 980 502.038698018 973.208652506 467.91941943 959.074302963 c 0
 433.800140842 944.93995342 402.714063103 923.192391417 378.669430225 895.160969083 c 0
 354.624797347 867.12954675 338.043269716 833.005495731 329.363971039 797.108771887 c 0
 320.684672362 761.212048043 320 723.93108458 320 687 c 2
 320 0 l 1
 320 1024 l 1025
  Spiro
    832 0 {
    832 687 ]
    576 980 o
    320 687 [
    320 0 v
    320 1024 v
    0 0 z
  EndSpiro
EndSplineSet
Layer: 4
EndChar
StartChar: o
Encoding: 111 111 15
Width: 1024
VWidth: 0
Flags: WO
HStem: -16 120<453.281 698.719> 920 120<453.281 698.719>
VStem: 224 128<219.969 804.031> 800 128<219.969 804.031>
LayerCount: 5
Back
Fore
SplineSet
576 1040 m 0
 702.769958296 1040 802.255886089 978.485085629 862.800490107 880.000006761 c 0
 919.196816527 788.262737267 928 662.486071909 928 512 c 0
 928 361.513671875 919.197265625 235.737304688 862.80078125 144 c 0
 802.255859375 45.5146484375 702.770507812 -16 576 -16 c 0
 449.229492188 -16 349.744140625 45.5146484375 289.19921875 144 c 0
 232.802734375 235.737304688 224 361.513671875 224 512 c 0
 224 662.486328125 232.802734375 788.262695312 289.19921875 880 c 0
 349.744140625 978.485351562 449.229492188 1040 576 1040 c 0
  Spiro
    479 -3 o
    434 13 o
    396 34 o
    361 59 o
    330 89 o
    304 122 o
    282 157 o
    264 195 o
    253 227 o
    244 259 o
    237 292 o
    232 327 o
    228 362 o
    226 397 o
    225 435 o
    224 474 o
    224 512 o
    224 550 o
    225 589 o
    226 627 o
    228 662 o
    232 697 o
    237 732 o
    244 765 o
    253 797 o
    264 829 o
    282 867 o
    304 902 o
    330 935 o
    361 965 o
    396 990 o
    434 1011 o
    479 1027 o
    527 1037 o
    576 1040 o
    625 1037 o
    673 1027 o
    718 1011 o
    756 990 o
    791 965 o
    822 935 o
    848 902 o
    870 867 o
    888 829 o
    899 797 o
    908 765 o
    915 732 o
    920 697 o
    924 662 o
    926 627 o
    927 589 o
    928 550 o
    928 512 o
    928 474 o
    927 435 o
    926 397 o
    924 362 o
    920 327 o
    915 292 o
    908 259 o
    899 227 o
    888 195 o
    870 157 o
    848 122 o
    822 89 o
    791 59 o
    756 34 o
    718 13 o
    673 -3 o
    625 -13 o
    576 -16 o
    527 -13 o
    479 -3 o
    434 13 o
    396 34 o
    361 59 o
    330 89 o
    304 122 o
    282 157 o
    264 195 o
    253 227 o
    244 259 o
    237 292 o
    232 327 o
    228 362 o
    226 397 o
    225 435 o
    224 474 o
    224 512 o
    224 550 o
    225 589 o
    226 627 o
    228 662 o
    232 697 o
    237 732 o
    244 765 o
    253 797 o
    264 829 o
    282 867 o
    304 902 o
    330 935 o
    361 965 o
    396 990 o
    434 1011 o
    479 1027 o
    527 1037 o
    576 1040 o
    625 1037 o
    673 1027 o
    718 1011 o
    756 990 o
    791 965 o
    822 935 o
    848 902 o
    870 867 o
    888 829 o
    899 797 o
    908 765 o
    915 732 o
    920 697 o
    924 662 o
    926 627 o
    927 589 o
    928 550 o
    928 512 o
    928 474 o
    927 435 o
    926 397 o
    924 362 o
    920 327 o
    915 292 o
    908 259 o
    899 227 o
    888 195 o
    870 157 o
    848 122 o
    822 89 o
    791 59 o
    756 34 o
    718 13 o
    673 -3 o
    625 -13 o
    673 1027 o
    718 1011 o
    756 990 o
    791 965 o
    822 935 o
    848 902 o
    870 867 o
    888 829 o
    899 797 o
    908 765 o
    915 732 o
    920 697 o
    924 662 o
    926 627 o
    927 589 o
    928 550 o
    928 512 o
    928 474 o
    927 435 o
    926 397 o
    924 362 o
    920 327 o
    915 292 o
    908 259 o
    899 227 o
    888 195 o
    870 157 o
    848 122 o
    822 89 o
    791 59 o
    756 34 o
    718 13 o
    673 -3 o
    625 -13 o
    576 -16 o
    527 -13 o
    479 -3 o
    434 13 o
    396 34 o
    361 59 o
    330 89 o
    304 122 o
    282 157 o
    264 195 o
    253 227 o
    244 259 o
    237 292 o
    232 327 o
    228 362 o
    226 397 o
    225 435 o
    224 474 o
    224 512 o
    224 550 o
    225 589 o
    226 627 o
    228 662 o
    232 697 o
    237 732 o
    244 765 o
    253 797 o
    264 829 o
    282 867 o
    304 902 o
    330 935 o
    361 965 o
    396 990 o
    434 1011 o
    479 1027 o
    527 1037 o
    576 1040 o
    625 1037 o
    673 1027 o
    718 1011 o
    756 990 o
    791 965 o
    822 935 o
    848 902 o
    870 867 o
    888 829 o
    899 797 o
    908 765 o
    915 732 o
    920 697 o
    924 662 o
    926 627 o
    927 589 o
    928 550 o
    928 512 o
    928 474 o
    927 435 o
    926 397 o
    924 362 o
    920 327 o
    915 292 o
    908 259 o
    899 227 o
    888 195 o
    870 157 o
    848 122 o
    822 89 o
    791 59 o
    756 34 o
    718 13 o
    673 -3 o
    625 -13 o
    576 -16 o
    527 -13 o
    479 -3 o
    434 13 o
    396 34 o
    361 59 o
    330 89 o
    304 122 o
    282 157 o
    264 195 o
    253 227 o
    244 259 o
    237 292 o
    232 327 o
    228 362 o
    226 397 o
    225 435 o
    224 474 o
    224 512 o
    224 550 o
    225 589 o
    226 627 o
    228 662 o
    232 697 o
    237 732 o
    244 765 o
    253 797 o
    264 829 o
    282 867 o
    304 902 o
    330 935 o
    361 965 o
    396 990 o
    434 1011 o
    479 1027 o
    527 1037 o
    0 0 z
  EndSpiro
576 920 m 0
 491.500976562 920 434.782226562 880.723632812 399.9921875 822 c 0
 353.896484375 744.192382812 352 629.319335938 352 512 c 0
 352 394.680664062 353.896484375 279.807617188 399.9921875 202 c 0
 434.782226562 143.276367188 491.500976562 104 576 104 c 0
 660.499023438 104 717.217773438 143.276367188 752.0078125 202 c 0
 798.103515625 279.807617188 800 394.680664062 800 512 c 0
 800 629.319257398 798.103924139 744.1927602 752.007776121 821.999996061 c 0
 717.217379868 880.723873939 660.498532164 920 576 920 c 0
  Spiro
    576 920 o
    547 918 o
    519 913 o
    491 904 o
    468 892 o
    446 877 o
    427 858 o
    410 837 o
    396 814 o
    384 789 o
    374 762 o
    367 735 o
    362 707 o
    358 676 o
    355 644 o
    354 612 o
    353 579 o
    352 545 o
    352 512 o
    352 479 o
    353 445 o
    354 412 o
    355 380 o
    358 348 o
    362 317 o
    367 289 o
    374 262 o
    384 235 o
    396 210 o
    410 187 o
    427 166 o
    446 147 o
    468 132 o
    491 120 o
    519 111 o
    547 106 o
    576 104 o
    605 106 o
    633 111 o
    661 120 o
    684 132 o
    706 147 o
    725 166 o
    742 187 o
    756 210 o
    768 235 o
    778 262 o
    785 289 o
    790 317 o
    794 348 o
    797 380 o
    798 412 o
    799 445 o
    800 479 o
    800 512 o
    800 545 o
    799 579 o
    798 612 o
    797 644 o
    794 676 o
    790 707 o
    785 735 o
    778 762 o
    768 789 o
    756 814 o
    742 837 o
    725 858 o
    706 877 o
    684 892 o
    661 904 o
    633 913 o
    547 918 o
    519 913 o
    491 904 o
    468 892 o
    446 877 o
    427 858 o
    410 837 o
    396 814 o
    384 789 o
    374 762 o
    367 735 o
    362 707 o
    358 676 o
    355 644 o
    354 612 o
    353 579 o
    352 545 o
    352 512 o
    352 479 o
    353 445 o
    354 412 o
    355 380 o
    358 348 o
    362 317 o
    367 289 o
    374 262 o
    384 235 o
    396 210 o
    410 187 o
    427 166 o
    446 147 o
    468 132 o
    491 120 o
    519 111 o
    547 106 o
    576 104 o
    605 106 o
    633 111 o
    661 120 o
    684 132 o
    706 147 o
    725 166 o
    742 187 o
    756 210 o
    768 235 o
    778 262 o
    785 289 o
    790 317 o
    794 348 o
    797 380 o
    798 412 o
    799 445 o
    800 479 o
    800 512 o
    800 545 o
    799 579 o
    798 612 o
    797 644 o
    794 676 o
    790 707 o
    785 735 o
    778 762 o
    768 789 o
    756 814 o
    742 837 o
    725 858 o
    706 877 o
    684 892 o
    661 904 o
    633 913 o
    605 918 o
    576 104 o
    605 106 o
    633 111 o
    661 120 o
    684 132 o
    706 147 o
    725 166 o
    742 187 o
    756 210 o
    768 235 o
    778 262 o
    785 289 o
    790 317 o
    794 348 o
    797 380 o
    798 412 o
    799 445 o
    800 479 o
    800 512 o
    800 545 o
    799 579 o
    798 612 o
    797 644 o
    794 676 o
    790 707 o
    785 735 o
    778 762 o
    768 789 o
    756 814 o
    742 837 o
    725 858 o
    706 877 o
    684 892 o
    661 904 o
    633 913 o
    605 918 o
    576 920 o
    547 918 o
    519 913 o
    491 904 o
    468 892 o
    446 877 o
    427 858 o
    410 837 o
    396 814 o
    384 789 o
    374 762 o
    367 735 o
    362 707 o
    358 676 o
    355 644 o
    354 612 o
    353 579 o
    352 545 o
    352 512 o
    352 479 o
    353 445 o
    354 412 o
    355 380 o
    358 348 o
    362 317 o
    367 289 o
    374 262 o
    384 235 o
    396 210 o
    410 187 o
    427 166 o
    446 147 o
    468 132 o
    491 120 o
    519 111 o
    547 106 o
    633 111 o
    661 120 o
    684 132 o
    706 147 o
    725 166 o
    742 187 o
    756 210 o
    768 235 o
    778 262 o
    785 289 o
    790 317 o
    794 348 o
    797 380 o
    798 412 o
    799 445 o
    800 479 o
    800 512 o
    800 545 o
    799 579 o
    798 612 o
    797 644 o
    794 676 o
    790 707 o
    785 735 o
    778 762 o
    768 789 o
    756 814 o
    742 837 o
    725 858 o
    706 877 o
    684 892 o
    661 904 o
    633 913 o
    605 918 o
    576 920 o
    547 918 o
    519 913 o
    491 904 o
    468 892 o
    446 877 o
    427 858 o
    410 837 o
    396 814 o
    384 789 o
    374 762 o
    367 735 o
    362 707 o
    358 676 o
    355 644 o
    354 612 o
    353 579 o
    352 545 o
    352 512 o
    352 479 o
    353 445 o
    354 412 o
    355 380 o
    358 348 o
    362 317 o
    367 289 o
    374 262 o
    384 235 o
    396 210 o
    410 187 o
    427 166 o
    446 147 o
    468 132 o
    491 120 o
    519 111 o
    547 106 o
    0 0 z
  EndSpiro
EndSplineSet
Layer: 2
SplineSet
576 620 m 4
 745.649680398 620 864 501.930930398 864 332 c 4
 864 162.069069602 745.649680398 44 576 44 c 4
 406.350319602 44 288 162.069069602 288 332 c 4
 288 501.930930398 406.350319602 620 576 620 c 4
  Spiro
    576 620 o
    725.939 583.167 o
    827.105 482.063 o
    864 332 o
    827.105 181.937 o
    725.939 80.8329 o
    576 44 o
    426.061 80.8329 o
    324.895 181.937 o
    288 332 o
    324.895 482.063 o
    426.061 583.167 o
    0 0 z
  EndSpiro
576 980 m 4
 745.649680398 980 864 861.930930398 864 692 c 4
 864 522.069069602 745.649680398 404 576 404 c 4
 406.350319602 404 288 522.069069602 288 692 c 4
 288 861.930930398 406.350319602 980 576 980 c 4
  Spiro
    576 980 o
    725.939 943.167 o
    827.105 842.063 o
    864 692 o
    827.105 541.937 o
    725.939 440.833 o
    576 404 o
    426.061 440.833 o
    324.895 541.937 o
    288 692 o
    324.895 842.063 o
    426.061 943.167 o
    0 0 z
  EndSpiro
EndSplineSet
Layer: 3
SplineSet
576 980 m 0
 567.324724123 980 558.648756819 979.677803086 550 979 c 0
 500.14705605 975.093024703 451.039999149 957.918629526 411.358993265 927.488410196 c 0
 371.677987381 897.058190866 342.166566355 854.502829358 323.553962577 808.089992158 c 0
 304.941358799 761.677154957 296.557710164 711.747219037 292.442706941 661.91101508 c 0
 288.327703719 612.074811123 288 562.005804427 288 512 c 1
 288 461.994195573 288.327703721 411.925188876 292.442706944 362.088984919 c 0
 296.557710167 312.252780961 304.941358804 262.322845041 323.553962582 215.91000784 c 0
 342.16656636 169.497170641 371.677987385 126.941809133 411.358993268 96.5115898039 c 0
 451.039999151 66.0813704744 500.147056051 48.9069752969 550 45 c 0
 558.648756819 44.3221969143 567.324724123 44 576 44 c 0
 584.675275877 44 593.351243181 44.3221969143 602 45 c 0
 651.85294395 48.9069752967 700.960000851 66.0813704743 740.641006735 96.5115898041 c 0
 780.322012619 126.941809134 809.833433645 169.497170642 828.446037423 215.910007842 c 0
 847.058641201 262.322845043 855.442289836 312.252780963 859.557293059 362.08898492 c 0
 863.672296281 411.925188877 864 461.994195573 864 512 c 1
 864 562.005804427 863.672296279 612.074811124 859.557293056 661.911015081 c 0
 855.442289833 711.747219039 847.058641196 761.677154959 828.446037418 808.08999216 c 0
 809.83343364 854.502829359 780.322012615 897.058190867 740.641006732 927.488410196 c 0
 700.960000849 957.918629526 651.852943949 975.093024703 602 979 c 0
 593.351243181 979.677803086 584.675275877 980 576 980 c 0
  Spiro
    576 980 o
    550 979 o
    288 512 o
    550 45 o
    576 44 o
    602 45 o
    864 512 o
    602 979 o
    0 0 z
  EndSpiro
EndSplineSet
Layer: 4
EndChar
StartChar: s
Encoding: 115 115 19
GlifName: s
Width: 1024
VWidth: 0
Flags: W
HStem: -16 120<260.105 718.09> 920 120<413.623 881.877>
VStem: 234 128<682.122 869.649> 800 128<182.656 430.344>
AnchorPoint: "bottom" 704 0 basechar 0
AnchorPoint: "top" 576 1024 basechar 0
LayerCount: 5
Back
Fore
SplineSet
567 -16 m 0
 464 -16 345 -4 256 6 c 1
 256 126 l 1
 341 116 470 104 567 104 c 0
 755 104 800 228 800 308 c 0
 800 390 757 449 700 478 c 0
 614 522 507 499 402 540 c 0
 318 573 234 655 234 776 c 0
 234 913 343 1040 572 1040 c 0
 689 1040 799 1028 886 1019 c 1
 886 899 l 1
 798 908 675 920 572 920 c 0
 410 920 362 842 362 776 c 0
 362 713 404 670 450 652 c 0
 543 616 654 640 762 584 c 0
 855 536 928 438 928 308 c 0
 928 145 810 -16 567 -16 c 0
EndSplineSet
Validated: 1
Layer: 2
SplineSet
576 980 m 4
 739.759066495 980 854 897.597628507 854 779 c 4
 854 660.402371493 739.759066495 578 576 578 c 4
 412.240933505 578 298 660.402371493 298 779 c 4
 298 897.597628507 412.240933505 980 576 980 c 4
576 578 m 4
 745.649680398 578 864 468.54013339 864 311 c 4
 864 153.45986661 745.649680398 44 576 44 c 4
 406.350319602 44 288 153.45986661 288 311 c 4
 288 468.54013339 406.350319602 578 576 578 c 4
EndSplineSet
Layer: 3
SplineSet
140 113 m 4
 185.762691318 101.947687501 231.78739135 91.9873427671 278 83 c 4
 327.493012513 73.3746903491 377.153572464 64.5854159654 427 57 c 4
 473.275595525 49.9579779644 519.902994027 43.9187396477 566.684503277 43.9187396477 c 4
 569.789009423 43.9187396477 572.894194256 43.9453357968 576 44 c 4
 614.901010439 44.684683111 653.952155312 50.0764336248 690.658601803 62.9758208232 c 4
 727.365048295 75.8752080215 761.510102351 96.4670573424 789 124 c 4
 838.016068617 173.092820343 864.004774862 242.680943577 864.004774862 312.660323432 c 4
 864.004774862 358.769164278 852.956597373 405.08222165 830.368083987 445.273246023 c 4
 807.508426076 485.946709236 772.430457955 519.542793211 731 541 c 4
 684.595689907 565.033209544 631.826916886 573.393941586 579.825905344 578.57563579 c 4
 527.824893802 583.757329994 474.791179124 587.28166685 426 606 c 4
 390.25200955 619.714421473 357.260601722 641.843930531 333.88754017 672.170555323 c 4
 311.0322082 701.825424267 297.979869429 739.027078107 297.979869429 776.456152707 c 4
 297.979869429 808.17764749 306.815536927 838.202335486 322.462069449 864.896442057 c 4
 337.684277939 890.8666214 359.194161545 912.946078899 384 930 c 4
 438.196867271 967.260143415 505.916806735 980.017443723 571.771003965 980.017443723 c 4
 573.181575723 980.017443723 574.591291478 980.011590673 576 980 c 4
 618.601902266 979.649477026 661.040229894 974.377169896 703 967 c 4
 744.277949276 959.742704643 785.170704155 950.460762818 826 941 c 4
 867.353023672 931.417881556 908.660806454 921.641609702 950 912 c 1028
  Spiro
    140 113 {
    278 83 o
    427 57 o
    576 44 o
    789 124 o
    864 311 o
    731 541 o
    426 606 o
    298 779 o
    384 930 o
    576 980 o
    703 967 o
    826 941 o
    950 912 o
    0 0 z
  EndSpiro
EndSplineSet
Layer: 4
Position2: "Single Positioning lookup 19 subtable" dx=-128 dy=0 dh=0 dv=0
Position2: "Single Positioning lookup 18 subtable" dx=-128 dy=0 dh=0 dv=0
Position2: "Single Positioning lookup 17 subtable" dx=0 dy=0 dh=0 dv=0
Position2: "Single Positioning lookup 14 subtable" dx=-128 dy=0 dh=0 dv=0
Position2: "Single Positioning lookup 9 subtable" dx=128 dy=0 dh=0 dv=0
Position2: "Single Positioning lookup 8 subtable" dx=128 dy=0 dh=0 dv=0
Position2: "Single Positioning lookup 7 subtable" dx=0 dy=0 dh=0 dv=0
Position2: "Single Positioning lookup 3 subtable" dx=128 dy=0 dh=0 dv=0
EndChar
StartChar: t
Encoding: 116 116 20
GlifName: t
Width: 1024
VWidth: 0
Flags: W
HStem: -16 120<579.511 893.297> 898 126<128 384 512 896>
VStem: 384 128<172.568 898 1024 1280>
LayerCount: 5
Back
Fore
SplineSet
896 -1 m 5
 836 -9 769 -16 694 -16 c 4
 588 -16 504 29 452 92 c 4
 384 174 384 271 384 360 c 6
 384 898 l 5
 128 898 l 5
 128 1024 l 5
 384 1024 l 5
 384 1280 l 5
 512 1280 l 5
 512 1024 l 5
 896 1024 l 5
 896 898 l 5
 512 898 l 5
 512 370 l 6
 512 284 512 218 555 166 c 4
 587 128 637 104 704 104 c 4
 772 104 841 112 896 119 c 5
 896 -1 l 5
EndSplineSet
Validated: 1
Layer: 2
Layer: 3
Layer: 4
Substitution2: "Single Substitution lookup 51 subtable" larsenwork
EndChar
StartChar: u
Encoding: 117 117 21
GlifName: u
Width: 1024
VWidth: 0
Flags: W
HStem: -16 120<451.475 677.001> 0 21G<768 896> 1004 20G<256 384 768 896>
VStem: 256 128<170.905 1024> 768 128<0 112 170.905 1024>
AnchorPoint: "bottom" 832 0 basechar 0
AnchorPoint: "top" 576 1024 basechar 0
LayerCount: 5
Back
Fore
SplineSet
556 -16 m 0xb8
 456 -16 375 29 325 91 c 0
 256 177 256 273 256 367 c 2
 256 1024 l 1
 384 1024 l 1
 384 367 l 2
 384 280 384 218 429 166 c 0
 461 129 512 104 576 104 c 0xb8
 640 104 691 129 723 166 c 0
 768 218 768 280 768 367 c 2
 768 1024 l 1
 896 1024 l 1
 896 0 l 1
 768 0 l 1x78
 768 112 l 1
 758 112 l 1
 709 35 632 -16 556 -16 c 0xb8
EndSplineSet
Validated: 1
Layer: 2
Layer: 3
Layer: 4
Position2: "Single Positioning lookup 19 subtable" dx=-128 dy=0 dh=0 dv=0
Position2: "Single Positioning lookup 18 subtable" dx=-128 dy=0 dh=0 dv=0
Position2: "Single Positioning lookup 17 subtable" dx=0 dy=0 dh=0 dv=0
Position2: "Single Positioning lookup 14 subtable" dx=-128 dy=0 dh=0 dv=0
Position2: "Single Positioning lookup 9 subtable" dx=128 dy=0 dh=0 dv=0
Position2: "Single Positioning lookup 8 subtable" dx=128 dy=0 dh=0 dv=0
Position2: "Single Positioning lookup 7 subtable" dx=0 dy=0 dh=0 dv=0
Position2: "Single Positioning lookup 3 subtable" dx=128 dy=0 dh=0 dv=0
EndChar
StartChar: v
Encoding: 118 118 1
Width: 1024
VWidth: 0
Flags: W
HStem: 0 21G<438.5 713.5> 1004 20G<204 363 789 948>
VStem: 204 131<844.09 1024> 817 131<844.09 1024>
LayerCount: 5
Back
SplineSet
208 1348 m 5
 263 1058 l 6
 330.273416248 703.285623421 417.514412723 349.39223189 576 25 c 5
 734.485587277 349.39223189 821.726583752 703.285623421 889 1058 c 6
 944 1348 l 1029
  Spiro
    208 1348 {
    263 1058 ]
    576 25 v
    889 1058 [
    944 1348 o
    0 0 z
  EndSpiro
EndSplineSet
Fore
SplineSet
581 168 m 5
 693 441 761 730 817 1024 c 5
 948 1024 l 5
 881 675 793 325 634 0 c 5
 518 0 l 5
 359 325 271 675 204 1024 c 5
 335 1024 l 5
 391 730 460 439 571 168 c 5
 581 168 l 5
EndSplineSet
Layer: 2
Layer: 3
Layer: 4
EndChar
StartChar: v
Encoding: 118 118 1
GlifName: v
Width: 1024
VWidth: 0
Flags: W
HStem: 0 21G<438.5 713.5> 1004 20G<204 363 789 948>
VStem: 204 131<831.671 1024> 817 131<831.895 1024>
AnchorPoint: "top" 576 1024 basechar 0
LayerCount: 5
Back
Fore
SplineSet
581 168 m 1
 693 441 761 730 817 1024 c 1
 948 1024 l 1
 881 675 793 325 634 0 c 1
 518 0 l 1
 359 325 271 675 204 1024 c 1
 335 1024 l 1
 391 730 460 439 571 168 c 1
 581 168 l 1
EndSplineSet
Validated: 1
Layer: 2
SplineSet
208 1348 m 5
 263 1058 l 6
 330.273416248 703.285623421 417.514412723 349.39223189 576 25 c 5
 734.485587277 349.39223189 821.726583752 703.285623421 889 1058 c 6
 944 1348 l 1029
  Spiro
    208 1348 {
    263 1058 ]
    576 25 v
    889 1058 [
    944 1348 o
    0 0 z
  EndSpiro
EndSplineSet
Layer: 3
Layer: 4
Position2: "Single Positioning lookup 19 subtable" dx=-128 dy=0 dh=0 dv=0
Position2: "Single Positioning lookup 18 subtable" dx=-128 dy=0 dh=0 dv=0
Position2: "Single Positioning lookup 17 subtable" dx=0 dy=0 dh=0 dv=0
Position2: "Single Positioning lookup 14 subtable" dx=-128 dy=0 dh=0 dv=0
Position2: "Single Positioning lookup 9 subtable" dx=128 dy=0 dh=0 dv=0
Position2: "Single Positioning lookup 8 subtable" dx=128 dy=0 dh=0 dv=0
Position2: "Single Positioning lookup 7 subtable" dx=0 dy=0 dh=0 dv=0
Position2: "Single Positioning lookup 3 subtable" dx=128 dy=0 dh=0 dv=0
EndChar
StartChar: w
Encoding: 119 119 22
Width: 1024
VWidth: 0
Flags: W
HStem: 0 21G<208.497 417.417 734.583 943.503> 1004 20G<109 237 915 1043>
VStem: 109 128<611.125 1024> 915 128<611.125 1024>
LayerCount: 5
Back
Fore
SplineSet
514 767 m 1
 638 767 l 1
 802 140 l 1
 812 140 l 1
 883 413 915 717 915 1024 c 1
 1043 1024 l 1
 1043 680 993.006578947 339 894 0 c 1
 740 0 l 1
 581 587 l 1
 571 587 l 1
 412 0 l 1
 258 0 l 1
 158.993421053 339 109 680 109 1024 c 5
 237 1024 l 1
 237 717 269 413 340 140 c 1
 350 140 l 1
 514 767 l 1
EndSplineSet
Layer: 2
SplineSet
1074 1124 m 5
 832 14 l 5
 576 1009 l 5
 320 14 l 5
 78 1124 l 1029
EndSplineSet
Layer: 3
Layer: 4
Substitution2: "'ss06' Style Set 6 lookup 7-1" w.alt
EndChar
StartChar: x
Encoding: 120 120 23
GlifName: x
Width: 1024
VWidth: 0
Flags: W
HStem: 0 21G<159 337.893 814.107 993> 1004 20G<181 359.737 792.263 971>
LayerCount: 5
Back
Fore
SplineSet
571 644 m 1
 581 644 l 1
 804 1024 l 1
 971 1024 l 1
 650 551 l 1
 650 541 l 1
 993 0 l 1
 825 0 l 1
 581 448 l 1
 571 448 l 1
 327 0 l 1
 159 0 l 1
 502 541 l 1
 502 551 l 1
 181 1024 l 1
 348 1024 l 1
 571 644 l 1
EndSplineSet
Layer: 2
SplineSet
1152 -144 m 5
 128 1196 l 1029
128 -144 m 5
 1152 1196 l 1029
EndSplineSet
Layer: 3
Layer: 4
EndChar
StartChar: y
Encoding: 121 121 24
Width: 1024
VWidth: 0
Flags: W
HStem: -400 114<256 436.156> 1004 20G<201 357.5 791.5 951>
VStem: 201 135<757.828 1024> 816 135<837.091 1024>
LayerCount: 5
Back
Fore
SplineSet
497 0 m 5
 317 328 241 663 201 1024 c 5
 336 1024 l 5
 379 651 458 332 592 78 c 5
 602 78 l 5
 701 406 767 720 816 1024 c 5
 951 1024 l 5
 866 580 772 142 616 -273 c 4
 596 -327 547 -371 474 -385 c 4
 415 -396 341 -400 256 -400 c 5
 256 -286 l 5
 339 -286 399 -285 438 -278 c 4
 470 -272 490 -247 505 -214 c 4
 539 -139 560 -79 585 0 c 5
 497 0 l 5
EndSplineSet
Layer: 2
Layer: 3
SplineSet
596 -54 m 5
 466 -358 l 6
 457.563898426 -377.727499064 448.453103785 -397.460990346 434.85359019 -414.056027528 c 4
 421.254076596 -430.65106471 403.53896582 -443.783312939 383.822117037 -452.244276427 c 4
 364.105268254 -460.705239913 342.71200732 -464.662751865 321.32882854 -466.42391464 c 4
 299.94564976 -468.185077414 278.455582701 -468.000000003 257 -468 c 6
 256 -468 l 1029
  Spiro
    596 -54 {
    466 -358 ]
    257 -468 [
    256 -468 o
    0 0 z
  EndSpiro
EndSplineSet
Layer: 4
EndChar
StartChar: z
Encoding: 122 122 25
GlifName: z
Width: 1024
VWidth: 0
Flags: W
HStem: 0 120<401 896> 904 120<276 731>
LayerCount: 5
Back
Fore
SplineSet
276 904 m 1
 276 1024 l 1
 876 1024 l 1
 876 934 l 1
 401 130 l 1
 401 120 l 1
 896 120 l 1
 896 0 l 1
 256 0 l 1
 256 92 l 1
 731 894 l 1
 731 904 l 1
 276 904 l 1
EndSplineSet
Validated: 1
Layer: 2
Layer: 3
Layer: 4
Position2: "Single Positioning lookup 21 subtable" dx=-128 dy=0 dh=0 dv=0
Position2: "Single Positioning lookup 20 subtable" dx=-64 dy=0 dh=0 dv=0
Position2: "Single Positioning lookup 19 subtable" dx=0 dy=0 dh=0 dv=0
Position2: "Single Positioning lookup 12 subtable" dx=-64 dy=0 dh=0 dv=0
Position2: "Single Positioning lookup 9 subtable" dx=0 dy=0 dh=0 dv=0
Position2: "Single Positioning lookup 7 subtable" dx=128 dy=0 dh=0 dv=0
Position2: "Single Positioning lookup 6 subtable" dx=64 dy=0 dh=0 dv=0
Position2: "Single Positioning lookup 5 subtable" dx=0 dy=0 dh=0 dv=0
Position2: "Single Positioning lookup 2 subtable" dx=128 dy=0 dh=0 dv=0
EndChar
StartChar: braceleft
Encoding: 123 123 91
Width: 1024
VWidth: 0
Flags: W
HStem: -144 120<723.824 896> 643 120<256 428.176> 1430 120<723.824 896>
VStem: 512 128<49.026 569.974 836.026 1356.97>
CounterMasks: 1 e0
LayerCount: 5
Back
Fore
SplineSet
481 698 m 1
 540 674 591 637 615 585 c 0
 640 531 640 484 640 416 c 2
 640 203 l 2
 640 145 640 112 654 83 c 0
 689 10 798 -24 896 -24 c 1
 896 -144 l 1
 744 -144 592 -84 537 34 c 0
 512 88 512 135 512 203 c 2
 512 416 l 2
 512 474 512 507 498 536 c 0
 463 609 354 643 256 643 c 1
 256 763 l 1
 354 763 463 797 498 870 c 0
 512 899 512 932 512 990 c 2
 512 1203 l 2
 512 1271 512 1318 537 1372 c 0
 592 1490 744 1550 896 1550 c 1
 896 1430 l 1
 798 1430 689 1396 654 1323 c 0
 640 1294 640 1261 640 1203 c 2
 640 990 l 2
 640 922 640 875 615 821 c 0
 591 769 540 732 481 708 c 1
 481 698 l 1
EndSplineSet
Layer: 2
SplineSet
256 703 m 5
 333.445417677 702.89678855 412.590410469 686.465515421 478 645 c 4
 510.941316011 624.117302879 539.571697007 595.426230467 556.378441743 560.230340495 c 4
 564.781814111 542.632395509 570.189315691 523.668689539 573.000642208 504.371001125 c 4
 575.811968726 485.073312712 576 465.501393153 576 446 c 6
 576 61 l 6
 576 41.4986068473 576.188031274 21.9266872881 578.999357792 2.62899887457 c 4
 581.810684309 -16.668689539 587.218185889 -35.632395509 595.621558257 -53.2303404953 c 4
 612.428302993 -88.4262304676 641.058683989 -117.117302879 674 -138 c 4
 739.409589531 -179.465515421 818.554582323 -195.89678855 896 -196 c 5
 -284 -340 l 5
 256 703 l 5
  Spiro
    256 703 v
    478 645 o
    576 446 [
    576 61 ]
    674 -138 o
    896 -196 v
    -284 -340 v
    0 0 z
  EndSpiro
EndSplineSet
Layer: 3
Layer: 4
EndChar
StartChar: bar
Encoding: 124 124 92
Width: 1024
VWidth: 0
Flags: W
VStem: 512 128<-128 1536>
LayerCount: 5
Back
Fore
SplineSet
640 1536 m 1
 640 -128 l 1
 512 -128 l 1
 512 1536 l 1
 640 1536 l 1
EndSplineSet
Validated: 1
Layer: 2
Layer: 3
Layer: 4
EndChar
StartChar: braceright
Encoding: 125 125 93
GlifName: braceright
Width: 1024
VWidth: 0
Flags: W
HStem: -144 120<256 437.387> 643 120<712.57 896> 1430 120<256 437.387>
VStem: 512 128<50.3779 571.896 834.191 1355.62>
CounterMasks: 1 e0
LayerCount: 5
Back
Fore
SplineSet
671 698 m 1
 671 708 l 1
 554 752 512 823 512 970 c 2
 512 1223 l 2
 512 1383 415 1430 256 1430 c 1
 256 1550 l 1
 483 1550 640 1454 640 1223 c 2
 640 970 l 2
 640 810 737 763 896 763 c 1
 896 643 l 1
 736 643 640 596 640 436 c 2
 640 183 l 2
 640 -48 483 -144 256 -144 c 1
 256 -24 l 1
 416 -24 512 23 512 183 c 2
 512 436 l 2
 512 583 554 654 671 698 c 1
EndSplineSet
Layer: 2
Layer: 3
Layer: 4
EndChar
StartChar: tilde
Encoding: 126 126 94
GlifName: tilde
Width: 1024
VWidth: 0
Flags: W
HStem: 380 120<691.74 863.798> 652 120<288.202 460.26>
VStem: 128 128<384 618.172> 896 128<533.828 768>
LayerCount: 5
Back
Fore
SplineSet
256 384 m 1
 128 384 l 1
 128 603 165 772 375 772 c 0
 602 772 636 500 777 500 c 0
 890 500 896 596 896 768 c 1
 1024 768 l 1
 1024 549 987 380 777 380 c 0
 550 380 516 652 375 652 c 0
 262 652 256 556 256 384 c 1
EndSplineSet
Validated: 1
Layer: 2
Layer: 3
Layer: 4
EndChar
StartChar: exclamdown
Encoding: 161 161 100
GlifName: exclamdown
Width: 1024
VWidth: 0
Flags: W
HStem: 880 288<474.535 677.465>
VStem: 432 288<922.535 1125.47> 502 148<-256 640>
LayerCount: 5
Back
Fore
SplineSet
576 1168 m 4xc0
 661 1168 720 1109 720 1024 c 4
 720 939 661 880 576 880 c 4
 491 880 432 939 432 1024 c 4
 432 1109 491 1168 576 1168 c 4xc0
640 640 m 5
 650 -256 l 5
 502 -256 l 5xa0
 512 640 l 5
 640 640 l 5
EndSplineSet
Validated: 1
Layer: 2
Layer: 3
Layer: 4
EndChar
StartChar: cent
Encoding: 162 162 538
Width: 1024
VWidth: 0
Flags: W
HStem: -14 118<456.153 512 640 873.139>
VStem: 224 128<219.663 804.337> 512 128<-256 -11.0703 1034.81 1280>
LayerCount: 5
Back
SplineSet
224 512 m 4
 224 633 226 738 264 831 c 4
 303.721197618 928.190164384 385.583019442 1010.38112354 512 1033.50762233 c 5
 512 1280 l 5
 640 1280 l 5
 640 1038.0047808 l 5
 706.352230707 1033.37625797 783.284758187 1020.91975262 876 1003 c 5
 876 880 l 5
 756 905 657 920 586 920 c 4
 485 920 420 872 384 789 c 4
 352 716 352 614 352 512 c 4
 352 410 352 308 384 235 c 4
 420 152 485 104 586 104 c 4
 662 104 768 121 896 148 c 5
 896 25 l 5
 795.374623419 4.3995292038 711.699311511 -9.29535968814 640 -14.0950409647 c 5
 640 -256 l 5
 512 -256 l 5
 512 -9.50762233044 l 5
 385.583019442 13.618876458 303.721197618 95.8098356161 264 193 c 4
 226 286 224 391 224 512 c 4
EndSplineSet
Fore
SplineSet
224 512 m 0
 224 633 226 738 264 831 c 0
 304 928 386 1011 512 1034 c 1
 512 1280 l 1
 640 1280 l 1
 640 1038 l 5
 711 1033 788 1021 876 1003 c 5
 876 880 l 5
 761 905 662 920 586 920 c 4
 485 920 420 872 384 789 c 0
 352 716 352 614 352 512 c 0
 352 410 352 308 384 235 c 0
 420 152 485 104 586 104 c 4
 667 104 773 121 896 148 c 5
 896 25 l 5
 800 4 717 -9 640 -14 c 5
 640 -256 l 1
 512 -256 l 1
 512 -10 l 1
 386 13 304 96 264 193 c 0
 226 286 224 391 224 512 c 0
EndSplineSet
Layer: 2
Layer: 3
Layer: 4
EndChar
StartChar: cent
Encoding: 162 162 538
Width: 1024
VWidth: 0
Flags: W
HStem: -14.095 118.095<450.753 512 640 890.016>
VStem: 224 128<209.809 814.191> 512 128<-256 -10.4702 1034.24 1280>
LayerCount: 5
Back
Fore
SplineSet
224 512 m 4
 224 633 226 738 264 831 c 4
 303.721197618 928.190164384 385.583019442 1010.38112354 512 1033.50762233 c 5
 512 1280 l 5
 640 1280 l 5
 640 1038.0047808 l 5
 706.352230707 1033.37625797 783.284758187 1020.91975262 876 1003 c 5
 876 880 l 5
 756 905 657 920 586 920 c 4
 485 920 420 872 384 789 c 4
 352 716 352 614 352 512 c 4
 352 410 352 308 384 235 c 4
 420 152 485 104 586 104 c 4
 662 104 768 121 896 148 c 5
 896 25 l 5
 795.374623419 4.3995292038 711.699311511 -9.29535968814 640 -14.0950409647 c 5
 640 -256 l 5
 512 -256 l 5
 512 -9.50762233044 l 5
 385.583019442 13.618876458 303.721197618 95.8098356161 264 193 c 4
 226 286 224 391 224 512 c 4
EndSplineSet
Layer: 2
Layer: 3
Layer: 4
EndChar
StartChar: sterling
Encoding: 163 163 433
Width: 1024
VWidth: 0
Flags: W
HStem: 0 120<128 256 384 896> 648 120<128 256 384 768> 1304 120<488.365 861.211>
VStem: 256 128<120 648 768 1188.15>
LayerCount: 5
Back
Fore
SplineSet
256 120 m 1
 256 648 l 1
 128 648 l 1
 128 768 l 1
 256 768 l 1
 256 896 l 2
 256 1017 258 1122 296 1215 c 0
 343 1330 449 1424 618 1424 c 0
 685 1424 764 1411 866 1389 c 1
 866 1266 l 1
 763 1290 679 1304 618 1304 c 0
 517 1304 452 1256 416 1173 c 0
 384 1100 384 998 384 896 c 2
 384 768 l 1
 768 768 l 1
 768 648 l 1
 384 648 l 1
 384 120 l 1
 896 120 l 1
 896 0 l 1
 128 0 l 1
 128 120 l 1
 256 120 l 1
EndSplineSet
Layer: 2
Layer: 3
Layer: 4
EndChar
StartChar: dieresis
Encoding: 168 168 315
GlifName: dieresis
Width: 1024
VWidth: 0
Flags: W
HStem: 1136 224<262.609 441.391 710.609 889.391>
VStem: 240 224<1158.61 1337.39> 688 224<1158.61 1337.39>
LayerCount: 5
Back
Fore
SplineSet
800 1360 m 0
 866 1360 912 1314 912 1248 c 0
 912 1182 866 1136 800 1136 c 0
 734 1136 688 1182 688 1248 c 0
 688 1314 734 1360 800 1360 c 0
352 1360 m 0
 418 1360 464 1314 464 1248 c 0
 464 1182 418 1136 352 1136 c 0
 286 1136 240 1182 240 1248 c 0
 240 1314 286 1360 352 1360 c 0
EndSplineSet
Layer: 2
Layer: 3
Layer: 4
EndChar
StartChar: ordfeminine
Encoding: 170 170 537
Width: 1024
VWidth: 0
Flags: W
HStem: 752 120<408.499 585.021> 1152 120<407.314 640> 1409 21G<276 315> 1432 120<279.679 617.455>
VStem: 244 128<905.632 1116.74> 640 128<768 835 925.013 1152 1272 1409.4>
LayerCount: 5
Back
SplineSet
670 1212 m 1
 524 1212 l 2
 490.377285181 1212 456.09221627 1210.59631746 424.615276293 1198.77729883 c 0
 393.138336317 1186.95828019 365.499733587 1165.39064333 346 1138 c 0
 320.063595151 1101.56797332 307.999446692 1056.25057104 307.999446692 1011.52465575 c 0
 307.999446692 965.729092755 320.759545085 919.605930944 348 883 c 0
 364.088370904 861.380324552 385.141925693 843.445000217 409.171198478 831.244996356 c 0
 433.200471264 819.044992495 460.058157628 812.619010848 487 812 c 0
 498.029772171 811.74658197 509.078370262 812.438558769 520 814 c 0
 552.61150239 818.662394319 584.134090259 831.010158519 611.100534677 849.932602451 c 0
 638.066979095 868.855046382 660.181746196 894.577774334 675 924 c 0
 690.824071732 955.419316716 698.232061556 990.490554624 701.354343141 1025.53090375 c 0
 703.746336284 1052.37546358 704.026074818 1079.34281672 704.026074818 1106.30724196 c 0
 704.026074818 1114.53962681 704 1122.77173874 704 1131 c 2
 704 1290 l 2
 704 1319.15701392 703.478214136 1348.70305666 695.508959537 1376.74984688 c 0
 687.539704937 1404.7966371 671.978197134 1430.84039898 650 1450 c 0
 631.837301915 1465.83342103 609.746690834 1476.85680072 586.540372448 1483.34121359 c 0
 563.334054063 1489.82562647 539.095227975 1491.97150065 515 1492 c 0
 514.482600246 1492.0003057 l 0
 488.258283453 1492.0003057 462.090975704 1489.64877801 436 1487 c 0
 392.968629804 1482.63141876 349.995178874 1477.7114665 307 1473 c 0
 264.296449113 1468.32049046 221.619052042 1463.395134 179 1458 c 1024
  Spiro
    670 1212 {
    524 1212 ]
    346 1138 o
    308 1011 o
    348 883 o
    487 812 o
    520 814 o
    675 924 o
    704 1131 [
    704 1290 ]
    650 1450 o
    515 1492 o
    436 1487 o
    307 1473 o
    179 1458 o
    0 0 z
  EndSpiro
EndSplineSet
Fore
SplineSet
640 1106 m 2
 640 1152 l 1
 524 1152 l 2
 492 1152 466 1150 448 1143 c 0
 402 1126 372 1074 372 1012 c 0
 372 937 416 872 489 872 c 0
 551 872 595 907 617 950 c 0
 637 990 640 1045 640 1106 c 2
630 835 m 1
 585.254901961 782.88372093 541.254810549 752 467 752 c 4
 340.016460905 752 244 872 244 1012 c 0
 244 1125 310 1220 401 1254 c 0
 446 1271 489 1272 524 1272 c 2
 640 1272 l 1
 640 1305 640 1339 634 1361 c 0
 620 1411 579 1432 515 1432 c 0
 434 1432 354 1418 276 1409 c 1
 276 1530 l 1
 355 1539 430 1552 515 1552 c 0
 641 1552 728 1491 757 1392 c 0
 768 1354 768 1320 768 1290 c 2
 768 768 l 1
 640 768 l 1
 640 835 l 1
 630 835 l 1
EndSplineSet
Layer: 2
SplineSet
532 1492 m 0
 633.31875 1492 704 1421.48671875 704 1320 c 0
 704 1218.51328125 633.31875 1148 532 1148 c 0
 418.9 1148 340 1218.51328125 340 1320 c 0
 340 1421.48671875 418.9 1492 532 1492 c 0
466 1288 m 0
 606.196567156 1288 704 1190.42898903 704 1050 c 0
 704 909.571010969 614.415343026 812 486 812 c 0
 345.803432844 812 248 909.571010969 248 1050 c 0
 248 1190.42898903 337.584656974 1288 466 1288 c 0
486 1212 m 0
 564.934503293 1212 620 1130.00800398 620 1012 c 0
 620 893.991996017 564.934503293 812 486 812 c 0
 390.508605957 812 308 893.991996017 308 1012 c 0
 308 1130.00800398 390.508605957 1212 486 1212 c 0
EndSplineSet
Layer: 3
SplineSet
640 1272 m 5
 640 1290 l 4
 640 1318.61230469 638.938476562 1342.74902344 633.665039062 1361.30664062 c 4
 628.446289062 1379.67480469 618.255859375 1395.7421875 606.418945312 1406.06054688 c 4
 596.385742188 1414.80664062 583.182617188 1421.67089844 568.258789062 1425.84082031 c 4
 553.073242188 1430.08398438 535.045898438 1431.9765625 514.959960938 1432 c 5
 491.627929688 1432 468.897460938 1429.98925781 442.890625 1427.34960938 c 4
 400.438476562 1423.0390625 357.64453125 1418.14160156 314.4296875 1413.40625 c 4
 271.986328125 1408.75488281 229.6875 1403.87207031 187.564453125 1398.54003906 c 5
 170.435546875 1517.4609375 l 5
 213.55078125 1522.91894531 256.607421875 1527.88671875 299.5703125 1532.59472656 c 4
 342.345703125 1537.28222656 385.499023438 1542.22363281 429.109375 1546.65136719 c 4
 456.21484375 1549.40332031 483.350585938 1552 515.040039062 1552 c 5
 543.145507812 1551.96679688 573.594726562 1549.56738281 604.821289062 1540.84082031 c 4
 636.311523438 1532.04199219 667.288085938 1516.86035156 693.581054688 1493.94042969 c 4
 725.701171875 1465.93847656 746.633789062 1429.91992188 757.352539062 1392.19335938 c 4
 768.018554688 1354.65625 768 1319.70117188 768 1290 c 4
 768 1131 l 4
 768 1122.89160156 768.026367188 1114.65917969 768.026367188 1106.30761719 c 4
 768.026367188 1078.95703125 767.78515625 1050.31640625 765.1328125 1020.53710938 c 4
 761.616210938 981.077148438 753.264648438 938.87109375 732.873046875 898.381835938 c 4
 713.73046875 860.372070312 685.234375 827.006835938 649.450195312 801.897460938 c 4
 614.038085938 777.048828125 572.807617188 760.856445312 529.649414062 754.685546875 c 4
 515.1484375 752.61328125 500.364257812 751.674804688 485.430664062 752.018554688 c 4
 448.725585938 752.861328125 412.014648438 761.568359375 378.694335938 778.484375 c 4
 345.340820312 795.418945312 317.060546875 819.7109375 295.510742188 848.669921875 c 4
 259.19140625 897.477539062 243.999023438 955.587890625 243.999023438 1011.52539062 c 4
 243.999023438 1066.07714844 258.313476562 1122.91210938 292.767578125 1171.30761719 c 4
 319.086914062 1208.27832031 356.431640625 1237.80859375 400.8203125 1254.47558594 c 4
 445.637695312 1271.3046875 488.833007812 1272 524 1272 c 4
 640 1272 l 5
640 1152 m 5
 524 1152 l 4
 491.920898438 1152 466.545898438 1149.88769531 448.41015625 1143.078125 c 4
 429.845703125 1136.10742188 411.913085938 1122.50195312 399.232421875 1104.69140625 c 4
 381.813476562 1080.22363281 371.999023438 1046.42382812 371.999023438 1011.52539062 c 4
 371.999023438 975.87109375 382.328125 941.734375 400.489257812 917.329101562 c 4
 411.115234375 903.049804688 424.942382812 891.471679688 439.647460938 884.004882812 c 4
 454.385742188 876.522460938 471.391601562 872.376953125 488.569335938 871.982421875 c 4
 495.694335938 871.818359375 503.0078125 872.264648438 510.350585938 873.314453125 c 4
 532.415039062 876.46875 554.229492188 884.971679688 572.750976562 897.967773438 c 4
 590.900390625 910.703125 606.6328125 928.782226562 617.126953125 949.6171875 c 4
 628.383789062 971.96875 634.848632812 999.904296875 637.576171875 1030.52441406 c 4
 639.70703125 1054.43554688 640.026367188 1079.72851562 640.026367188 1106.30761719 c 4
 640.026367188 1114.41894531 640 1122.65136719 640 1131 c 4
 640 1152 l 5
EndSplineSet
Layer: 4
EndChar
StartChar: uni00AD
Encoding: 173 173 96
GlifName: uni00A_D_
Width: 1024
VWidth: 0
Flags: W
HStem: 644 120<256 896>
LayerCount: 5
Back
Fore
SplineSet
256 764 m 5
 896 764 l 5
 896 644 l 5
 256 644 l 5
 256 764 l 5
EndSplineSet
Validated: 1
Layer: 2
Layer: 3
Layer: 4
EndChar
StartChar: macron
Encoding: 175 175 318
GlifName: macron
Width: 1024
VWidth: 0
Flags: W
HStem: 1156 120<256 896>
LayerCount: 5
Back
Fore
SplineSet
256 1276 m 1
 896 1276 l 1
 896 1156 l 1
 256 1156 l 1
 256 1276 l 1
EndSplineSet
Layer: 2
Layer: 3
Layer: 4
EndChar
StartChar: plusminus
Encoding: 177 177 291
Width: 1024
VWidth: 0
Flags: W
HStem: 388 120<128 1024> 900 120<128 512 640 1024>
VStem: 512 128<640 900 1020 1280>
LayerCount: 5
Back
Fore
SplineSet
640 1020 m 1
 1024 1020 l 1
 1024 900 l 1
 640 900 l 1
 640 640 l 1
 512 640 l 1
 512 900 l 1
 128 900 l 1
 128 1020 l 1
 512 1020 l 1
 512 1280 l 1
 640 1280 l 1
 640 1020 l 1
128 508 m 1
 1024 508 l 1
 1024 388 l 1
 128 388 l 1
 128 508 l 1
EndSplineSet
Layer: 2
Layer: 3
Layer: 4
EndChar
StartChar: uni00B2
Encoding: 178 178 520
Width: 1024
VWidth: 0
Flags: W
HStem: 768 120<388 768> 1432 120<259.364 623.464>
VStem: 250 138<888 955.739> 652 128<1221.24 1401.22>
LayerCount: 5
Back
Fore
SplineSet
256 1525 m 5
 328.996047431 1540.21276596 408.71541502 1552 499 1552 c 4
 689.420664207 1552 780 1441 780 1317 c 4
 780 1167 661 1089 562 1039 c 4
 486 1001 413 967 388 898 c 5
 388 888 l 5
 768 888 l 5
 768 768 l 5
 250 768 l 5
 250 828 l 6
 250 991 372 1085 490 1141 c 4
 564 1176 652 1221 652 1317 c 4
 652 1355 638.461538462 1432 499 1432 c 4
 416.399209486 1432 326.114624506 1418.5 256 1405 c 5
 256 1525 l 5
EndSplineSet
Validated: 1
Layer: 2
Layer: 3
Layer: 4
EndChar
StartChar: paragraph
Encoding: 182 182 311
GlifName: paragraph
Width: 1024
VWidth: 0
Flags: W
HStem: 0 21G<512 640 768 896> 1288 120<640.299 768>
VStem: 240 400<839.817 1203.59> 512 128<0 666.114> 768 128<0 1288>
LayerCount: 5
Back
Fore
SplineSet
640 1288 m 1xd8
 640 0 l 1
 512 0 l 1
 512 655 l 1xd8
 356 695 240 831 240 1024 c 0xe8
 240 1220 360 1357 519 1395 c 0
 574 1408 626 1408 703 1408 c 2
 896 1408 l 1
 896 0 l 1
 768 0 l 1
 768 1288 l 1
 640 1288 l 1xd8
EndSplineSet
Layer: 2
Layer: 3
Layer: 4
EndChar
StartChar: periodcentered
Encoding: 183 183 95
Width: 1024
VWidth: 0
Flags: W
HStem: 560 288<410.603 613.397>
VStem: 368 288<602.548 805.452>
LayerCount: 5
Back
Fore
SplineSet
512 848 m 4
 596.825 848 656 788.965625 656 704 c 4
 656 619.034375 596.825 560 512 560 c 4
 427.175 560 368 619.034375 368 704 c 4
 368 788.965625 427.175 848 512 848 c 4
EndSplineSet
Layer: 2
Layer: 3
Layer: 4
EndChar
StartChar: cedilla
Encoding: 184 184 309
GlifName: cedilla
Width: 1024
VWidth: 0
Flags: W
HStem: -400 120<258.225 480.744> -20 20G<512 640>
VStem: 512 128<-233.261 0>
LayerCount: 5
Back
Fore
SplineSet
640 -105 m 2
 640 -165 640 -235 588 -305 c 0
 546 -362 474 -400 384 -400 c 0
 349 -400 303 -393 256 -383 c 1
 256 -260 l 1
 304 -271 350 -280 384 -280 c 0
 431 -280 463 -263 484 -235 c 0
 512 -198 512 -155 512 -105 c 2
 512 0 l 1
 640 0 l 1
 640 -105 l 2
EndSplineSet
Layer: 2
Layer: 3
Layer: 4
EndChar
StartChar: uni00B9
Encoding: 185 185 509
GlifName: uni00B_9
Width: 1024
VWidth: 0
Flags: W
VStem: 512 128<768 1378>
LayerCount: 5
Back
Fore
SplineSet
532 1536 m 5
 640 1536 l 5
 640 768 l 5
 512 768 l 5
 512 1378 l 5
 502 1378 l 5
 256 1246 l 5
 256 1380 l 5
 532 1536 l 5
EndSplineSet
Validated: 1
Layer: 2
Layer: 3
Layer: 4
EndChar
StartChar: ordmasculine
Encoding: 186 186 526
GlifName: ordmasculine
Width: 1024
VWidth: 0
Flags: W
HStem: 752 120<418.633 605.367> 1432 120<418.633 605.367>
VStem: 236 128<928.279 1375.72> 660 128<928.279 1375.72>
LayerCount: 5
Back
SplineSet
512 1492 m 0
 501.970148181 1492 491.937713604 1491.35638337 482 1490 c 0
 446.931650295 1485.21357444 413.13177304 1470.72520213 386.105184671 1447.87213797 c 0
 359.078596301 1425.0190738 339.127239472 1394.47464433 326.239250671 1361.51104675 c 0
 300.46327307 1295.58385159 300 1222.78697678 300 1152 c 0
 300 1081.21302321 300.463273071 1008.4161484 326.239250672 942.488953248 c 0
 339.127239472 909.52535567 359.078596302 878.980926195 386.105184671 856.12786203 c 0
 413.13177304 833.274797866 446.931650296 818.786425557 482 814 c 0
 491.937713604 812.64361663 501.970148181 812 512 812 c 0
 522.029851819 812 532.062286396 812.64361663 542 814 c 0
 577.068349705 818.786425557 610.86822696 833.274797866 637.894815329 856.127862031 c 0
 664.921403699 878.980926196 684.872760528 909.525355672 697.760749329 942.48895325 c 0
 723.53672693 1008.41614841 722.906841187 1143.27151724 724 1152 c 1
 724 1222.78697679 723.536726929 1295.5838516 697.760749328 1361.51104675 c 0
 684.872760528 1394.47464433 664.921403698 1425.01907381 637.894815329 1447.87213797 c 0
 610.86822696 1470.72520213 577.068349704 1485.21357444 542 1490 c 0
 532.062286396 1491.35638337 522.029851819 1492 512 1492 c 0
  Spiro
    512 1492 o
    482 1490 o
    300 1152 o
    482 814 o
    512 812 o
    542 814 o
    724 1152 o
    542 1490 o
    0 0 z
  EndSpiro
EndSplineSet
Fore
SplineSet
512 1552 m 0
 787 1552 788 1256 788 1152 c 0
 788 1048 787 752 512 752 c 0
 237 752 236 1048 236 1152 c 0
 236 1256 237 1552 512 1552 c 0
364 1152 m 0
 364 1025 373 872 512 872 c 0
 651 872 660 1025 660 1152 c 0
 660 1279 651 1432 512 1432 c 0
 373 1432 364 1279 364 1152 c 0
EndSplineSet
Layer: 2
SplineSet
576 620 m 4
 745.649680398 620 864 501.930930398 864 332 c 4
 864 162.069069602 745.649680398 44 576 44 c 4
 406.350319602 44 288 162.069069602 288 332 c 4
 288 501.930930398 406.350319602 620 576 620 c 4
  Spiro
    576 620 o
    725.939 583.167 o
    827.105 482.063 o
    864 332 o
    827.105 181.937 o
    725.939 80.8329 o
    576 44 o
    426.061 80.8329 o
    324.895 181.937 o
    288 332 o
    324.895 482.063 o
    426.061 583.167 o
    0 0 z
  EndSpiro
576 980 m 4
 745.649680398 980 864 861.930930398 864 692 c 4
 864 522.069069602 745.649680398 404 576 404 c 4
 406.350319602 404 288 522.069069602 288 692 c 4
 288 861.930930398 406.350319602 980 576 980 c 4
  Spiro
    576 980 o
    725.939 943.167 o
    827.105 842.063 o
    864 692 o
    827.105 541.937 o
    725.939 440.833 o
    576 404 o
    426.061 440.833 o
    324.895 541.937 o
    288 692 o
    324.895 842.063 o
    426.061 943.167 o
    0 0 z
  EndSpiro
EndSplineSet
Layer: 3
SplineSet
512 1552 m 4
 524.94921875 1552 538.0625 1551.16992188 551.223632812 1549.37304688 c 4
 598.625 1542.90332031 644.025390625 1523.48828125 680.759765625 1492.42578125 c 4
 717.231445312 1461.58789062 742.072265625 1422.51855469 757.8515625 1382.15917969 c 4
 788.768554688 1303.08496094 788 1222.68066406 788 1152 c 4
 788 1148.49121094 l 5
 787.7578125 1146.55957031 l 5
 786.924804688 1125.80371094 789.010742188 1001.53613281 757.8515625 921.83984375 c 4
 742.075195312 881.48828125 717.228515625 842.411132812 680.758789062 811.573242188 c 4
 644.025390625 780.510742188 598.629882812 761.096679688 551.220703125 754.625976562 c 4
 538.056640625 752.830078125 524.951171875 752 512 752 c 4
 499.049804688 752 485.939453125 752.830078125 472.782226562 754.625 c 4
 425.369140625 761.096679688 379.975585938 780.510742188 343.240234375 811.57421875 c 4
 306.767578125 842.413085938 281.927734375 881.48046875 266.1484375 921.83984375 c 4
 235.231445312 1000.91503906 236 1081.31933594 236 1152 c 4
 236 1222.6796875 235.231445312 1303.08496094 266.1484375 1382.16015625 c 4
 281.924804688 1422.51171875 306.770507812 1461.58984375 343.2421875 1492.42675781 c 4
 379.973632812 1523.48730469 425.37109375 1542.90332031 472.779296875 1549.37402344 c 4
 485.932617188 1551.16992188 499.052734375 1552 512 1552 c 4
  Spiro
    512 1552 o
    524.987 1551.72 o
    538.096 1550.85 o
    551.224 1549.37 o
    597.666 1538.65 o
    641.425 1519.53 o
    680.76 1492.43 o
    713.421 1459.14 o
    738.979 1421.79 o
    757.852 1382.16 o
    779.395 1303.13 o
    787.057 1225.44 o
    788 1152 ]
    788 1148.49 v
    787.758 1146.56 v
    786.561 1096.86 o
    779.255 1010.82 o
    757.852 921.84 o
    738.979 882.21 o
    713.42 844.864 o
    680.759 811.573 o
    641.426 784.465 o
    597.667 765.348 o
    551.221 754.626 o
    538.093 753.148 o
    524.986 752.281 o
    512 752 o
    499.014 752.281 o
    485.907 753.148 o
    472.782 754.625 o
    426.334 765.348 o
    382.574 784.465 o
    343.24 811.574 o
    310.579 844.863 o
    285.021 882.207 o
    266.148 921.84 o
    244.605 1000.87 o
    236.943 1078.56 o
    236 1152 o
    236.943 1225.44 o
    244.605 1303.13 o
    266.148 1382.16 o
    285.021 1421.79 o
    310.58 1459.14 o
    343.242 1492.43 o
    382.574 1519.53 o
    426.333 1538.65 o
    472.779 1549.37 o
    485.903 1550.85 o
    499.013 1551.72 o
    0 0 z
  EndSpiro
512 1432 m 4
 504.88671875 1432 497.942382812 1431.54296875 491.220703125 1430.62597656 c 4
 468.4921875 1427.5234375 446.290039062 1417.96289062 428.96875 1403.31640625 c 4
 411.385742188 1388.44921875 396.329101562 1366.4375 386.330078125 1340.86132812 c 4
 365.694335938 1288.08300781 364 1222.89355469 364 1152 c 4
 364 1081.10742188 365.694335938 1015.91699219 386.330078125 963.137695312 c 4
 396.326171875 937.5703125 411.388671875 915.548828125 428.970703125 900.681640625 c 4
 446.288085938 886.0390625 468.494140625 876.475585938 491.217773438 873.374023438 c 4
 497.935546875 872.458007812 504.889648438 872 512 872 c 4
 519.109375 872 526.068359375 872.458007812 532.779296875 873.374023438 c 4
 555.506835938 876.475585938 577.7109375 886.038085938 595.030273438 900.682617188 c 4
 612.615234375 915.551757812 627.670898438 937.5625 637.669921875 963.137695312 c 4
 655.64453125 1009.11035156 658.88671875 1134.87304688 660 1154.14648438 c 5
 659.983398438 1225.38867188 658.158203125 1288.45996094 637.669921875 1340.86230469 c 4
 627.673828125 1366.43066406 612.612304688 1388.45117188 595.029296875 1403.31738281 c 4
 577.7109375 1417.96191406 555.51171875 1427.5234375 532.776367188 1430.62597656 c 4
 526.0625 1431.54296875 519.111328125 1432 512 1432 c 4
  Spiro
    512 1432 o
    504.952 1431.85 o
    498.008 1431.39 o
    491.221 1430.63 o
    468.851 1425.43 o
    447.736 1416.21 o
    428.969 1403.32 o
    412.337 1386.22 o
    397.908 1365.09 o
    386.33 1340.86 o
    371.379 1284.25 o
    365.201 1220.68 o
    364 1152 o
    365.201 1083.32 o
    371.379 1019.75 o
    386.33 963.138 o
    397.908 938.909 o
    412.338 917.781 o
    428.971 900.682 o
    447.736 887.794 o
    468.85 878.571 o
    491.218 873.374 o
    498.004 872.611 o
    504.952 872.152 o
    512 872 o
    519.049 872.152 o
    525.996 872.611 o
    532.779 873.374 o
    555.149 878.571 o
    576.264 887.794 o
    595.03 900.683 o
    611.663 917.781 o
    626.092 938.906 o
    637.67 963.138 o
    651.191 1028.73 o
    657.714 1106.35 o
    660 1154.15 v
    658.759 1222.51 o
    652.551 1285.06 o
    637.67 1340.86 o
    626.093 1365.09 o
    611.662 1386.22 o
    595.029 1403.32 o
    576.265 1416.21 o
    555.15 1425.43 o
    532.776 1430.63 o
    525.993 1431.39 o
    519.048 1431.85 o
    0 0 z
  EndSpiro
EndSplineSet
Layer: 4
EndChar
StartChar: guillemotright
Encoding: 187 187 312
Width: 1024
VWidth: 0
Flags: W
HStem: 1019 20G<288.412 333.965 672.412 717.965>
LayerCount: 5
Back
Fore
SplineSet
899 581 m 5
 599 971 l 5
 703 1039 l 5
 1024 610 l 5
 1024 542 l 5
 703 113 l 5
 599 181 l 5
 899 571 l 5
 899 581 l 5
515 581 m 5
 215 971 l 5
 319 1039 l 5
 640 610 l 5
 640 542 l 5
 319 113 l 5
 215 181 l 5
 515 571 l 5
 515 581 l 5
EndSplineSet
Layer: 2
SplineSet
520 147 m 5
 841 576 l 5
 520 1005 l 1029
EndSplineSet
Layer: 3
Layer: 4
EndChar
StartChar: onequarter
Encoding: 188 188 501
GlifName: onequarter
Width: 1024
VWidth: 0
Flags: W
HStem: 128 120<643 896>
VStem: 384 128<768 1378> 896 128<-128 128 248 640>
LayerCount: 5
Back
Fore
SplineSet
404 1536 m 1
 512 1536 l 1
 512 768 l 1
 384 768 l 1
 384 1378 l 1
 374 1378 l 1
 128 1246 l 1
 128 1380 l 1
 404 1536 l 1
1024 -128 m 1
 896 -128 l 1
 896 128 l 1
 512 128 l 1
 512 200 l 1
 590 640 l 1
 711 640 l 1
 643 248 l 1
 896 248 l 1
 896 640 l 1
 1024 640 l 1
 1024 -128 l 1
EndSplineSet
Validated: 1
Layer: 2
Layer: 3
Layer: 4
EndChar
StartChar: onehalf
Encoding: 189 189 500
GlifName: onehalf
Width: 1024
VWidth: 0
Flags: W
HStem: -128 120<644 1024> 536 120<515.361 880.34>
VStem: 384 128<768 1378> 506 138<-8 59.7391> 908 128<321.082 506.225>
LayerCount: 5
Back
SplineSet
640 1492 m 0
 760.168303987 1492 844 1420.66641645 844 1318 c 4
 844 1215.33355713 760.168303987 1144 640 1144 c 4
 519.831665039 1144 436 1215.33355713 436 1318 c 4
 436 1420.66641645 519.831665039 1492 640 1492 c 0
EndSplineSet
Fore
SplineSet
512 629 m 1xe8
 585 644 665 656 755 656 c 0
 945 656 1036 545 1036 421 c 0
 1036 271 917 193 818 143 c 0
 742 105 669 71 644 2 c 1
 644 -8 l 1
 1024 -8 l 1
 1024 -128 l 1
 506 -128 l 1
 506 -68 l 2xd8
 506 95 628 189 746 245 c 0
 820 280 908 325 908 421 c 0
 908 459 894 536 755 536 c 0
 672 536 582 523 512 509 c 1
 512 629 l 1xe8
404 1536 m 1
 512 1536 l 1
 512 768 l 1
 384 768 l 1
 384 1378 l 1xe8
 374 1378 l 1
 128 1246 l 1
 128 1380 l 1
 404 1536 l 1
EndSplineSet
Layer: 2
SplineSet
320 1421 m 0
 375.989987866 1439.87146298 432.560983093 1457.15188847 490 1471 c 0
 538.174341841 1482.61446861 587.275760666 1492.00003711 636.82936611 1492.00003711 c 0
 665.83878467 1491.99372883 694.94290441 1488.55037039 722.46106664 1479.46793243 c 0
 749.918257465 1470.40561824 775.630121075 1455.52049948 796 1435 c 0
 826.728542268 1404.04424233 844.004743873 1360.8080437 844.004743873 1316.70908966 c 0
 844.004743873 1285.12984839 835.496509752 1253.72208366 820.571533319 1225.88680459 c 0
 805.443200625 1197.67226339 783.831462586 1173.20705943 759 1153 c 0
 698.766234317 1103.98366523 621.472218731 1080.74354761 558 1036 c 0
 524.230971444 1012.19515802 494.473008141 982.143411005 473.879496164 946.325467797 c 0
 453.285984186 910.50752459 442.035085612 869.316056929 442 828 c 1
 896 828 l 1025
  Spiro
    320 1421 {
    490 1471 o
    637 1492 o
    796 1435 o
    844 1318 o
    759 1153 o
    558 1036 o
    442 828 v
    896 828 v
    0 0 z
  EndSpiro
EndSplineSet
Layer: 3
Layer: 4
EndChar
StartChar: threequarters
Encoding: 190 190 518
Width: 1024
VWidth: 0
Flags: W
HStem: 128 120<643 896> 752 120<161.05 495.077> 1092 120<256 486.029> 1432 120<164.303 485.854>
VStem: 524 128<904.814 1060.26 1249.27 1394.78> 896 128<-128 128 248 640>
LayerCount: 5
Back
SplineSet
369 1469 m 4
 301.379497815 1453.17670974 234.319644586 1435.05796832 167 1418 c 5
 0 1323 l 5
 384 1152 l 5
 482 1152 l 6
 516.126555676 1152 550.526782309 1152.08878773 583.953388879 1158.96510764 c 4
 617.37999545 1165.84142755 649.76778307 1180.02268442 675 1203 c 4
 707.913737451 1232.97236962 727.000107212 1277.3019775 727.000107212 1321.81727202 c 4
 727 1322 l 4
 726.944911076 1368.94300597 705.698300776 1415.51590306 670 1446 c 4
 650.425429993 1462.71544798 626.981591421 1474.64822754 602.293956936 1481.93456377 c 4
 577.640766858 1489.21073405 551.812608128 1492.00001633 526.107740579 1492.00001633 c 4
 473.038494443 1491.99197282 420.652839146 1481.08683521 369 1469 c 4
  Spiro
    526 1492 o
    369 1469 o
    167 1418 v
    0 1323 v
    384 1152 v
    482 1152 ]
    675 1203 o
    727 1322 o
    670 1446 o
    0 0 z
  EndSpiro
681 1102 m 4
 654.483893113 1124.8535734 620.993446953 1138.60498506 586.62826675 1145.27012805 c 4
 552.263086547 1151.93527104 517.005567293 1152 482 1152 c 6
 384 1152 l 5
 0 1120 l 5
 132 896 l 5
 194.547568062 878.887689266 257.096286024 861.752847906 320 846 c 4
 387.992200451 828.972852876 456.908252453 812.09993555 527 812 c 4
 527.523925425 811.999626306 l 4
 566.876515789 811.999626306 606.843269543 818.330920328 642 836 c 4
 669.228891791 849.684704242 693.156661909 870.197269261 709.833848307 895.703251544 c 4
 726.669596871 921.451737789 736.002891459 951.858064687 736.002891459 982.920197563 c 4
 736.002891459 1028.02673264 715.173625357 1072.54660178 681 1102 c 4
  Spiro
    681 1102 o
    482 1152 [
    384 1152 v
    0 1120 v
    132 896 v
    320 846 o
    527 812 o
    642 836 o
    736 982 o
    0 0 z
  EndSpiro
EndSplineSet
Fore
SplineSet
1024 -128 m 1
 896 -128 l 1
 896 128 l 1
 512 128 l 1
 512 200 l 1
 590 640 l 1
 711 640 l 1
 643 248 l 1
 896 248 l 1
 896 640 l 1
 1024 640 l 1
 1024 -128 l 1
546 1150 m 1
 621 1111 652 1048 652 983 c 0
 652 836 524 752 380 752 c 0
 287 752 205 775 128 795 c 1
 128 920 l 1
 204 900 303 872 380 872 c 0
 458 872 524 907 524 983 c 0
 524 1041 479 1077 426 1087 c 0
 400 1092 369 1092 334 1092 c 2
 256 1092 l 1
 256 1212 l 1
 334 1212 l 2
 368 1212 397 1213 422 1218 c 0
 474 1229 515 1264 515 1322 c 0
 515 1395 455 1432 378 1432 c 0
 305 1432 215 1406 148 1389 c 1
 148 1513 l 1
 218 1531 293 1552 378 1552 c 0
 530 1552 643 1460 643 1322 c 0
 643 1261 618 1201 546 1160 c 1
 546 1150 l 1
EndSplineSet
Layer: 2
SplineSet
527 1152 m 4
 650.1140625 1152 736 1082.30664062 736 982 c 4
 736 881.693359375 650.1140625 812 527 812 c 4
 403.8859375 812 318 881.693359375 318 982 c 4
 318 1082.30664062 403.8859375 1152 527 1152 c 4
  Spiro
    527 1152 o
    635.81 1130.26 o
    709.225 1070.58 o
    736 982 o
    709.225 893.421 o
    635.81 833.742 o
    527 812 o
    418.19 833.742 o
    344.775 893.421 o
    318 982 o
    344.775 1070.58 o
    418.19 1130.26 o
    0 0 z
  EndSpiro
527 1492 m 4
 644.8125 1492 727 1422.30664062 727 1322 c 4
 727 1221.69335938 644.8125 1152 527 1152 c 4
 409.1875 1152 327 1221.69335938 327 1322 c 4
 327 1422.30664062 409.1875 1492 527 1492 c 4
  Spiro
    527 1492 o
    631.124 1470.26 o
    701.378 1410.58 o
    727 1322 o
    701.378 1233.42 o
    631.124 1173.74 o
    527 1152 o
    422.876 1173.74 o
    352.622 1233.42 o
    327 1322 o
    352.622 1410.58 o
    422.876 1470.26 o
    0 0 z
  EndSpiro
EndSplineSet
Layer: 3
SplineSet
334 1092 m 6
 256 1092 l 5
 256 1212 l 5
 334 1212 l 6
 368.10546875 1212 397.677909118 1212.5177053 422.235351562 1217.5703125 c 4
 446.333007812 1222.52832031 467.461831626 1232.42880147 482.408203125 1246.0390625 c 4
 501.798828125 1263.69628906 515.033710755 1292.79298823 515 1321.96777344 c 4
 514.96484375 1352.39355469 500.211055712 1383.44740406 478.903320312 1401.64257812 c 4
 466.943359375 1411.85546875 451.8104196 1419.7642172 435.077148438 1424.703125 c 4
 418.186523438 1429.68847656 398.920898183 1432.00325246 378.118164062 1432 c 4
 334.395507812 1431.99316406 287.167977193 1422.64254204 236.5 1410.78613281 c 4
 207.129305439 1403.91329705 177.652662171 1396.54192468 148 1388.9609375 c 5
 148 1513.26367188 l 5
 167.049746348 1518.02502583 186.210313783 1522.69997875 205.5 1527.21386719 c 4
 258.138671875 1539.53125 315.680663299 1552 378.096679688 1552 c 4
 408.704101562 1552 441.094944763 1548.73316122 473.510742188 1539.16601562 c 4
 506.15234375 1529.53222656 537.909094988 1513.57526319 565.096679688 1490.35839844 c 4
 615.185546875 1447.58496094 643 1385.49320746 643 1322.03320312 c 4
 643 1261.46679688 618.102563977 1202.31442576 571.591796875 1159.96191406 c 4
 569.650419119 1158.19410353 567.684758958 1156.46777069 565.696289062 1154.78222656 c 5
 569.298049273 1152.03480494 572.839803872 1149.16558352 576.314453125 1146.17089844 c 4
 624.303710937 1104.81054687 652.002929688 1044.96289062 652.002929688 982.919921875 c 4
 652.002929688 940.6171875 639.430058417 899.569093408 616.3984375 864.345703125 c 4
 593.456054688 829.258789062 561.105570535 801.647258408 524.23828125 783.119140625 c 4
 476.791992188 759.274414062 425.879836163 751.934285998 379.594726562 752 c 4
 297.0546875 752.1171875 223.954368722 770.885832395 155.482421875 788.033203125 c 4
 146.3045422 790.331487522 137.144089524 792.656153943 128 795.002929688 c 5
 128 919.534179688 l 5
 148.194796662 914.219362639 168.36337629 909.015021529 188.517578125 903.967773438 c 4
 256.765625 886.875976562 319.140564016 872 379.69140625 872 c 4
 411.592773438 872 441.004495855 877.444129326 463.76171875 888.880859375 c 4
 481.3515625 897.720703125 496.856291942 911.134865907 507.26953125 927.060546875 c 4
 517.91015625 943.333984375 524.002929688 963.098632812 524.002929688 982.919921875 c 4
 524.002929688 1011.08984375 510.044888399 1040.28429738 489.685546875 1057.83007812 c 4
 473.616210938 1071.67871094 451.220673191 1081.55648629 425.662109375 1086.51367188 c 4
 399.721679688 1091.54492188 369.004882812 1092 334 1092 c 6
EndSplineSet
Layer: 4
EndChar
StartChar: questiondown
Encoding: 191 191 101
Width: 1024
VWidth: 0
Flags: W
HStem: -400 120<452.978 832.197> 752 288<474.535 677.465>
VStem: 244 128<-201.019 75.7545> 432 288<794.535 997.465> 512 128<384.117 512>
LayerCount: 5
Back
Fore
SplineSet
576 752 m 4xf0
 491 752 432 811 432 896 c 4
 432 981 491 1040 576 1040 c 4
 661 1040 720 981 720 896 c 4
 720 811 661 752 576 752 c 4xf0
640 512 m 5xe8
 640 228 372 178 372 -68 c 4
 372 -204 450 -280 608 -280 c 4
 697 -280 812 -248 896 -223 c 5
 896 -347 l 5
 809 -373 701 -400 608 -400 c 4
 381 -400 244 -274 244 -68 c 4
 244 218 511 297 512 512 c 5
 640 512 l 5xe8
EndSplineSet
Layer: 2
Layer: 3
Layer: 4
EndChar
StartChar: questiondown
Encoding: 191 191 101
Width: 1024
VWidth: 0
Flags: W
HStem: -400 120<453.1 832.04> 752 288<474.602 677.398>
VStem: 244 128<-201.019 75.7545> 432 288<794.548 997.452> 512 128<384.117 512>
LayerCount: 5
Back
Fore
SplineSet
576 752 m 4xf0
 491.174804688 752 432 811.034179688 432 896 c 4
 432 980.965820312 491.174804688 1040 576 1040 c 4
 660.825195312 1040 720 980.965820312 720 896 c 4
 720 811.034179688 660.825195312 752 576 752 c 4xf0
640 512 m 5xe8
 640 228 372 178 372 -68 c 4
 372 -204 450.5 -280 608 -280 c 4
 696.545898438 -280 811.55859375 -248 896 -223 c 5
 896 -347 l 5
 808.752929688 -373 701.220703125 -400 608 -400 c 4
 381.081054688 -400 244 -274 244 -68 c 4
 244 218 511 297 512 512 c 5
 640 512 l 5xe8
EndSplineSet
Layer: 2
Layer: 3
Layer: 4
EndChar
StartChar: Aacute
Encoding: 193 193 102
Width: 1024
VWidth: 0
Flags: W
HStem: 0 21G<103 244.5 907.5 1049> 388 120<330 821> 1043 109<546.217 605.766>
VStem: 103 135<0 226.397> 914 135<0 226.397>
LayerCount: 5
Back
Fore
SplineSet
488 1280 m 1
 654 1536 l 1
 792 1536 l 1
 626 1280 l 1
 488 1280 l 1
103 0 m 1
 156 406 267 794 511 1152 c 1
 641 1152 l 1
 885 794 996 406 1049 0 c 1
 914 0 l 1
 901 136 884 265 851 388 c 1
 301 388 l 1
 268 265 251 136 238 0 c 1
 103 0 l 1
821 508 m 1
 767 708 689 887 581 1043 c 1
 571 1043 l 1
 463 887 384 708 330 508 c 1
 821 508 l 1
EndSplineSet
Layer: 2
Layer: 3
Layer: 4
EndChar
StartChar: Acircumflex
Encoding: 194 194 98
Width: 1024
VWidth: 0
Flags: W
HStem: 0 21G<105.091 245.992 905.997 1046.91> 384 120<348.045 804.06> 1004.54 147.818<549.222 602.833>
VStem: 105.091 129.713<0 194.388> 917.196 129.713<0 194.518>
LayerCount: 5
Back
Refer: 89 94 N 1 0 0 1 0 650 2
Refer: 29 65 N 1 0 0 1 0 0 3
Fore
SplineSet
522.10546875 1152.36035156 m 1
 629.89453125 1152.36035156 l 1
 850.991210938 828.71875 968.81640625 478.430664062 1046.90917969 0 c 1
 917.196289062 0 l 1
 894.796875 139.408203125 869.09375 266.208007812 838.25 384 c 1
 313.829101562 384 l 1
 282.931640625 266.120117188 257.180664062 139.274414062 234.803710938 0 c 1
 105.090820312 0 l 1
 183.103515625 477.970703125 301.189453125 828.982421875 522.10546875 1152.36035156 c 1
348.044921875 504 m 1
 804.059570312 504 l 1
 747.6640625 686.211914062 675.954101562 847.884765625 581 1004.54199219 c 1
 571 1004.54199219 l 1
 476.303710938 848.30859375 404.53515625 686.44140625 348.044921875 504 c 1
497 1536 m 1
 655 1536 l 1
 952 1280 l 1
 794 1280 l 1
 576 1443.96289062 l 1
 358 1280 l 1
 200 1280 l 1
 497 1536 l 1
EndSplineSet
Layer: 2
Layer: 3
Layer: 4
EndChar
StartChar: Atilde
Encoding: 195 195 99
Width: 1024
VWidth: 0
Flags: W
HStem: 0 21G<103 244.5 907.5 1049> 388 120<330 821> 1043 109<541.386 610.589> 1284 120<623.658 756.749> 1412 120<395.276 528.342>
VStem: 103 135<0 263.728> 253 128<1305 1405.1> 771 128<1411.78 1511> 914 135<0 263.728>
LayerCount: 5
Back
Refer: 94 126 N 1 0 0 1 0 1036 2
Refer: 29 65 N 1 0 0 1 0 0 3
Fore
SplineSet
448 1412 m 0
 397 1412 384 1353 381 1299 c 1
 253 1305 l 1
 257 1423 319 1532 448 1532 c 0
 594 1532 627 1404 704 1404 c 0
 755 1404 768 1463 771 1517 c 1
 899 1511 l 1
 896 1395 833 1284 704 1284 c 0
 558 1284 525 1412 448 1412 c 0
103 0 m 1
 156 406 267 794 511 1152 c 1
 641 1152 l 1
 885 794 996 406 1049 0 c 1
 914 0 l 1
 901 136 884 265 851 388 c 1
 301 388 l 1
 268 265 251 136 238 0 c 1
 103 0 l 1
821 508 m 1
 767 708 689 887 581 1043 c 1
 571 1043 l 1
 463 887 384 708 330 508 c 1
 821 508 l 1
EndSplineSet
Layer: 2
Layer: 3
Layer: 4
EndChar
StartChar: Adieresis
Encoding: 196 196 103
Width: 1024
VWidth: 0
Flags: W
HStem: 0 21G<105.091 245.992 905.997 1046.91> 384 120<348.045 804.06> 1004.54 147.818<549.222 602.833> 1328 224<264.237 439.763 712.237 887.763>
VStem: 105.091 129.713<0 194.388> 240 224<1352.24 1527.76> 688 224<1352.24 1527.76> 917.196 129.713<0 194.518>
LayerCount: 5
Back
Fore
SplineSet
522.10546875 1152.36035156 m 1
 629.89453125 1152.36035156 l 1
 850.991210938 828.71875 968.81640625 478.430664062 1046.90917969 0 c 1
 917.196289062 0 l 1
 894.796875 139.408203125 869.09375 266.208007812 838.25 384 c 1
 313.829101562 384 l 1
 282.931640625 266.120117188 257.180664062 139.274414062 234.803710938 0 c 1
 105.090820312 0 l 1
 183.103515625 477.970703125 301.189453125 828.982421875 522.10546875 1152.36035156 c 1
348.044921875 504 m 1
 804.059570312 504 l 1
 747.6640625 686.211914062 675.954101562 847.884765625 581 1004.54199219 c 1
 571 1004.54199219 l 1
 476.303710938 848.30859375 404.53515625 686.44140625 348.044921875 504 c 1
800 1552 m 4
 866 1552 912 1506 912 1440 c 4
 912 1374 866 1328 800 1328 c 4
 734 1328 688 1374 688 1440 c 4
 688 1506 734 1552 800 1552 c 4
352 1552 m 4
 418 1552 464 1506 464 1440 c 4
 464 1374 418 1328 352 1328 c 4
 286 1328 240 1374 240 1440 c 4
 240 1506 286 1552 352 1552 c 4
EndSplineSet
Layer: 2
Layer: 3
Layer: 4
EndChar
StartChar: Aring
Encoding: 197 197 104
Width: 1024
VWidth: 0
Flags: W
HStem: 0 21G<105 246 906 1047> 384 120<348 804> 1068 84<522 630> 1424 100<486.332 665.668>
VStem: 105 130<0 194.397> 348 108<1196.81 1395.19> 696 108<1196.81 1395.19> 917 130<0 194.346>
LayerCount: 5
Back
Fore
SplineSet
522 1152 m 1
 630 1152 l 1
 851 828 969 478 1047 0 c 1
 917 0 l 1
 895 139 869 266 838 384 c 1
 314 384 l 1
 283 266 257 139 235 0 c 1
 105 0 l 1
 183 478 301 829 522 1152 c 1
348 504 m 1
 804 504 l 1
 748 686 676 848 581 1005 c 1
 571 1005 l 1
 476 849 404 686 348 504 c 1
576 1424 m 0
 506 1424 456 1379 456 1296 c 0
 456 1213 506 1168 576 1168 c 0
 646 1168 696 1213 696 1296 c 0
 696 1379 646 1424 576 1424 c 0
576 1524 m 0
 711 1524 804 1423 804 1296 c 0
 804 1169 711 1068 576 1068 c 0
 441 1068 348 1169 348 1296 c 0
 348 1423 441 1524 576 1524 c 0
EndSplineSet
Layer: 2
Layer: 3
Layer: 4
EndChar
StartChar: Aring
Encoding: 197 197 104
Width: 1024
VWidth: 0
Flags: W
HStem: 0 21G<105.091 245.992 905.997 1046.91> 384 120<348.045 804.06> 1068 84.3604<522.105 629.895> 1424 100<486.321 665.679>
VStem: 105.091 129.713<0 194.388> 348 108<1196.79 1395.21> 696 108<1196.79 1395.21> 917.196 129.713<0 194.518>
LayerCount: 5
Back
Fore
SplineSet
522.10546875 1152.36035156 m 1
 629.89453125 1152.36035156 l 1
 850.991210938 828.71875 968.81640625 478.430664062 1046.90917969 0 c 1
 917.196289062 0 l 1
 894.796875 139.408203125 869.09375 266.208007812 838.25 384 c 1
 313.829101562 384 l 1
 282.931640625 266.120117188 257.180664062 139.274414062 234.803710938 0 c 1
 105.090820312 0 l 1
 183.103515625 477.970703125 301.189453125 828.982421875 522.10546875 1152.36035156 c 1
348.044921875 504 m 1
 804.059570312 504 l 1
 747.6640625 686.211914062 675.954101562 847.884765625 581 1004.54199219 c 1
 571 1004.54199219 l 1
 476.303710938 848.30859375 404.53515625 686.44140625 348.044921875 504 c 1
576 1424 m 0
 506.313476562 1424 456 1378.86425781 456 1296 c 0
 456 1213.13671875 506.311523438 1168 576 1168 c 0
 645.686523438 1168 696 1213.13671875 696 1296 c 0
 696 1378.86328125 645.6875 1424 576 1424 c 0
576 1524 m 0
 711.306640625 1524 804 1423.19140625 804 1296 c 0
 804 1168.80957031 711.307617188 1068 576 1068 c 0
 440.694335938 1068 348 1168.80957031 348 1296 c 0
 348 1423.19042969 440.692382812 1524 576 1524 c 0
EndSplineSet
Layer: 2
Layer: 3
Layer: 4
EndChar
StartChar: AE
Encoding: 198 198 105
GlifName: A_E_
Width: 1024
VWidth: 0
Flags: MW
HStem: 0 120<768 1024> 388 120<262 640> 644 120<768 1024> 1288 120<419.879 640 768 1024>
VStem: 103 128<0 367.797> 640 128<120 388 508 644 764 1288>
LayerCount: 5
Back
Fore
SplineSet
640 388 m 5
 248 388 l 5
 239 276 231 155 231 0 c 5
 103 0 l 5
 103 496 187 971 357 1408 c 5
 1024 1408 l 5
 1024 1288 l 5
 768 1288 l 5
 768 764 l 5
 1024 764 l 5
 1024 644 l 5
 768 644 l 5
 768 120 l 5
 1024 120 l 5
 1024 0 l 5
 640 0 l 5
 640 388 l 5
640 508 m 5
 640 1288 l 5
 431 1288 l 5
 350.659892768 1049 297.351167935 800 262 508 c 5
 640 508 l 5
EndSplineSet
Validated: 1
Layer: 2
Layer: 3
Layer: 4
EndChar
StartChar: Ccedilla
Encoding: 199 199 106
Width: 1024
VWidth: 0
Flags: W
HStem: -403 120<386.225 605.949> -28 120<451.726 640> 1292 120<451.629 988.789>
VStem: 112 128<345.054 1038.97> 640 128<-236.261 -28>
DStem2: 1024 129 1024 9 0.990264 0.139203<-274.666 -16.7044>
LayerCount: 5
Back
Fore
SplineSet
768 -108 m 6
 768 -168 768 -238 716 -308 c 4
 674 -365 602 -403 512 -403 c 4
 477 -403 431 -396 384 -386 c 5
 384 -263 l 5
 432 -274 478 -283 512 -283 c 4
 559 -283 591 -266 612 -238 c 4
 640 -201 640 -158 640 -108 c 6
 640 -28 l 5
 357 -27 199 131 143 352 c 4
 114 466 112 582 112 692 c 4
 112 802 114 918 143 1032 c 4
 201 1254 355 1412 643 1412 c 4
 766 1412 885 1400 994 1383 c 5
 994 1263 l 5
 881 1280 755 1292 643 1292 c 4
 420 1292 312 1176 268 1004 c 4
 243 907 240 801 240 692 c 4
 240 583 243 477 268 380 c 4
 312 208 420 92 643 92 c 4
 765 92 903 109 1024 129 c 5
 1024 9 l 5
 944 -5 858 -17 768 -23 c 5
 768 -108 l 6
EndSplineSet
Validated: 1
Layer: 2
Layer: 3
Layer: 4
EndChar
StartChar: Iacute
Encoding: 205 205 112
Width: 1024
VWidth: 0
Flags: W
HStem: 0 120<256 512 640 896> 1032 120<256 512 640 896>
VStem: 512 128<120 1032>
LayerCount: 5
Back
Fore
SplineSet
488 1280 m 1
 654 1536 l 1
 792 1536 l 1
 626 1280 l 1
 488 1280 l 1
896 1152 m 1
 896 1032 l 1
 640 1032 l 1
 640 120 l 1
 896 120 l 1
 896 0 l 1
 256 0 l 1
 256 120 l 1
 512 120 l 1
 512 1032 l 1
 256 1032 l 1
 256 1152 l 1
 896 1152 l 1
EndSplineSet
Validated: 1
Layer: 2
Layer: 3
Layer: 4
EndChar
StartChar: Icircumflex
Encoding: 206 206 113
GlifName: I_circumflex
Width: 1024
VWidth: 0
Flags: W
HStem: 0 120<256 512 640 896> 1032 120<256 512 640 896>
VStem: 512 128<120 1032>
LayerCount: 5
Back
Fore
SplineSet
497 1536 m 1
 655 1536 l 1
 952 1280 l 1
 794 1280 l 1
 576 1444 l 1
 358 1280 l 1
 200 1280 l 1
 497 1536 l 1
896 1152 m 1
 896 1032 l 1
 640 1032 l 1
 640 120 l 1
 896 120 l 1
 896 0 l 1
 256 0 l 1
 256 120 l 1
 512 120 l 1
 512 1032 l 1
 256 1032 l 1
 256 1152 l 1
 896 1152 l 1
EndSplineSet
Validated: 1
Layer: 2
Layer: 3
Layer: 4
EndChar
StartChar: Idieresis
Encoding: 207 207 114
Width: 1024
VWidth: 0
Flags: W
HStem: 0 120<256 512 640 896> 1032 120<256 512 640 896> 1328 224<264.237 439.763 712.237 887.763>
VStem: 240 224<1352.24 1527.76> 512 128<120 1032> 688 224<1352.24 1527.76>
CounterMasks: 1 1c
LayerCount: 5
Back
Fore
SplineSet
352 1552 m 0
 418 1552 464 1506 464 1440 c 0
 464 1374 418 1328 352 1328 c 0
 286 1328 240 1374 240 1440 c 0
 240 1506 286 1552 352 1552 c 0
800 1552 m 0
 866 1552 912 1506 912 1440 c 0
 912 1374 866 1328 800 1328 c 0
 734 1328 688 1374 688 1440 c 0
 688 1506 734 1552 800 1552 c 0
896 1152 m 1
 896 1032 l 1
 640 1032 l 1
 640 120 l 1
 896 120 l 1
 896 0 l 1
 256 0 l 1
 256 120 l 1
 512 120 l 1
 512 1032 l 1
 256 1032 l 1
 256 1152 l 1
 896 1152 l 1
EndSplineSet
Validated: 1
Layer: 2
Layer: 3
Layer: 4
EndChar
StartChar: Eth
Encoding: 208 208 115
GlifName: E_th
Width: 1024
VWidth: 0
Flags: W
HStem: 0 120<384 682.099> 644 120<128 256 384 640> 1288 120<384 682.099>
VStem: 256 128<120 644 764 1288> 912 128<374.669 1033.33>
CounterMasks: 1 e0
LayerCount: 5
Back
Fore
SplineSet
912 704 m 4
 912 888 893 1030 825 1126 c 4
 766 1210 670 1288 474 1288 c 6
 384 1288 l 5
 384 764 l 5
 640 764 l 5
 640 644 l 5
 384 644 l 5
 384 120 l 5
 474 120 l 6
 670 120 766 198 825 282 c 4
 893 378 912 520 912 704 c 4
474 1408 m 6
 717 1408 859 1306 943 1171 c 4
 1025 1040 1040 877 1040 704 c 4
 1040 531 1025 368 943 237 c 4
 859 102 717 0 474 0 c 6
 256 0 l 5
 256 644 l 5
 128 644 l 5
 128 764 l 5
 256 764 l 5
 256 1408 l 5
 474 1408 l 6
EndSplineSet
Layer: 2
Layer: 3
Layer: 4
EndChar
StartChar: Odieresis
Encoding: 214 214 121
Width: 1024
VWidth: 0
Flags: W
HStem: -16 120<404.584 747.416> 1048 120<404.584 747.416> 1328 224<261.032 442.968 709.032 890.968>
VStem: 112 128<284.074 867.926> 240 224<1349.03 1530.97> 688 224<1349.03 1530.97> 912 128<284.074 867.926>
LayerCount: 5
Back
Fore
SplineSet
352 1552 m 0xe8
 418 1552 464 1506 464 1440 c 0
 464 1374 418 1328 352 1328 c 0
 286 1328 240 1374 240 1440 c 0
 240 1506 286 1552 352 1552 c 0xe8
800 1552 m 0
 866 1552 912 1506 912 1440 c 0
 912 1374 866 1328 800 1328 c 0
 734 1328 688 1374 688 1440 c 0xe4
 688 1506 734 1552 800 1552 c 0
576 -16 m 0
 354 -16 206 110 149 284 c 0
 117 381 112 482 112 576 c 0
 112 670 117 771 149 868 c 0
 206 1042 354 1168 576 1168 c 0
 798 1168 946 1042 1003 868 c 0
 1035 771 1040 670 1040 576 c 0xf2
 1040 482 1035 381 1003 284 c 0
 946 110 798 -16 576 -16 c 0
912 576 m 0
 912 667 907 755 881 833 c 0
 839 961 740 1048 576 1048 c 0
 412 1048 313 961 271 833 c 0
 245 755 240 667 240 576 c 0
 240 485 245 397 271 319 c 0
 313 191 412 104 576 104 c 0
 740 104 839 191 881 319 c 0
 907 397 912 485 912 576 c 0
EndSplineSet
Layer: 2
Layer: 3
Layer: 4
EndChar
StartChar: multiply
Encoding: 215 215 122
GlifName: multiply
Width: 1024
VWidth: 0
Flags: W
LayerCount: 5
Back
Fore
SplineSet
725 512 m 1
 1000 240 l 1
 906 158 l 1
 640 427 l 1
 581 512 l 1
 571 512 l 1
 512 427 l 1
 246 158 l 1
 152 240 l 1
 427 512 l 1
 512 571 l 1
 512 581 l 1
 427 640 l 1
 152 912 l 1
 246 994 l 1
 512 725 l 1
 571 640 l 1
 581 640 l 1
 640 725 l 1
 906 994 l 1
 1000 912 l 1
 725 640 l 1
 640 581 l 1
 640 571 l 1
 725 512 l 1
EndSplineSet
Validated: 1
Layer: 2
Layer: 3
Layer: 4
EndChar
StartChar: Thorn
Encoding: 222 222 129
GlifName: T_horn
Width: 1024
VWidth: 0
Flags: W
HStem: 0 21G<256 384> 384 120<384 803.156> 1032 120<384 803.156> 1388 20G<256 384>
VStem: 256 128<0 384 504 1032 1152 1408> 912 128<617.154 918.846>
LayerCount: 5
Back
Fore
SplineSet
577 504 m 2
 653 504 693 506 729 514 c 0
 837 538 912 634 912 768 c 0
 912 902 837 998 729 1022 c 0
 693 1030 653 1032 577 1032 c 2
 384 1032 l 1
 384 504 l 1
 577 504 l 2
384 0 m 1
 256 0 l 1
 256 1408 l 1
 384 1408 l 1
 384 1152 l 1
 577 1152 l 2
 654 1152 706 1152 761 1139 c 0
 920 1101 1040 964 1040 768 c 0
 1040 572 920 435 761 397 c 0
 706 384 654 384 577 384 c 2
 384 384 l 1
 384 0 l 1
EndSplineSet
Validated: 1
Layer: 2
Layer: 3
Layer: 4
EndChar
StartChar: germandbls
Encoding: 223 223 130
GlifName: germandbls
Width: 1024
VWidth: 0
Flags: W
HStem: -16 120<519.48 712.26> 0 21G<256 384> 772 120<562 672.167> 1304 120<440.355 665.038>
VStem: 256 128<0 1246.87> 724 128<947.875 1242.02> 800 128<203.964 657.073>
LayerCount: 5
Back
Fore
SplineSet
730 833 m 5x7c
 888 779 928 646 928 438 c 4
 928 178 841 -16 612 -16 c 4
 571 -16 533 -10 504 -5 c 5
 520 113 l 5
 546 108 574 104 592 104 c 4
 772 104 800 264 800 438 c 4xba
 800 631 749 772 562 772 c 5
 562 892 l 5
 676 892 724 969 724 1098 c 4
 724 1227 666 1304 562 1304 c 4
 420 1304 384 1218 384 1078 c 6
 384 0 l 5
 256 0 l 5
 256 1078 l 6
 256 1278 353 1424 562 1424 c 4
 740 1424 852 1283 852 1098 c 4
 852 991 832 893 730 843 c 5
 730 833 l 5x7c
EndSplineSet
Validated: 1
Layer: 2
SplineSet
320 0 m 5
 320 1196 l 5
 320 1288.5482934 332 1356 389 1414 c 4
 436 1462 504.720168777 1492 592 1492 c 4
 742.79971591 1492 848 1387.04971591 848 1236 c 4
 848 1084.95028409 742.79971591 980 592 980 c 1028
EndSplineSet
Layer: 3
Layer: 4
EndChar
StartChar: agrave
Encoding: 224 224 131
GlifName: agrave
Width: 1024
VWidth: 0
Flags: W
HStem: -16 120<423.655 653.37> 0 21G<768 896> 512 110<427.031 768> 920 120<324.118 734.871> 1388 20G<360 510.969>
VStem: 224 128<177.716 436.002> 768 128<0 123 205.213 512 622 886.778>
LayerCount: 5
Back
Fore
SplineSet
664 1152 m 5x3e
 526 1152 l 5
 360 1408 l 5
 498 1408 l 5
 664 1152 l 5x3e
608 1040 m 4
 704 1040 805 1021 866 913 c 4
 896 860 896 785 896 749 c 6
 896 0 l 5
 768 0 l 5x7e
 768 123 l 5
 758 123 l 5
 694 35 617 -16 508 -16 c 4xbe
 455 -16 347 10 283 106 c 4
 249 157 224 224 224 301 c 4
 224 383 249 470 312 533 c 4
 402 622 512 622 574 622 c 6
 768 622 l 5
 768 744 l 6
 768 788 768 831 750 862 c 4
 729 898 696 920 608 920 c 4
 520 920 408 910 320 899 c 5
 320 1021 l 5
 407 1031 516 1040 608 1040 c 4
768 512 m 5
 572 512 l 6
 517 512 459 512 408 458 c 4
 372 420 352 362 352 303 c 4
 352 194 425 104 532 104 c 4xbe
 638 104 715 162 746 235 c 4
 768 287 768 349 768 421 c 6
 768 512 l 5
EndSplineSet
Validated: 1
Layer: 2
Layer: 3
Layer: 4
EndChar
StartChar: aacute
Encoding: 225 225 132
Width: 1024
VWidth: 0
Flags: W
HStem: -16 120<423.655 653.37> 0 21G<768 896> 512 110<427.031 768> 920 120<324.118 734.871> 1388 20G<641.031 792>
VStem: 224 128<177.716 436.002> 768 128<0 123 205.213 512 622 886.778>
DStem2: 488 1152 626 1152 0.544066 0.839042<75.0812 305.11>
LayerCount: 5
Back
Fore
SplineSet
488 1152 m 1x3e
 654 1408 l 1
 792 1408 l 1
 626 1152 l 1
 488 1152 l 1x3e
608 1040 m 0
 704 1040 805 1021 866 913 c 0
 896 860 896 785 896 749 c 2
 896 0 l 1
 768 0 l 1x7e
 768 123 l 1
 758 123 l 1
 694 35 617 -16 508 -16 c 0xbe
 455 -16 347 10 283 106 c 0
 249 157 224 224 224 301 c 0
 224 383 249 470 312 533 c 0
 402 622 512 622 574 622 c 2
 768 622 l 1
 768 744 l 2
 768 788 768 831 750 862 c 0
 729 898 696 920 608 920 c 0
 520 920 408 910 320 899 c 1
 320 1021 l 1
 407 1031 516 1040 608 1040 c 0
768 512 m 1
 572 512 l 2
 517 512 459 512 408 458 c 0
 372 420 352 362 352 303 c 0
 352 194 425 104 532 104 c 0xbe
 638 104 715 162 746 235 c 0
 768 287 768 349 768 421 c 2
 768 512 l 1
EndSplineSet
Validated: 1
Layer: 2
Layer: 3
Layer: 4
EndChar
StartChar: atilde
Encoding: 227 227 134
GlifName: atilde
Width: 1024
VWidth: 0
Flags: W
HStem: -16 120<423.655 653.37> 0 21G<768 896> 512 110<427.031 768> 920 120<324.118 734.871> 1156 120<631.752 755.472> 1284 120<396.554 520.248>
VStem: 224 128<177.716 436.002> 253 128<1177 1272.2> 768 128<0 123 205.213 512 622 886.778 1283.78 1383>
LayerCount: 5
Back
Fore
SplineSet
448 1284 m 0x3d80
 397 1284 384 1225 381 1171 c 1
 253 1177 l 1
 257 1295 319 1404 448 1404 c 0
 594 1404 627 1276 704 1276 c 0
 755 1276 768 1335 771 1389 c 1
 899 1383 l 1
 896 1267 833 1156 704 1156 c 0
 558 1156 525 1284 448 1284 c 0x3d80
608 1040 m 0
 704 1040 805 1021 866 913 c 0
 896 860 896 785 896 749 c 2
 896 0 l 1
 768 0 l 1x7e80
 768 123 l 1
 758 123 l 1
 694 35 617 -16 508 -16 c 0
 455 -16 347 10 283 106 c 0
 249 157 224 224 224 301 c 0xbe80
 224 383 249 470 312 533 c 0
 402 622 512 622 574 622 c 2
 768 622 l 1
 768 744 l 2
 768 788 768 831 750 862 c 0
 729 898 696 920 608 920 c 0
 520 920 408 910 320 899 c 1
 320 1021 l 1
 407 1031 516 1040 608 1040 c 0
768 512 m 1
 572 512 l 2
 517 512 459 512 408 458 c 0
 372 420 352 362 352 303 c 0
 352 194 425 104 532 104 c 0xbe80
 638 104 715 162 746 235 c 0
 768 287 768 349 768 421 c 2
 768 512 l 1
EndSplineSet
Validated: 1
Layer: 2
Layer: 3
Layer: 4
EndChar
StartChar: adieresis
Encoding: 228 228 135
Width: 1024
VWidth: 0
Flags: W
HStem: -16 120<423.655 653.37> 0 21G<768 896> 512 110<427.031 768> 920 120<324.118 734.871> 1200 224<264.237 439.763 712.237 887.763>
VStem: 224 128<177.716 436.002> 240 224<1224.24 1399.76> 688 224<1224.24 1399.76> 768 128<0 123 205.213 512 622 886.778>
LayerCount: 5
Back
Fore
SplineSet
352 1424 m 0x3c
 418 1424 464 1378 464 1312 c 0x3a
 464 1246 418 1200 352 1200 c 0x3c
 286 1200 240 1246 240 1312 c 0x3a
 240 1378 286 1424 352 1424 c 0x3c
800 1424 m 0
 866 1424 912 1378 912 1312 c 0
 912 1246 866 1200 800 1200 c 0
 734 1200 688 1246 688 1312 c 0x39
 688 1378 734 1424 800 1424 c 0
608 1040 m 0
 704 1040 805 1021 866 913 c 0
 896 860 896 785 896 749 c 2
 896 0 l 1
 768 0 l 1x7c80
 768 123 l 1
 758 123 l 1
 694 35 617 -16 508 -16 c 0
 455 -16 347 10 283 106 c 0
 249 157 224 224 224 301 c 0
 224 383 249 470 312 533 c 0
 402 622 512 622 574 622 c 2
 768 622 l 1
 768 744 l 2xbc80
 768 788 768 831 750 862 c 0
 729 898 696 920 608 920 c 0
 520 920 408 910 320 899 c 1
 320 1021 l 1
 407 1031 516 1040 608 1040 c 0
768 512 m 1
 572 512 l 2
 517 512 459 512 408 458 c 0
 372 420 352 362 352 303 c 0
 352 194 425 104 532 104 c 0xbc80
 638 104 715 162 746 235 c 0
 768 287 768 349 768 421 c 2
 768 512 l 1
EndSplineSet
Validated: 1
Layer: 2
Layer: 3
Layer: 4
EndChar
StartChar: aring
Encoding: 229 229 136
GlifName: aring
Width: 1024
VWidth: 0
Flags: W
HStem: -16 120<423.655 653.37> 0 21G<768 896> 512 110<427.031 768> 899 122<320 389.75> 920 120<487.415 667.289> 1296 100<486.332 665.668>
VStem: 224 128<177.716 436.002> 348 108<1069.2 1267.19> 696 108<1069.15 1267.19> 768 128<0 123 205.213 512 622 886.778>
LayerCount: 5
Back
Fore
SplineSet
576 1396 m 0x3540
 711 1396 804 1295 804 1168 c 0x3580
 804 1110 784 1057 750 1017 c 1
 795 999 836 967 866 913 c 0
 896 860 896 785 896 749 c 2
 896 0 l 1
 768 0 l 1x7440
 768 123 l 1
 758 123 l 1
 694 35 617 -16 508 -16 c 0
 455 -16 347 10 283 106 c 0
 249 157 224 224 224 301 c 0
 224 383 249 470 312 533 c 0
 402 622 512 622 574 622 c 2
 768 622 l 1
 768 744 l 2
 768 788 768 831 750 862 c 0
 729 898 696 920 608 920 c 0xae40
 520 920 408 910 320 899 c 1
 320 1021 l 1
 343 1024 367 1027 392 1029 c 1
 364 1067 348 1115 348 1168 c 0
 348 1295 441 1396 576 1396 c 0x3540
576 1296 m 0
 506 1296 456 1251 456 1168 c 0
 456 1085 506 1040 576 1040 c 0x2d80
 646 1040 696 1085 696 1168 c 0
 696 1251 646 1296 576 1296 c 0
768 512 m 1xa640
 572 512 l 2
 517 512 459 512 408 458 c 0
 372 420 352 362 352 303 c 0
 352 194 425 104 532 104 c 0
 638 104 715 162 746 235 c 0
 768 287 768 349 768 421 c 2
 768 512 l 1xa640
EndSplineSet
Validated: 1
Layer: 2
Layer: 3
Layer: 4
EndChar
StartChar: ccedilla
Encoding: 231 231 138
GlifName: ccedilla
Width: 1024
VWidth: 0
Flags: W
HStem: -400 120<386.225 605.949> -16 120<458.267 635.959> 920 120<456.365 872.381>
VStem: 224 128<219.663 804.337> 640 128<-233.261 -14>
LayerCount: 5
Back
Fore
SplineSet
768 -105 m 2
 768 -165 768 -235 716 -305 c 0
 674 -362 602 -400 512 -400 c 0
 477 -400 431 -393 384 -383 c 1
 384 -260 l 1
 432 -271 478 -280 512 -280 c 0
 559 -280 591 -263 612 -235 c 0
 640 -198 640 -155 640 -105 c 2
 640 -14 l 1
 621 -15 603 -16 586 -16 c 0
 417 -16 311 78 264 193 c 0
 226 286 224 391 224 512 c 0
 224 633 226 738 264 831 c 0
 311 946 417 1040 586 1040 c 0
 669 1040 769 1025 896 999 c 1
 896 876 l 1
 768 903 662 920 586 920 c 0
 485 920 420 872 384 789 c 0
 352 716 352 614 352 512 c 0
 352 410 352 308 384 235 c 0
 420 152 485 104 586 104 c 0
 662 104 768 121 896 148 c 1
 896 25 l 1
 847 15 802 6 761 0 c 1
 768 0 l 1
 768 -105 l 2
EndSplineSet
Validated: 1
Layer: 2
Layer: 3
Layer: 4
EndChar
StartChar: otilde
Encoding: 245 245 152
Width: 1024
VWidth: 0
Flags: W
HStem: -16 120<453.486 698.514> 920 120<453.486 698.514> 1156 120<631.752 755.472> 1284 120<396.554 520.248>
VStem: 224 128<221.199 802.801> 253 128<1177 1272.2> 771 128<1283.8 1383> 800 128<221.199 802.801>
LayerCount: 5
Back
Fore
SplineSet
448 1284 m 0xf6
 397 1284 384 1225 381 1171 c 1
 253 1177 l 1
 257 1295 319 1404 448 1404 c 0
 594 1404 627 1276 704 1276 c 0
 755 1276 768 1335 771 1389 c 1
 899 1383 l 1
 896 1267 833 1156 704 1156 c 0
 558 1156 525 1284 448 1284 c 0xf6
576 920 m 0
 480 920 416 868 384 789 c 0
 354 714 352 614 352 512 c 0
 352 410 354 310 384 235 c 0
 416 156 480 104 576 104 c 0
 672 104 736 156 768 235 c 0
 798 310 800 410 800 512 c 0xf9
 800 614 798 714 768 789 c 0
 736 868 672 920 576 920 c 0
576 1040 m 0
 736 1040 842 945 888 829 c 0
 926 734 928 633 928 512 c 0
 928 391 926 290 888 195 c 0
 842 79 736 -16 576 -16 c 0
 416 -16 310 79 264 195 c 0
 226 290 224 391 224 512 c 0
 224 633 226 734 264 829 c 0
 310 945 416 1040 576 1040 c 0
EndSplineSet
Layer: 2
Layer: 3
Layer: 4
EndChar
StartChar: odieresis
Encoding: 246 246 153
Width: 1024
VWidth: 0
Flags: W
HStem: -16 120<453.486 698.514> 920 120<453.486 698.514> 1200 224<264.237 439.763 712.237 887.763>
VStem: 224 128<221.199 802.801> 240 224<1224.24 1399.76> 688 224<1224.24 1399.76> 800 128<221.199 802.801>
LayerCount: 5
Back
Fore
SplineSet
352 1424 m 0xf0
 418 1424 464 1378 464 1312 c 0xe8
 464 1246 418 1200 352 1200 c 0xf0
 286 1200 240 1246 240 1312 c 0xe8
 240 1378 286 1424 352 1424 c 0xf0
800 1424 m 0xe2
 866 1424 912 1378 912 1312 c 0xe4
 912 1246 866 1200 800 1200 c 0xe2
 734 1200 688 1246 688 1312 c 0xe4
 688 1378 734 1424 800 1424 c 0xe2
576 920 m 0
 480 920 416 868 384 789 c 0
 354 714 352 614 352 512 c 0
 352 410 354 310 384 235 c 0
 416 156 480 104 576 104 c 0
 672 104 736 156 768 235 c 0
 798 310 800 410 800 512 c 0xf2
 800 614 798 714 768 789 c 0
 736 868 672 920 576 920 c 0
576 1040 m 0
 736 1040 842 945 888 829 c 0
 926 734 928 633 928 512 c 0
 928 391 926 290 888 195 c 0
 842 79 736 -16 576 -16 c 0
 416 -16 310 79 264 195 c 0
 226 290 224 391 224 512 c 0
 224 633 226 734 264 829 c 0
 310 945 416 1040 576 1040 c 0
EndSplineSet
Layer: 2
Layer: 3
Layer: 4
EndChar
StartChar: divide
Encoding: 247 247 154
GlifName: divide
Width: 1024
VWidth: 0
Flags: W
HStem: 112 224<486.609 665.391> 516 120<128 1024> 816 224<486.609 665.391>
VStem: 464 224<134.609 313.391 838.609 1017.39>
CounterMasks: 1 e0
LayerCount: 5
Back
Fore
SplineSet
1024 636 m 5
 1024 516 l 5
 128 516 l 5
 128 636 l 5
 1024 636 l 5
576 336 m 4
 642 336 688 290 688 224 c 4
 688 158 642 112 576 112 c 4
 510 112 464 158 464 224 c 4
 464 290 510 336 576 336 c 4
576 1040 m 4
 642 1040 688 994 688 928 c 4
 688 862 642 816 576 816 c 4
 510 816 464 862 464 928 c 4
 464 994 510 1040 576 1040 c 4
EndSplineSet
Layer: 2
Layer: 3
Layer: 4
EndChar
StartChar: yacute
Encoding: 253 253 160
GlifName: yacute
Width: 1024
VWidth: 0
Flags: W
HStem: -400 120<256 447.574> 1004 20G<204 365 788 948> 1388 20G<660.031 811>
VStem: 204 131<848.307 1024> 817 131<838.556 1024>
LayerCount: 5
Back
Fore
SplineSet
608 115 m 1
 696 414 759 717 817 1024 c 1
 948 1024 l 1
 878 655 812 351 677 -73 c 0
 644 -177 608 -271 547 -321 c 0
 492 -367 411 -400 256 -400 c 1
 256 -280 l 1
 338 -280 418 -266 453 -239 c 0
 500 -203 520 -140 568 0 c 1
 517 0 l 1
 360 326 273 676 204 1024 c 1
 335 1024 l 1
 395 711 472 400 598 115 c 1
 608 115 l 1
507 1152 m 5
 673 1408 l 5
 811 1408 l 5
 645 1152 l 5
 507 1152 l 5
EndSplineSet
Validated: 1
Layer: 2
Layer: 3
Layer: 4
EndChar
StartChar: ydieresis
Encoding: 255 255 162
GlifName: ydieresis
Width: 1024
VWidth: 0
Flags: W
HStem: -400 120<256 447.574> 1004 20G<204 365 788 948> 1162 224<264.237 439.763 712.237 887.763>
VStem: 204 131<848.307 1024> 240 224<1186.24 1361.76> 688 224<1186.24 1361.76> 817 131<838.556 1024>
LayerCount: 5
Back
Fore
SplineSet
608 115 m 5xf2
 696 414 759 717 817 1024 c 5
 948 1024 l 5
 878 655 812 351 677 -73 c 4
 644 -177 608 -271 547 -321 c 4
 492 -367 411 -400 256 -400 c 5
 256 -280 l 5
 338 -280 418 -266 453 -239 c 4
 500 -203 520 -140 568 0 c 5
 517 0 l 5
 360 326 273 676 204 1024 c 5
 335 1024 l 5
 395 711 472 400 598 115 c 5
 608 115 l 5xf2
800 1386 m 4
 866 1386 912 1340 912 1274 c 4
 912 1208 866 1162 800 1162 c 4
 734 1162 688 1208 688 1274 c 4xe4
 688 1340 734 1386 800 1386 c 4
352 1386 m 4
 418 1386 464 1340 464 1274 c 4
 464 1208 418 1162 352 1162 c 4
 286 1162 240 1208 240 1274 c 4xe8
 240 1340 286 1386 352 1386 c 4
EndSplineSet
Validated: 1
Layer: 2
Layer: 3
Layer: 4
EndChar
StartChar: Abreve
Encoding: 258 258 169
Width: 1024
VWidth: 0
Flags: W
HStem: 0 21G<103 244.5 907.5 1049> 388 120<330 821> 1043 109<546.217 605.766> 1264 120<425.835 726.165>
VStem: 103 135<0 226.397> 236 128<1441.88 1536> 788 128<1441.88 1536> 914 135<0 226.397>
LayerCount: 5
Back
Fore
SplineSet
788 1536 m 1xf6
 916 1536 l 1
 916 1368 764 1264 576 1264 c 0
 388 1264 236 1368 236 1536 c 1
 364 1536 l 1
 364 1450 433 1384 576 1384 c 0
 719 1384 788 1450 788 1536 c 1xf6
103 0 m 1xf9
 156 406 267 794 511 1152 c 1
 641 1152 l 1
 885 794 996 406 1049 0 c 1
 914 0 l 1
 901 136 884 265 851 388 c 1
 301 388 l 1
 268 265 251 136 238 0 c 1
 103 0 l 1xf9
821 508 m 1
 767 708 689 887 581 1043 c 1
 571 1043 l 1
 463 887 384 708 330 508 c 1
 821 508 l 1
EndSplineSet
Layer: 2
Layer: 3
Layer: 4
EndChar
StartChar: aogonek
Encoding: 261 261 166
Width: 1024
VWidth: 0
Flags: W
HStem: -400 120<777.947 896> -16 120<423.655 653.37> 512 110<427.031 768> 920 120<324.593 734.871>
VStem: 224 128<177.716 436.002> 640 128<-272.685 -85.8701> 768 128<-27.7611 123 205.213 512 622 886.778>
LayerCount: 5
Back
Fore
SplineSet
768 0 m 5xfa
 768 123 l 1
 758 123 l 1
 694 35 617 -16 508 -16 c 0
 455 -16 347 10 283 106 c 0
 249 157 224 224 224 301 c 0
 224 383 249 470 312 533 c 0
 402 622 512 622 574 622 c 2
 768 622 l 1
 768 744 l 2
 768 788 768 831 750 862 c 0
 729 898 696 920 608 920 c 0
 549 920 418 906 320 891 c 1
 320 1013 l 1
 417 1027 545 1040 608 1040 c 0
 704 1040 805 1021 866 913 c 0
 896 860 896 785 896 749 c 2
 896 0 l 5xfa
 808 -60 768 -113 768 -198 c 4xfc
 768 -258 806 -280 837 -280 c 4
 858 -280 878 -277 896 -268 c 5
 896 -389 l 5xfa
 872 -398 845 -400 817 -400 c 4
 738 -400 640 -325 640 -205 c 4xfc
 640 -107 707 -43 768 0 c 5xfa
768 512 m 1
 572 512 l 2
 517 512 459 512 408 458 c 0
 372 420 352 362 352 303 c 0
 352 194 425 104 532 104 c 0
 638 104 715 162 746 235 c 0
 768 287 768 349 768 421 c 2
 768 512 l 1
EndSplineSet
Validated: 1
Layer: 2
Layer: 3
Layer: 4
EndChar
StartChar: Cacute
Encoding: 262 262 171
GlifName: C_acute
Width: 1024
VWidth: 0
Flags: W
HStem: -16 120<454.463 908.867> 1048 120<454.463 908.658>
VStem: 112 128<340.161 811.839>
LayerCount: 5
Back
Fore
SplineSet
488 1280 m 1
 654 1536 l 1
 792 1536 l 1
 626 1280 l 1
 488 1280 l 1
643 104 m 0
 785 104 903 142 1024 173 c 1
 1024 49 l 1
 907 19 787 -16 643 -16 c 0
 300 -16 112 213 112 576 c 0
 112 939 300 1168 643 1168 c 0
 786 1168 907 1133 1024 1103 c 1
 1024 979 l 1
 903 1010 784 1048 643 1048 c 0
 370 1048 240 870 240 576 c 0
 240 282 370 104 643 104 c 0
EndSplineSet
Validated: 1
Layer: 2
Layer: 3
Layer: 4
EndChar
StartChar: cacute
Encoding: 263 263 172
Width: 1024
VWidth: 0
Flags: W
HStem: -16 120<456.365 872.381> 920 120<456.365 872.381>
VStem: 224 128<219.663 804.337>
LayerCount: 5
Back
Fore
SplineSet
488 1152 m 1
 626 1152 l 1
 792 1408 l 1
 654 1408 l 1
 488 1152 l 1
224 512 m 0
 224 633 226 738 264 831 c 0
 311 946 417 1040 586 1040 c 0
 669 1040 769 1025 896 999 c 1
 896 876 l 1
 768 903 662 920 586 920 c 0
 485 920 420 872 384 789 c 0
 352 716 352 614 352 512 c 0
 352 410 352 308 384 235 c 0
 420 152 485 104 586 104 c 0
 662 104 768 121 896 148 c 1
 896 25 l 1
 769 -1 669 -16 586 -16 c 0
 417 -16 311 78 264 193 c 0
 226 286 224 391 224 512 c 0
EndSplineSet
Layer: 2
Layer: 3
Layer: 4
EndChar
StartChar: cdotaccent
Encoding: 267 267 176
GlifName: cdotaccent
Width: 1024
VWidth: 0
Flags: W
HStem: -16 120<460.362 891.345> 920 120<460.362 871.765> 1200 224<488.237 663.763>
VStem: 224 128<227.883 796.117> 464 224<1224.24 1399.76>
LayerCount: 5
Back
Fore
SplineSet
224 512 m 4
 224 633 226 738 267 831 c 4
 317 946 418 1040 606 1040 c 4
 709 1040 786 1032 876 1018 c 5
 876 898 l 5
 785 912 702 920 606 920 c 4
 486 920 427 872 387 789 c 4
 352 716 352 614 352 512 c 4
 352 410 352 308 387 235 c 4
 427 152 486 104 606 104 c 4
 706 104 796 114 896 130 c 5
 896 10 l 5
 797 -6 713 -16 606 -16 c 4
 418 -16 317 78 267 193 c 4
 226 286 224 391 224 512 c 4
576 1424 m 0
 642 1424 688 1378 688 1312 c 0
 688 1246 642 1200 576 1200 c 0
 510 1200 464 1246 464 1312 c 0
 464 1378 510 1424 576 1424 c 0
EndSplineSet
Validated: 1
Layer: 2
Layer: 3
Layer: 4
EndChar
StartChar: ccaron
Encoding: 269 269 178
GlifName: ccaron
Width: 1024
VWidth: 0
Flags: W
HStem: -16 120<460.362 891.345> 920 120<460.362 871.765> 1388 20G<200 384.585 767.415 952>
VStem: 224 128<227.883 796.117>
LayerCount: 5
Back
Fore
SplineSet
224 512 m 4
 224 633 226 738 267 831 c 4
 317 946 418 1040 606 1040 c 4
 709 1040 786 1032 876 1018 c 5
 876 898 l 5
 785 912 702 920 606 920 c 4
 486 920 427 872 387 789 c 4
 352 716 352 614 352 512 c 4
 352 410 352 308 387 235 c 4
 427 152 486 104 606 104 c 4
 706 104 796 114 896 130 c 5
 896 10 l 5
 797 -6 713 -16 606 -16 c 4
 418 -16 317 78 267 193 c 4
 226 286 224 391 224 512 c 4
497 1152 m 1
 200 1408 l 1
 358 1408 l 1
 576 1244 l 1
 794 1408 l 1
 952 1408 l 1
 655 1152 l 1
 497 1152 l 1
EndSplineSet
Validated: 1
Layer: 2
Layer: 3
Layer: 4
EndChar
StartChar: dcaron
Encoding: 271 271 180
GlifName: dcaron
Width: 1024
VWidth: 0
Flags: W
HStem: -16 120<450.208 671.898> 0 21G<768 896> 920 120<450.208 671.898> 1024 21G<1024 1152> 1388 20G<768 896 1024 1152>
VStem: 224 128<220.345 803.655> 768 128<0 125 219.664 804.336 899 1408> 1024 128<1024 1408>
LayerCount: 5
Back
Fore
SplineSet
1024 1408 m 1x1f
 1152 1408 l 1
 1152 1024 l 1
 1024 1024 l 1
 1024 1408 l 1x1f
EndSplineSet
Refer: 4 100 N 1 0 0 1 0 0 2
Validated: 1
Layer: 2
Layer: 3
Layer: 4
EndChar
StartChar: Emacron
Encoding: 274 274 183
Width: 1024
VWidth: 0
Flags: W
HStem: 0 120<384 1024> 516 120<384 896> 1032 120<384 1024> 1416 120<256 896>
VStem: 256 128<120 516 636 1032>
LayerCount: 5
Back
Fore
SplineSet
256 1536 m 1
 896 1536 l 1
 896 1416 l 1
 256 1416 l 1
 256 1536 l 1
256 1152 m 1
 1024 1152 l 1
 1024 1032 l 1
 384 1032 l 1
 384 636 l 1
 896 636 l 1
 896 516 l 1
 384 516 l 1
 384 120 l 1
 1024 120 l 1
 1024 0 l 1
 256 0 l 1
 256 1152 l 1
EndSplineSet
Validated: 1
Layer: 2
Layer: 3
Layer: 4
EndChar
StartChar: ebreve
Encoding: 277 277 186
GlifName: ebreve
Width: 1024
VWidth: 0
Flags: W
HStem: -16 120<457.677 891.106> 512 120<355 797> 920 120<453.486 698.514> 1136 120<425.835 726.165> 1388 20G<236 364 788 916>
VStem: 224 128<219.686 512 632 802.112 1327.25 1408> 788 128<1313.88 1408>
LayerCount: 5
Back
Fore
SplineSet
352 512 m 5
 352 410 352 308 384 235 c 4
 421 151 490 104 596 104 c 4
 689 104 791 112 896 125 c 5
 896 5 l 5
 792 -8 696 -16 596 -16 c 4
 422 -16 311 77 264 193 c 4
 226 286 224 391 224 512 c 4
 224 633 226 734 264 829 c 4
 310 945 416 1040 576 1040 c 4
 736 1040 842 945 888 829 c 4
 926 734 928 633 928 512 c 5
 352 512 l 5
797 632 m 5
 794 690 786 744 768 789 c 4
 736 868 672 920 576 920 c 4
 480 920 416 868 384 789 c 4
 366 744 358 690 355 632 c 5
 797 632 l 5
788 1408 m 1
 916 1408 l 1
 916 1240 764 1136 576 1136 c 0
 388 1136 236 1240 236 1408 c 1
 364 1408 l 1
 364 1322 433 1256 576 1256 c 0
 719 1256 788 1322 788 1408 c 1
EndSplineSet
Validated: 1
Layer: 2
Layer: 3
Layer: 4
EndChar
StartChar: edotaccent
Encoding: 279 279 188
GlifName: edotaccent
Width: 1024
VWidth: 0
Flags: W
HStem: -16 120<457.677 891.106> 512 120<355 797> 920 120<453.486 698.514> 1200 224<488.237 663.763>
VStem: 224 128<219.686 512 632 802.112> 464 224<1224.24 1399.76>
LayerCount: 5
Back
Fore
SplineSet
352 512 m 5
 352 410 352 308 384 235 c 4
 421 151 490 104 596 104 c 4
 689 104 791 112 896 125 c 5
 896 5 l 5
 792 -8 696 -16 596 -16 c 4
 422 -16 311 77 264 193 c 4
 226 286 224 391 224 512 c 4
 224 633 226 734 264 829 c 4
 310 945 416 1040 576 1040 c 4
 736 1040 842 945 888 829 c 4
 926 734 928 633 928 512 c 5
 352 512 l 5
797 632 m 5
 794 690 786 744 768 789 c 4
 736 868 672 920 576 920 c 4
 480 920 416 868 384 789 c 4
 366 744 358 690 355 632 c 5
 797 632 l 5
576 1424 m 0
 642 1424 688 1378 688 1312 c 0
 688 1246 642 1200 576 1200 c 0
 510 1200 464 1246 464 1312 c 0
 464 1378 510 1424 576 1424 c 0
EndSplineSet
Validated: 1
Layer: 2
Layer: 3
Layer: 4
EndChar
StartChar: Eogonek
Encoding: 280 280 163
Width: 1024
VWidth: 0
Flags: W
HStem: -400 120<905.947 1024> 0 120<384 896> 644 120<384 896> 1288 120<384 1024>
VStem: 256 128<120 644 764 1288> 768 128<-272.685 -85.8701>
LayerCount: 5
Back
Fore
SplineSet
896 0 m 5
 256 0 l 1
 256 1408 l 1
 1024 1408 l 1
 1024 1288 l 1
 384 1288 l 1
 384 764 l 1
 896 764 l 1
 896 644 l 1
 384 644 l 1
 384 120 l 1
 1024 120 l 1
 1024 0 l 5
 936 -60 896 -113 896 -198 c 4
 896 -258 934 -280 965 -280 c 4
 986 -280 1006 -277 1024 -268 c 5
 1024 -389 l 5
 1000 -398 973 -400 945 -400 c 4
 866 -400 768 -325 768 -205 c 4
 768 -107 835 -43 896 0 c 5
EndSplineSet
Layer: 2
Layer: 3
Layer: 4
EndChar
StartChar: Eogonek
Encoding: 280 280 163
Width: 1024
VWidth: 0
Flags: W
HStem: -400 120<905.928 1024> 0 120<384 896> 644 120<384 896> 1288 120<384 1024>
VStem: 256 128<120 644 764 1288> 768 128<-272.685 -85.8701>
LayerCount: 5
Back
Fore
SplineSet
896 0 m 5
 256 0 l 1
 256 1408 l 1
 1024 1408 l 1
 1024 1288 l 1
 384 1288 l 1
 384 764 l 1
 896 764 l 1
 896 644 l 1
 384 644 l 1
 384 120 l 1
 1024 120 l 1
 1024 0 l 5
 935.818181818 -60 896 -113 896 -198 c 4
 896 -258 934.031496063 -280 965 -280 c 4
 986.03875969 -280 1006.1627907 -277 1024 -268 c 5
 1024 -389 l 5
 999.503875969 -397.561085973 973.170542636 -400 945 -400 c 4
 865.870588235 -400 768 -325 768 -205 c 4
 768 -107 835.380392157 -43 896 0 c 5
EndSplineSet
Layer: 2
Layer: 3
Layer: 4
EndChar
StartChar: eogonek
Encoding: 281 281 164
Width: 1024
VWidth: 0
Flags: W
HStem: -358 120<667.62 894.146> -16 120<455.351 591> 25 123<735.375 896> 512 120<355 797> 920 120<453.076 698.924>
VStem: 224 128<219.851 512 632 798.259> 512 128<-209.97 -44.7033> 797 131<632 803.86>
LayerCount: 5
Back
Fore
SplineSet
797 632 m 1x9f
 789 790 733 920 576 920 c 0
 419 920 363 790 355 632 c 1
 797 632 l 1x9f
896 25 m 1xbf
 809 6.51351351351 640 -6.62162162162 640 -126 c 0
 640 -207.951219512 710 -238 767 -238 c 0
 813 -238 857 -228 896 -218 c 1
 896 -341 l 1
 856 -349 813 -358 767 -358 c 0
 653 -358 512 -271.461538462 512 -133 c 0
 512 -76.7792207792 557 -26.6363636364 591 -16 c 1
 421 -16 310 81 264 193 c 0
 226 286 224 391 224 512 c 0
 224 633 226 734 264 829 c 0
 310 945 416 1040 576 1040 c 0
 736 1040 842 945 888 829 c 0
 926 734 928 633 928 512 c 1
 352 512 l 1
 352 410 352 308 384 235 c 0
 420 152 485 104 586 104 c 0xdf
 662 104 768 121 896 148 c 1
 896 107 896 66 896 25 c 1xbf
EndSplineSet
Layer: 2
Layer: 3
Layer: 4
EndChar
StartChar: Gcircumflex
Encoding: 284 284 191
Width: 1024
VWidth: 0
Flags: W
HStem: -16 120<454.463 894.008> 520 120<640 896> 1048 120<454.463 908.658>
VStem: 112 128<340.161 811.839> 896 128<130.964 520>
LayerCount: 5
Back
Fore
SplineSet
497 1536 m 1
 655 1536 l 1
 952 1280 l 1
 794 1280 l 1
 576 1444 l 1
 358 1280 l 1
 200 1280 l 1
 497 1536 l 1
896 140 m 1
 896 520 l 1
 640 520 l 1
 640 640 l 1
 1024 640 l 1
 1024 49 l 1
 907 19 787 -16 643 -16 c 0
 300 -16 112 213 112 576 c 0
 112 939 300 1168 643 1168 c 0
 786 1168 907 1133 1024 1103 c 1
 1024 979 l 1
 903 1010 784 1048 643 1048 c 0
 370 1048 240 870 240 576 c 0
 240 282 370 104 643 104 c 0
 735 104 817 120 896 140 c 1
EndSplineSet
Layer: 2
Layer: 3
Layer: 4
EndChar
StartChar: Gbreve
Encoding: 286 286 193
GlifName: G_breve
Width: 1024
VWidth: 0
Flags: W
HStem: -16 120<454.463 894.008> 520 120<640 896> 1048 120<454.463 908.658> 1264 120<425.835 726.165>
VStem: 112 128<340.161 811.839> 236 128<1441.88 1536> 788 128<1441.88 1536> 896 128<130.964 520>
LayerCount: 5
Back
Fore
SplineSet
788 1536 m 1xf6
 916 1536 l 1
 916 1368 764 1264 576 1264 c 0
 388 1264 236 1368 236 1536 c 1
 364 1536 l 1
 364 1450 433 1384 576 1384 c 0
 719 1384 788 1450 788 1536 c 1xf6
896 140 m 1xf9
 896 520 l 1
 640 520 l 1
 640 640 l 1
 1024 640 l 1
 1024 49 l 1
 907 19 787 -16 643 -16 c 0
 300 -16 112 213 112 576 c 0
 112 939 300 1168 643 1168 c 0
 786 1168 907 1133 1024 1103 c 1
 1024 979 l 1
 903 1010 784 1048 643 1048 c 0
 370 1048 240 870 240 576 c 0
 240 282 370 104 643 104 c 0
 735 104 817 120 896 140 c 1xf9
EndSplineSet
Validated: 1
Layer: 2
Layer: 3
Layer: 4
EndChar
StartChar: gbreve
Encoding: 287 287 194
Width: 1024
VWidth: 0
Flags: W
HStem: -400 120<323.207 677.227> -16 120<445.978 668.384> 920 120<445.978 668.384> 1004 20G<768 896> 1136 120<418.746 733.254> 1388 20G<236 364 788 916>
VStem: 224 128<213.326 810.674 1320.51 1408> 768 128<-181.979 125 212.637 811.363 899 1024> 788 128<1307.69 1408>
LayerCount: 5
Back
Fore
SplineSet
560 920 m 4xef
 464 920 404 847 378 768 c 4
 353 692 352 604 352 512 c 4
 352 420 353 332 378 256 c 4
 404 177 464 104 560 104 c 4
 656 104 716 177 742 256 c 4
 767 332 768 420 768 512 c 4
 768 604 767 692 742 768 c 4
 716 847 656 920 560 920 c 4xef
540 1040 m 4
 623 1040 699 991 758 899 c 5
 768 899 l 5
 768 1024 l 5
 896 1024 l 5xdf
 896 32 l 6
 896 -28 896 -139 835 -241 c 4
 780 -333 684 -400 536 -400 c 4
 464.257142857 -400 388.657142857 -385.897435897 320 -375 c 5
 320 -252 l 5
 387.885714286 -263.333333333 468.114285714 -280 536 -280 c 4
 632 -280 687 -241 724 -182 c 4
 768 -111 768 -15 768 32 c 6
 768 125 l 5
 758 125 l 5
 699 33 623 -16 540 -16 c 4
 409 -16 299 71 252 221 c 4
 224 311 224 400 224 512 c 4
 224 624 224 713 252 803 c 4
 299 953 409 1040 540 1040 c 4
788 1408 m 1xce80
 916 1408 l 1
 916 1240 764 1136 576 1136 c 0
 388 1136 236 1240 236 1408 c 1
 364 1408 l 1
 364 1322 433 1256 576 1256 c 0
 719 1256 788 1322 788 1408 c 1xce80
EndSplineSet
Layer: 2
Layer: 3
Layer: 4
EndChar
StartChar: Gdotaccent
Encoding: 288 288 195
Width: 1024
VWidth: 0
Flags: W
HStem: -16 120<443.402 894.008> 520 120<640 896> 1048 120<443.402 928.567> 1328 224<485.032 666.968>
VStem: 112 128<328.306 823.694> 464 224<1349.03 1530.97> 896 128<129.251 520>
LayerCount: 5
Back
Fore
SplineSet
576 1552 m 0
 642 1552 688 1506 688 1440 c 0
 688 1374 642 1328 576 1328 c 0
 510 1328 464 1374 464 1440 c 0
 464 1506 510 1552 576 1552 c 0
896 140 m 1
 896 520 l 1
 640 520 l 1
 640 640 l 1
 1024 640 l 1
 1024 49 l 1
 907 19 787 -16 643 -16 c 0
 300 -16 112 213 112 576 c 0
 112 939 300 1168 643 1168 c 0
 786 1168 907 1133 1024 1103 c 1
 1024 979 l 1
 903 1010 784 1048 643 1048 c 0
 370 1048 240 870 240 576 c 0
 240 282 370 104 643 104 c 0
 735 104 817 120 896 140 c 1
EndSplineSet
Layer: 2
Layer: 3
Layer: 4
EndChar
StartChar: gdotaccent
Encoding: 289 289 196
Width: 1024
VWidth: 0
Flags: W
HStem: -400 120<323.207 670.834> -16 120<451.69 661.932> 920 120<451.69 661.932> 1004 20G<768 896> 1200 224<488.237 663.763>
VStem: 224 128<224.216 799.784> 464 224<1224.24 1399.76> 768 128<-171.858 125 223.214 800.786 899 1024>
LayerCount: 5
Back
Fore
SplineSet
560 920 m 4xef
 464 920 404 847 378 768 c 4
 353 692 352 604 352 512 c 4
 352 420 353 332 378 256 c 4
 404 177 464 104 560 104 c 4
 656 104 716 177 742 256 c 4
 767 332 768 420 768 512 c 4
 768 604 767 692 742 768 c 4
 716 847 656 920 560 920 c 4xef
540 1040 m 4
 623 1040 699 991 758 899 c 5
 768 899 l 5
 768 1024 l 5
 896 1024 l 5xdf
 896 32 l 6
 896 -28 896 -139 835 -241 c 4
 780 -333 684 -400 536 -400 c 4
 464.257142857 -400 388.657142857 -385.897435897 320 -375 c 5
 320 -252 l 5
 387.885714286 -263.333333333 468.114285714 -280 536 -280 c 4
 632 -280 687 -241 724 -182 c 4
 768 -111 768 -15 768 32 c 6
 768 125 l 5
 758 125 l 5
 699 33 623 -16 540 -16 c 4
 409 -16 299 71 252 221 c 4
 224 311 224 400 224 512 c 4
 224 624 224 713 252 803 c 4
 299 953 409 1040 540 1040 c 4
576 1424 m 0
 642 1424 688 1378 688 1312 c 0
 688 1246 642 1200 576 1200 c 0
 510 1200 464 1246 464 1312 c 0
 464 1378 510 1424 576 1424 c 0
EndSplineSet
Layer: 2
Layer: 3
Layer: 4
EndChar
StartChar: uni0122
Encoding: 290 290 271
GlifName: uni0122
Width: 1024
VWidth: 0
Flags: W
HStem: -528 120<512 605.023> -16 120<456.029 892.627> 648 120<640 896> 1304 120<472.412 969.539>
VStem: 112 128<357.031 1045.85> 640 128<-361.261 -128> 896 128<122.036 648>
LayerCount: 5
Back
Fore
SplineSet
673 1424 m 4
 778 1424 881 1415 974 1402 c 5
 974 1282 l 5
 877 1295 769 1304 673 1304 c 4
 443 1304 313 1189 268 1016 c 4
 243 919 240 813 240 704 c 4
 240 595 243 489 268 392 c 4
 312 220 430 104 643 104 c 4
 724 104 811 113 896 128 c 5
 896 648 l 5
 640 648 l 5
 640 768 l 5
 1024 768 l 5
 1024 34 l 5
 907 6 777 -16 643 -16 c 4
 366 -16 199 142 143 364 c 4
 114 478 112 594 112 704 c 4
 112 814 114 930 143 1044 c 4
 200 1267 379 1424 673 1424 c 4
768 -233 m 2
 768 -293 768 -363 716 -433 c 0
 674 -490 602 -528 512 -528 c 1
 512 -408 l 1
 559 -408 591 -391 612 -363 c 0
 640 -326 640 -283 640 -233 c 2
 640 -128 l 1
 768 -128 l 1
 768 -233 l 2
EndSplineSet
Validated: 1
Layer: 2
Layer: 3
Layer: 4
EndChar
StartChar: Hcircumflex
Encoding: 292 292 220
Width: 1024
VWidth: 0
Flags: W
HStem: 0 21G<128 256 896 1024> 513 120<256 896>
VStem: 128 128<0 513 633 1152> 896 128<0 513 633 1152>
LayerCount: 5
Back
Fore
SplineSet
497 1536 m 1
 655 1536 l 1
 952 1280 l 1
 794 1280 l 1
 576 1444 l 1
 358 1280 l 1
 200 1280 l 1
 497 1536 l 1
128 1152 m 1
 256 1152 l 1
 256 633 l 1
 896 633 l 1
 896 1152 l 1
 1024 1152 l 1
 1024 0 l 1
 896 0 l 1
 896 513 l 1
 256 513 l 1
 256 0 l 1
 128 0 l 1
 128 1152 l 1
EndSplineSet
Validated: 1
Layer: 2
Layer: 3
Layer: 4
EndChar
StartChar: hcircumflex
Encoding: 293 293 221
GlifName: hcircumflex
Width: 1024
VWidth: 0
Flags: W
HStem: 0 21G<256 384 768 896> 792 120<474.999 700.525>
VStem: 256 128<0 725.095 784 1152> 768 128<0 725.095>
LayerCount: 5
Back
Fore
SplineSet
596 912 m 0
 696 912 777 867 827 805 c 0
 896 719 896 623 896 529 c 2
 896 0 l 1
 768 0 l 1
 768 529 l 2
 768 616 768 678 723 730 c 0
 691 767 640 792 576 792 c 0
 512 792 461 767 429 730 c 0
 384 678 384 616 384 529 c 2
 384 0 l 1
 256 0 l 1
 256 1152 l 1
 384 1152 l 1
 384 784 l 1
 394 784 l 1
 443 861 520 912 596 912 c 0
497 1536 m 1
 655 1536 l 1
 952 1280 l 1
 794 1280 l 1
 576 1444 l 1
 358 1280 l 1
 200 1280 l 1
 497 1536 l 1
EndSplineSet
Validated: 1
Layer: 2
Layer: 3
Layer: 4
EndChar
StartChar: Itilde
Encoding: 296 296 224
GlifName: I_tilde
Width: 1024
VWidth: 0
Flags: W
HStem: 0 120<256 512 640 896> 1032 120<256 512 640 896> 1284 120<631.752 755.472> 1412 120<396.554 520.248>
VStem: 253 128<1305 1400.2> 512 128<120 1032> 771 128<1411.8 1511>
CounterMasks: 1 0e
LayerCount: 5
Back
Fore
SplineSet
448 1412 m 0
 397 1412 384 1353 381 1299 c 1
 253 1305 l 1
 257 1423 319 1532 448 1532 c 0
 594 1532 627 1404 704 1404 c 0
 755 1404 768 1463 771 1517 c 1
 899 1511 l 1
 896 1395 833 1284 704 1284 c 0
 558 1284 525 1412 448 1412 c 0
896 1152 m 1
 896 1032 l 1
 640 1032 l 1
 640 120 l 1
 896 120 l 1
 896 0 l 1
 256 0 l 1
 256 120 l 1
 512 120 l 1
 512 1032 l 1
 256 1032 l 1
 256 1152 l 1
 896 1152 l 1
EndSplineSet
Validated: 1
Layer: 2
Layer: 3
Layer: 4
EndChar
StartChar: ibreve
Encoding: 301 301 229
Width: 1024
VWidth: 0
Flags: W
HStem: 0 120<256 512 640 896> 904 120<256 512> 1136 120<425.835 726.165> 1388 20G<236 364 788 916>
VStem: 236 128<1313.88 1408> 512 128<120 904> 788 128<1313.88 1408>
CounterMasks: 1 0e
LayerCount: 5
Back
Fore
SplineSet
788 1408 m 1
 916 1408 l 1
 916 1240 764 1136 576 1136 c 0
 388 1136 236 1240 236 1408 c 1
 364 1408 l 1
 364 1322 433 1256 576 1256 c 0
 719 1256 788 1322 788 1408 c 1
256 0 m 1
 256 120 l 1
 512 120 l 1
 512 904 l 1
 256 904 l 1
 256 1024 l 1
 640 1024 l 1
 640 120 l 1
 896 120 l 1
 896 0 l 1
 256 0 l 1
EndSplineSet
Layer: 2
Layer: 3
Layer: 4
EndChar
StartChar: Iogonek
Encoding: 302 302 230
GlifName: I_ogonek
Width: 1024
VWidth: 0
Flags: W
HStem: -350 120<760.763 896> 0 120<256 512 640 768 822.735 896> 1288 120<256 512 640 896>
VStem: 512 128<120 1288> 633 121<-222.015 -76.6042>
LayerCount: 5
Back
Fore
SplineSet
832 -230 m 0xe8
 855 -230 876 -229 896 -225 c 1
 896 -345 l 1
 870 -349 842 -350 812 -350 c 0
 732 -350 633 -287 633 -185 c 0xe8
 633 -97 704 -39 768 0 c 1
 256 0 l 1
 256 120 l 1
 512 120 l 1
 512 1288 l 1
 256 1288 l 1
 256 1408 l 1
 896 1408 l 1
 896 1288 l 1
 640 1288 l 1
 640 120 l 1xf0
 896 120 l 1
 896 0 l 1
 798 -48 754 -90 754 -158 c 0
 754 -211 797 -230 832 -230 c 0xe8
EndSplineSet
Validated: 1
Layer: 2
Layer: 3
Layer: 4
EndChar
StartChar: iogonek
Encoding: 303 303 231
Width: 1024
VWidth: 0
Flags: W
HStem: -400 120<656.839 894.146> 0 120<256 512 640 768> 904 120<256 512> 1200 224<456.237 631.763>
VStem: 432 224<1224.24 1399.76> 512 128<-258.407 -136.676 120 904>
LayerCount: 5
Back
Fore
SplineSet
544 1424 m 0xf8
 610 1424 656 1378 656 1312 c 0
 656 1246 610 1200 544 1200 c 0
 478 1200 432 1246 432 1312 c 0
 432 1378 478 1424 544 1424 c 0xf8
767 -280 m 0
 813 -280 857 -270 896 -260 c 1
 896 -383 l 1
 856 -391 813 -400 767 -400 c 0
 653 -400 512 -325 512 -205 c 0
 512 -57 707 -63 768 0 c 1
 256 0 l 1
 256 120 l 1
 512 120 l 1
 512 904 l 1
 256 904 l 1
 256 1024 l 1
 640 1024 l 1
 640 120 l 1
 896 120 l 1
 896 0 l 1
 855 -91 640 -103 640 -198 c 0xf4
 640 -258 710 -280 767 -280 c 0
EndSplineSet
Layer: 2
Layer: 3
Layer: 4
EndChar
StartChar: IJ
Encoding: 306 306 234
GlifName: I_J_
Width: 1024
VWidth: 0
Flags: W
HStem: -271 120<387.67 795.873> 0 120<128 256 384 512> 1160 120<128 256 384 512>
VStem: 128 384<0 120 1160 1280> 896 128<-38.6069 1280>
LayerCount: 5
Back
Fore
SplineSet
896 257 m 6
 896 1280 l 1
 1024 1280 l 1
 1024 257 l 6
 1024 140 1023 31 984 -62 c 4
 936 -176 834 -271 672 -271 c 4
 556 -271 463 -257 384 -247 c 5
 384 -126 l 5
 461 -137 561 -151 665 -151 c 4
 764 -151 828 -102 864 -20 c 4
 896 53 896 155 896 257 c 6
512 1280 m 1
 512 1160 l 1
 384 1160 l 1
 384 120 l 1
 512 120 l 1
 512 0 l 1
 128 0 l 1
 128 120 l 1
 256 120 l 1
 256 1160 l 1
 128 1160 l 1
 128 1280 l 1
 512 1280 l 1
EndSplineSet
Layer: 2
Layer: 3
Layer: 4
EndChar
StartChar: ij
Encoding: 307 307 235
Width: 1024
VWidth: 0
Flags: W
HStem: -528 120<386.703 707.284> 0 120<128 256 384 512> 904 120<128 256 640 768> 1200 224<197.032 378.968 709.032 890.968>
VStem: 128 256<904 1024> 176 224<1221.03 1402.97> 256 128<120 904> 640 256<898 1024> 688 224<1221.03 1402.97> 768 128<-347.771 898>
LayerCount: 5
Back
Fore
SplineSet
384 -365 m 1xf240
 439 -387 508 -408 576 -408 c 0
 643 -408 693 -384 725 -346 c 0
 768 -294 768 -230 768 -142 c 2
 768 898 l 1xf240
 640 898 l 1
 640 1024 l 1
 896 1024 l 1xf1
 896 -152 l 2
 896 -243 896 -338 828 -420 c 0
 776 -483 692 -528 586 -528 c 0
 511 -528 444 -513 384 -493 c 1
 384 -365 l 1xf240
800 1424 m 0
 866 1424 912 1378 912 1312 c 0
 912 1246 866 1200 800 1200 c 0
 734 1200 688 1246 688 1312 c 0xf080
 688 1378 734 1424 800 1424 c 0
288 1424 m 0
 354 1424 400 1378 400 1312 c 0
 400 1246 354 1200 288 1200 c 0
 222 1200 176 1246 176 1312 c 0xf4
 176 1378 222 1424 288 1424 c 0
128 0 m 1xf8
 128 120 l 1xf8
 256 120 l 1
 256 904 l 1xf2
 128 904 l 1
 128 1024 l 1
 384 1024 l 1xf8
 384 120 l 1xf2
 512 120 l 1
 512 0 l 1
 128 0 l 1xf8
EndSplineSet
Layer: 2
Layer: 3
Layer: 4
EndChar
StartChar: Lacute
Encoding: 313 313 278
Width: 1024
VWidth: 0
Flags: W
HStem: 0 120<384 1024>
VStem: 256 128<120 1152>
DStem2: 232 1280 370 1280 0.544066 0.839042<75.0812 305.11>
LayerCount: 5
Back
Fore
SplineSet
232 1280 m 1
 398 1536 l 1
 536 1536 l 1
 370 1280 l 1
 232 1280 l 1
256 0 m 1
 256 1152 l 1
 384 1152 l 1
 384 120 l 1
 1024 120 l 1
 1024 0 l 1
 256 0 l 1
EndSplineSet
Validated: 1
Layer: 2
Layer: 3
Layer: 4
EndChar
StartChar: lcaron
Encoding: 318 318 277
Width: 1024
VWidth: 0
Flags: W
HStem: -16 120<416.999 638.027> 1024 21G<768 896> 1388 20G<256 384 768 896>
VStem: 256 128<149.787 1408> 768 128<1024 1408>
LayerCount: 5
Back
Fore
SplineSet
768 1408 m 5
 896 1408 l 5
 896 1024 l 5
 768 1024 l 5
 768 1408 l 5
640 -2 m 5
 597 -9 552 -16 502 -16 c 4
 430 -16 371 9 329 52 c 4
 256 128 256 218 256 279 c 4
 256 655 256 1032 256 1408 c 5
 384 1408 l 5
 384 279 l 6
 384 232 384 186 412 148 c 4
 432 121 463 104 512 104 c 4
 549 104 599 113 640 121 c 5
 640 -2 l 5
EndSplineSet
Layer: 2
Layer: 3
Layer: 4
EndChar
StartChar: Ldot
Encoding: 319 319 282
GlifName: L_dot
Width: 1024
VWidth: 0
Flags: W
HStem: 0 120<384 1024> 720 224<614.609 793.391> 1388 20G<256 384>
VStem: 256 128<120 1408> 592 224<742.609 921.391>
LayerCount: 5
Back
Fore
SplineSet
704 944 m 0
 770 944 816 898 816 832 c 0
 816 766 770 720 704 720 c 0
 638 720 592 766 592 832 c 0
 592 898 638 944 704 944 c 0
256 0 m 1
 256 1408 l 1
 384 1408 l 1
 384 120 l 1
 1024 120 l 1
 1024 0 l 1
 256 0 l 1
EndSplineSet
Layer: 2
Layer: 3
Layer: 4
EndChar
StartChar: ldot
Encoding: 320 320 283
Width: 1024
VWidth: 0
Flags: W
HStem: -16 120<544.999 766.027> 720 224<744.237 919.763> 1388 20G<384 512>
VStem: 384 128<149.787 1408> 720 224<744.237 919.763>
LayerCount: 5
Back
Fore
SplineSet
832 944 m 0
 898 944 944 898 944 832 c 0
 944 766 898 720 832 720 c 0
 766 720 720 766 720 832 c 0
 720 898 766 944 832 944 c 0
768 -2 m 5
 725 -9 680 -16 630 -16 c 4
 558 -16 499 9 457 52 c 4
 384 128 384 218 384 279 c 6
 384 1408 l 5
 512 1408 l 5
 512 279 l 6
 512 232 512 186 540 148 c 4
 560 121 591 104 640 104 c 4
 677 104 727 113 768 121 c 5
 768 -2 l 5
EndSplineSet
Layer: 2
Layer: 3
Layer: 4
EndChar
StartChar: Lslash
Encoding: 321 321 284
GlifName: L_slash
Width: 1024
VWidth: 0
Flags: W
HStem: 0 120<512 1024> 1388 20G<384 512>
VStem: 384 128<120 523 765 1408>
LayerCount: 5
Back
Fore
SplineSet
128 491 m 1
 384 674 l 1
 384 1408 l 1
 512 1408 l 1
 512 765 l 1
 768 948 l 1
 768 797 l 1
 512 614 l 1
 512 120 l 1
 1024 120 l 1
 1024 0 l 1
 384 0 l 1
 384 523 l 1
 128 340 l 1
 128 491 l 1
EndSplineSet
Validated: 1
Layer: 2
Layer: 3
Layer: 4
EndChar
StartChar: Eng
Encoding: 330 330 245
GlifName: E_ng
Width: 1024
VWidth: 0
Flags: W
HStem: -400 120<514.703 832.366> 0 21G<128 256> 1388 20G<128 265.993 896 1024>
VStem: 128 128<0 1148> 896 128<-215.554 0 260 1408>
LayerCount: 5
Back
Fore
SplineSet
256 0 m 1
 128 0 l 1
 128 1408 l 1
 255 1408 l 1
 886 260 l 1
 896 260 l 1
 896 1408 l 1
 1024 1408 l 1
 1024 931 1024 453 1024 -24 c 0
 1024 -114 1024 -210 956 -292 c 0
 904 -355 820 -400 714 -400 c 0
 639 -400 572 -385 512 -365 c 1
 512 -237 l 1
 567 -259 636 -280 704 -280 c 0
 771 -280 821 -256 853 -218 c 0
 896 -166 896 -102 896 -14 c 2
 896 0 l 1
 266 1148 l 1
 256 1148 l 1
 256 0 l 1
EndSplineSet
Validated: 1
Layer: 2
Layer: 3
Layer: 4
EndChar
StartChar: eng
Encoding: 331 331 246
Width: 1024
VWidth: 0
Flags: W
HStem: -400 120<514.225 739.489> 0 21G<256 384> 920 120<471.273 704.311> 1004 20G<256 384>
VStem: 256 128<0 857.984 912 1024> 768 128<-233.261 854.076>
LayerCount: 5
Back
Fore
SplineSet
596 1040 m 0xec
 696 1040 777 995 827 933 c 0
 896 847 896 751 896 657 c 0
 896 403 896 149 896 -105 c 0
 896 -165 896 -235 844 -305 c 0
 802 -362 730 -400 640 -400 c 0
 605 -400 559 -393 512 -383 c 1
 512 -260 l 1
 560 -271 606 -280 640 -280 c 0
 687 -280 719 -263 740 -235 c 0
 768 -198 768 -155 768 -105 c 0
 768 149 768 403 768 657 c 0
 768 744 768 806 723 858 c 0
 691 895 640 920 576 920 c 0xec
 512 920 461 895 429 858 c 0
 384 806 384 744 384 657 c 2
 384 0 l 1
 256 0 l 1
 256 1024 l 1
 384 1024 l 1xdc
 384 912 l 1
 394 912 l 1
 443 989 520 1040 596 1040 c 0xec
EndSplineSet
Layer: 2
Layer: 3
Layer: 4
EndChar
StartChar: Obreve
Encoding: 334 334 249
GlifName: O_breve
Width: 1024
VWidth: 0
Flags: W
HStem: -16 120<414.083 737.917> 1048 120<414.083 737.917> 1264 120<425.835 726.165>
VStem: 112 128<299.47 852.53> 236 128<1441.88 1536> 788 128<1441.88 1536> 912 128<299.47 852.53>
LayerCount: 5
Back
Fore
SplineSet
788 1536 m 1xec
 916 1536 l 1
 916 1368 764 1264 576 1264 c 0
 388 1264 236 1368 236 1536 c 1
 364 1536 l 1
 364 1450 433 1384 576 1384 c 0
 719 1384 788 1450 788 1536 c 1xec
576 -16 m 0
 354 -16 206 110 149 284 c 0
 117 381 112 482 112 576 c 0
 112 670 117 771 149 868 c 0
 206 1042 354 1168 576 1168 c 0
 798 1168 946 1042 1003 868 c 0
 1035 771 1040 670 1040 576 c 0xf2
 1040 482 1035 381 1003 284 c 0
 946 110 798 -16 576 -16 c 0
912 576 m 0
 912 667 907 755 881 833 c 0
 839 961 740 1048 576 1048 c 0
 412 1048 313 961 271 833 c 0
 245 755 240 667 240 576 c 0
 240 485 245 397 271 319 c 0
 313 191 412 104 576 104 c 0
 740 104 839 191 881 319 c 0
 907 397 912 485 912 576 c 0
EndSplineSet
Validated: 1
Layer: 2
Layer: 3
Layer: 4
EndChar
StartChar: Racute
Encoding: 340 340 255
GlifName: R_acute
Width: 1024
VWidth: 0
Flags: W
HStem: 0 21G<128 256 789.654 938> 520 120<256 556> 1032 120<256 715.435>
VStem: 128 128<0 520 640 1032> 784 128<710.228 960.388>
LayerCount: 5
Back
Fore
SplineSet
360 1280 m 1
 526 1536 l 1
 664 1536 l 1
 498 1280 l 1
 360 1280 l 1
553 1032 m 2
 256 1032 l 1
 256 640 l 1
 553 640 l 2
 589 640 621 641 648 647 c 0
 729 666 784 736 784 836 c 0
 784 936 729 1007 648 1025 c 0
 621 1031 589 1032 553 1032 c 2
553 1152 m 2
 591 1152 633 1152 679 1141 c 0
 812 1109 912 997 912 836 c 0
 912 679 817 569 689 534 c 1
 938 0 l 1
 799 0 l 1
 556 520 l 1
 256 520 l 1
 256 0 l 1
 128 0 l 1
 128 1152 l 1
 553 1152 l 2
EndSplineSet
Validated: 1
Layer: 2
Layer: 3
Layer: 4
EndChar
StartChar: sacute
Encoding: 347 347 262
GlifName: sacute
Width: 1024
VWidth: 0
Flags: W
HStem: -16 120<260.105 715.757> 920 120<422.73 881.877> 1398 20G<656.031 807>
VStem: 234 128<684.282 862.161> 800 128<188.193 426.634>
LayerCount: 5
Back
Fore
SplineSet
567 -16 m 4
 464 -16 345 -4 256 6 c 5
 256 126 l 5
 341 116 470 104 567 104 c 4
 755 104 800 228 800 308 c 4
 800 390 757 449 700 478 c 4
 614 522 507 499 402 540 c 4
 318 573 234 653 234 771 c 4
 234 901 343 1040 572 1040 c 4
 689 1040 799 1023 886 1009 c 5
 886 889 l 5
 798 902 675 920 572 920 c 4
 410 920 362 831 362 771 c 4
 362 711 404 670 450 652 c 4
 543 616 654 640 762 584 c 4
 855 536 928 438 928 308 c 4
 928 145 810 -16 567 -16 c 4
503 1162 m 1
 669 1418 l 1
 807 1418 l 1
 641 1162 l 1
 503 1162 l 1
EndSplineSet
Validated: 1
Layer: 2
Layer: 3
Layer: 4
EndChar
StartChar: scircumflex
Encoding: 349 349 264
Width: 1024
VWidth: 0
Flags: W
HStem: -16 120<283.943 711.38> 920 120<422.73 822.146> 1398 20G<469.797 674.203>
VStem: 234 128<692.139 861.96> 800 128<190.689 434.278>
LayerCount: 5
Back
Fore
SplineSet
567 -16 m 0
 474 -16 355 7 256 26 c 1
 256 149 l 1
 351 129 480 104 567 104 c 0
 755 104 800 231 800 313 c 0
 800 397 757 458 700 488 c 0
 614 532 507 510 402 550 c 0
 318 582 234 661 234 776 c 0
 234 904 343 1040 572 1040 c 0
 679 1040 789 1012 886 989 c 1
 886 866 l 1
 788 889 665 920 572 920 c 0
 410 920 362 834 362 776 c 0
 362 719 404 679 450 662 c 0
 543 627 654 651 762 594 c 0
 855 545 928 445 928 313 c 0
 928 147 810 -16 567 -16 c 0
493 1418 m 1
 651 1418 l 1
 948 1162 l 1
 790 1162 l 1
 572 1326 l 1
 354 1162 l 1
 196 1162 l 1
 493 1418 l 1
EndSplineSet
Validated: 1
Layer: 2
Layer: 3
Layer: 4
EndChar
StartChar: Scedilla
Encoding: 350 350 265
GlifName: S_cedilla
Width: 1024
VWidth: 0
Flags: W
HStem: -400 120<386.225 605.949> -16 120<255.44 636.627> 1304 120<468.491 984.716>
VStem: 226 128<903.41 1188.89> 640 128<-233.261 -16> 926 128<236.445 530.163>
LayerCount: 5
Back
SplineSet
576 -16 m 4
 452 -16 322 -2 206 16 c 5
 206 139 l 5
 320 121 458 104 576 104 c 4
 755 104 882 209 882 385 c 4
 882 508 813 597 724 632 c 4
 610 678 500 650 367 721 c 4
 260 778 182 895 182 1045 c 4
 182 1266 341 1424 576 1424 c 4
 702 1424 833 1407 946 1389 c 5
 946 1265 l 5
 834 1285 691 1304 576 1304 c 4
 411 1304 310 1198 310 1045 c 4
 310 942 361 863 433 825 c 4
 531 773 656 788 772 742 c 4
 901 691 1010 566 1010 385 c 4
 1010 143 825 -16 576 -16 c 4
EndSplineSet
Fore
SplineSet
620 -16 m 0
 486 -16 366 -2 250 16 c 1
 250 139 l 1
 364 121 492 104 620 104 c 0
 799 104 926 209 926 385 c 0
 926 508 857 597 768 632 c 0
 654 678 544 650 411 721 c 0
 304 778 226 895 226 1045 c 0
 226 1266 385 1424 620 1424 c 0
 756 1424 877 1411 990 1399 c 1
 990 1278 l 1
 878 1290 745 1304 620 1304 c 0
 455 1304 354 1198 354 1045 c 0
 354 942 405 863 477 825 c 0
 575 773 700 788 816 742 c 0
 945 691 1054 566 1054 385 c 0
 1054 194 939 55 768 5 c 1
 768 -105 l 2
 768 -165 768 -235 716 -305 c 0
 674 -362 602 -400 512 -400 c 0
 477 -400 431 -393 384 -383 c 1
 384 -260 l 1
 432 -271 478 -280 512 -280 c 0
 559 -280 591 -263 612 -235 c 0
 640 -198 640 -155 640 -105 c 2
 640 -16 l 1
 633 -16 627 -16 620 -16 c 0
EndSplineSet
Validated: 1
Layer: 2
Layer: 3
Layer: 4
EndChar
